<?xml version="1.0" encoding="utf-8"?>
<!-- Created with "sPlan" (http://www.abacom-online.de) -->
<svg version="1.1" baseProfile="full"
xmlns="http://www.w3.org/2000/svg"
width="650" height="645">
<title>schema2</title>
<defs>
<style type="text/css">
<![CDATA[
polyline {stroke-linecap:round; stroke-linejoin:round}
polygon {stroke-linecap:round; stroke-linejoin:round}
path {stroke-linecap:round; stroke-linejoin:round}
circle {stroke-linecap:round; stroke-linejoin:round}
]]>
</style>
</defs>
<polyline points="90.00 85.00 120.00 85.00" fill="none" stroke="rgb(0,0,0)" stroke-width="2" />
<circle cx="165.00" cy="85.00" r="45.00" fill="rgb(255,255,255)" stroke="rgb(0,0,0)" stroke-width="2" />
<polyline points="210.00 85.00 240.00 85.00" fill="none" stroke="rgb(0,0,0)" stroke-width="2" />
<text x="130.00" y="94.00" font-family ="ARIAL" font-size ="17pt" font-weight="normal" font-style="normal" fill="rgb(0,0,0)" transform=" rotate(0.000) scale(1.000,1.000)">${iInMid}</text>
<polyline points="90.00 225.00 90.00 255.00" fill="none" stroke="rgb(0,0,0)" stroke-width="2" />
<circle cx="90.00" cy="300.00" r="45.00" fill="rgb(255,255,255)" stroke="rgb(0,0,0)" stroke-width="2" />
<polyline points="90.00 345.00 90.00 375.00" fill="none" stroke="rgb(0,0,0)" stroke-width="2" />
<text x="60.00" y="304.00" font-family ="ARIAL" font-size ="17pt" font-weight="normal" font-style="normal" fill="rgb(0,0,0)" transform=" rotate(0.000) scale(1.000,1.000)">${uIn}</text>
<polyline points="310.00 275.00 260.00 275.00" fill="none" stroke="rgb(0,0,0)" stroke-width="2" />
<polygon points="285 250 285 260 270 255" fill="rgb(0,0,0)" stroke="rgb(0,0,0)" stroke-width="1" />
<polyline points="260.00 235.00 310.00 235.00" fill="none" stroke="rgb(0,0,0)" stroke-width="2" />
<polyline points="210.00 275.00 250.00 275.00 250.00 235.00" fill="none" stroke="rgb(0,0,0)" stroke-width="2" />
<polyline points="260.00 255.00 300.00 255.00" fill="none" stroke="rgb(0,0,0)" stroke-width="2" />
<path fill="rgb(0,0,0)" stroke="rgb(0,0,0)" stroke-width="1" style="stroke-linecap:square; stroke-linejoin:miter" d=" M 255 227 L 260 227 260 242 255 242 255 227" />
<path fill="rgb(0,0,0)" stroke="rgb(0,0,0)" stroke-width="1" style="stroke-linecap:square; stroke-linejoin:miter" d=" M 255 247 L 260 247 260 262 255 262 255 247" />
<path fill="rgb(0,0,0)" stroke="rgb(0,0,0)" stroke-width="1" style="stroke-linecap:square; stroke-linejoin:miter" d=" M 255 267 L 260 267 260 282 255 282 255 267" />
<text x="240.00" y="214.00" font-family ="ARIAL" font-size ="17pt" font-weight="normal" font-style="normal" fill="rgb(0,0,0)" transform=" rotate(0.000) scale(1.000,1.000)">T1</text>
<text x="240.00" y="309.00" font-family ="ARIAL" font-size ="17pt" font-weight="normal" font-style="normal" fill="rgb(0,0,0)" transform=" rotate(0.000) scale(1.000,1.000)"></text>
<polyline points="310.00 85.00 310.00 95.00" fill="none" stroke="rgb(0,0,0)" stroke-width="2" />
<polyline points="310.00 175.00 310.00 185.00" fill="none" stroke="rgb(0,0,0)" stroke-width="2" />
<path fill="none" stroke="rgb(0,0,0)" stroke-width="2" d=" M 310.00 115.00 Q 310.00 115.00 310.98 114.90 Q 311.95 114.81 312.89 114.52 Q 313.83 114.24 314.69 113.78 Q 315.56 113.31 316.31 112.69 Q 317.07 112.07 317.69 111.31 Q 318.31 110.56 318.78 109.69 Q 319.24 108.83 319.52 107.89 Q 319.81 106.95 319.90 105.98 Q 320.00 105.00 319.90 104.02 Q 319.81 103.05 319.52 102.11 Q 319.24 101.17 318.78 100.31 Q 318.31 99.44 317.69 98.69 Q 317.07 97.93 316.31 97.31 Q 315.56 96.69 314.69 96.22 Q 313.83 95.76 312.89 95.48 Q 311.95 95.19 310.98 95.10 Q 310.00 95.00 310.00 95.00 L 310.00 95.00" />
<path fill="none" stroke="rgb(0,0,0)" stroke-width="2" d=" M 310.00 135.00 Q 310.00 135.00 310.98 134.90 Q 311.95 134.81 312.89 134.52 Q 313.83 134.24 314.69 133.78 Q 315.56 133.31 316.31 132.69 Q 317.07 132.07 317.69 131.31 Q 318.31 130.56 318.78 129.69 Q 319.24 128.83 319.52 127.89 Q 319.81 126.95 319.90 125.98 Q 320.00 125.00 319.90 124.02 Q 319.81 123.05 319.52 122.11 Q 319.24 121.17 318.78 120.31 Q 318.31 119.44 317.69 118.69 Q 317.07 117.93 316.31 117.31 Q 315.56 116.69 314.69 116.22 Q 313.83 115.76 312.89 115.48 Q 311.95 115.19 310.98 115.10 Q 310.00 115.00 310.00 115.00 L 310.00 115.00" />
<path fill="none" stroke="rgb(0,0,0)" stroke-width="2" d=" M 310.00 155.00 Q 310.00 155.00 310.98 154.90 Q 311.95 154.81 312.89 154.52 Q 313.83 154.24 314.69 153.78 Q 315.56 153.31 316.31 152.69 Q 317.07 152.07 317.69 151.31 Q 318.31 150.56 318.78 149.69 Q 319.24 148.83 319.52 147.89 Q 319.81 146.95 319.90 145.98 Q 320.00 145.00 319.90 144.02 Q 319.81 143.05 319.52 142.11 Q 319.24 141.17 318.78 140.31 Q 318.31 139.44 317.69 138.69 Q 317.07 137.93 316.31 137.31 Q 315.56 136.69 314.69 136.22 Q 313.83 135.76 312.89 135.48 Q 311.95 135.19 310.98 135.10 Q 310.00 135.00 310.00 135.00 L 310.00 135.00" />
<path fill="none" stroke="rgb(0,0,0)" stroke-width="2" d=" M 310.00 175.00 Q 310.00 175.00 310.98 174.90 Q 311.95 174.81 312.89 174.52 Q 313.83 174.24 314.69 173.78 Q 315.56 173.31 316.31 172.69 Q 317.07 172.07 317.69 171.31 Q 318.31 170.56 318.78 169.69 Q 319.24 168.83 319.52 167.89 Q 319.81 166.95 319.90 165.98 Q 320.00 165.00 319.90 164.02 Q 319.81 163.05 319.52 162.11 Q 319.24 161.17 318.78 160.31 Q 318.31 159.44 317.69 158.69 Q 317.07 157.93 316.31 157.31 Q 315.56 156.69 314.69 156.22 Q 313.83 155.76 312.89 155.48 Q 311.95 155.19 310.98 155.10 Q 310.00 155.00 310.00 155.00 L 310.00 155.00" />
<polyline points="325.00 95.00 325.00 175.00" fill="none" stroke="rgb(0,0,0)" stroke-width="2" />
<text x="330.00" y="114.00" font-family ="Arial" font-size ="17pt" font-weight="normal" font-style="italic" fill="rgb(0,0,0)" transform=" rotate(0.000) scale(1.000,1.000)">L1</text>
<text x="330.00" y="134.00" font-family ="Arial" font-size ="17pt" font-weight="normal" font-style="italic" fill="rgb(0,0,0)" transform=" rotate(0.000) scale(1.000,1.000)">${inductance}</text>
<polyline points="310.00 275.00 310.00 305.00" fill="none" stroke="rgb(0,0,0)" stroke-width="2" />
<circle cx="310.00" cy="350.00" r="45.00" fill="rgb(255,255,255)" stroke="rgb(0,0,0)" stroke-width="2" />
<polyline points="310.00 395.00 310.00 425.00" fill="none" stroke="rgb(0,0,0)" stroke-width="2" />
<text x="280.00" y="354.00" font-family ="ARIAL" font-size ="17pt" font-weight="normal" font-style="normal" fill="rgb(0,0,0)" transform=" rotate(0.000) scale(1.000,1.000)">${iInPeak}</text>
<polyline points="240.00 85.00 240.00 115.00 220.00 115.00 260.00 115.00" fill="none" stroke="rgb(0,0,0)" stroke-width="2" />
<polyline points="220.00 125.00 260.00 125.00 240.00 125.00 240.00 155.00" fill="none" stroke="rgb(0,0,0)" stroke-width="2" />
<polyline points="250.00 105.00 260.00 105.00" fill="none" stroke="rgb(0,0,0)" stroke-width="2" />
<polyline points="255.00 100.00 255.00 110.00" fill="none" stroke="rgb(0,0,0)" stroke-width="2" />
<text x="265.00" y="109.00" font-family ="Arial" font-size ="17pt" font-weight="normal" font-style="italic" fill="rgb(0,0,0)" transform=" rotate(0.000) scale(1.000,1.000)">C1</text>
<circle cx="310" cy="185" r="6" fill="rgb(0,0,0)" stroke="none" stroke-width="2" />
<polyline points="460.00 425.00 460.00 455.00" fill="none" stroke="rgb(0,0,0)" stroke-width="2" />
<circle cx="460.00" cy="500.00" r="45.00" fill="rgb(255,255,255)" stroke="rgb(0,0,0)" stroke-width="2" />
<polyline points="460.00 545.00 460.00 575.00" fill="none" stroke="rgb(0,0,0)" stroke-width="2" />
<text x="430.00" y="504.00" font-family ="ARIAL" font-size ="17pt" font-weight="normal" font-style="normal" fill="rgb(0,0,0)" transform=" rotate(0.000) scale(1.000,1.000)">${uOut}</text>
<polyline points="460.00 425.00 490.00 425.00" fill="none" stroke="rgb(0,0,0)" stroke-width="2" />
<circle cx="535.00" cy="425.00" r="45.00" fill="rgb(255,255,255)" stroke="rgb(0,0,0)" stroke-width="2" />
<polyline points="580.00 425.00 610.00 425.00" fill="none" stroke="rgb(0,0,0)" stroke-width="2" />
<text x="500.00" y="434.00" font-family ="ARIAL" font-size ="17pt" font-weight="normal" font-style="normal" fill="rgb(0,0,0)" transform=" rotate(0.000) scale(1.000,1.000)">${iOut}</text>
<polygon points="460 395 440 365 480 365" fill="rgb(255,255,255)" stroke="rgb(0,0,0)" stroke-width="2" />
<polyline points="460.00 425.00 460.00 335.00" fill="none" stroke="rgb(0,0,0)" stroke-width="2" />
<polyline points="480.00 395.00 440.00 395.00" fill="none" stroke="rgb(0,0,0)" stroke-width="2" />
<text x="398.72" y="344.00" font-family ="Arial" font-size ="17pt" font-weight="normal" font-style="italic" fill="rgb(0,0,0)" transform=" rotate(0.000) scale(1.000,1.000)">VD1</text>
<text x="429.00" y="380.00" font-family ="Arial" font-size ="17pt" font-weight="normal" font-style="italic" fill="rgb(0,0,0)" transform=" rotate(0.000) scale(1.000,1.000)"></text>
<polyline points="460.00 185.00 460.00 215.00" fill="none" stroke="rgb(0,0,0)" stroke-width="2" />
<circle cx="460.00" cy="260.00" r="45.00" fill="rgb(255,255,255)" stroke="rgb(0,0,0)" stroke-width="2" />
<polyline points="460.00 305.00 460.00 335.00" fill="none" stroke="rgb(0,0,0)" stroke-width="2" />
<text x="430.00" y="264.00" font-family ="ARIAL" font-size ="17pt" font-weight="normal" font-style="normal" fill="rgb(0,0,0)" transform=" rotate(0.000) scale(1.000,1.000)">${iDiodePeak}</text>
<polyline points="160.00 335.00 160.00 295.00 180.00 295.00 180.00 335.00 200.00 335.00 200.00 295.00 220.00 295.00 220.00 335.00 240.00 335.00" fill="none" stroke="rgb(0,0,0)" stroke-width="2" />
<polyline points="310.00 425.00 310.00 455.00" fill="none" stroke="rgb(0,0,0)" stroke-width="2" />
<polyline points="290.00 455.00 330.00 455.00" fill="none" stroke="rgb(0,0,0)" stroke-width="4" />
<polyline points="240.00 155.00 240.00 185.00" fill="none" stroke="rgb(0,0,0)" stroke-width="2" />
<polyline points="220.00 185.00 260.00 185.00" fill="none" stroke="rgb(0,0,0)" stroke-width="4" />
<polyline points="240.00 85.00 310.00 85.00" fill="none" stroke="rgb(0,0,0)" stroke-width="2" />
<polyline points="40.00 85.00 90.00 85.00 90.00 225.00" fill="none" stroke="rgb(0,0,0)" stroke-width="2" />
<polyline points="90.00 375.00 90.00 425.00 310.00 425.00" fill="none" stroke="rgb(0,0,0)" stroke-width="2" />
<polyline points="460.00 185.00 310.00 185.00 310.00 235.00" fill="none" stroke="rgb(0,0,0)" stroke-width="2" />
<circle cx="240" cy="85" r="6" fill="rgb(0,0,0)" stroke="none" stroke-width="2" />
<circle cx="460" cy="425" r="6" fill="rgb(0,0,0)" stroke="none" stroke-width="2" />
<polyline points="460.00 575.00 460.00 605.00" fill="none" stroke="rgb(0,0,0)" stroke-width="2" />
<polyline points="440.00 605.00 480.00 605.00" fill="none" stroke="rgb(0,0,0)" stroke-width="4" />
<polyline points="380.00 425.00 350.00 425.00 350.00 405.00 350.00 445.00" fill="none" stroke="rgb(0,0,0)" stroke-width="2" />
<polyline points="360.00 410.00 370.00 410.00" fill="none" stroke="rgb(0,0,0)" stroke-width="2" />
<polyline points="365.00 405.00 365.00 415.00" fill="none" stroke="rgb(0,0,0)" stroke-width="2" />
<polyline points="310.00 425.00 340.00 425.00 340.00 405.00 340.00 445.00" fill="none" stroke="rgb(0,0,0)" stroke-width="2" />
<text x="332.40" y="474.00" font-family ="Arial" font-size ="17pt" font-weight="normal" font-style="italic" fill="rgb(0,0,0)" transform=" rotate(0.000) scale(1.000,1.000)">C2</text>
<text x="270.08" y="494.00" font-family ="Arial" font-size ="17pt" font-weight="normal" font-style="italic" fill="rgb(0,0,0)" transform=" rotate(0.000) scale(1.000,1.000)">${capacitance}</text>
<circle cx="310" cy="425" r="6" fill="rgb(0,0,0)" stroke="none" stroke-width="2" />
<polyline points="460.00 425.00 380.00 425.00" fill="none" stroke="rgb(0,0,0)" stroke-width="2" />
<text x="150.00" y="369.00" font-family ="Arial" font-size ="21pt" font-weight="normal" font-style="normal" fill="rgb(0,0,0)" transform=" rotate(0.000) scale(1.000,1.000)">${freq}</text>
<circle cx="90" cy="85" r="6" fill="rgb(0,0,0)" stroke="none" stroke-width="2" />
<polyline points="610.00 505.00 560.00 505.00 560.00 575.00 460.00 575.00" fill="none" stroke="rgb(0,0,0)" stroke-width="2" />
<circle cx="460" cy="575" r="6" fill="rgb(0,0,0)" stroke="none" stroke-width="2" />
</svg>
