<?xml version="1.0" encoding="utf-8"?>
<!-- Created with "sPlan" (http://www.abacom-online.de) -->
<svg version="1.1" xmlns="http://www.w3.org/2000/svg" width="720" height="585">
<title>schema1</title>
<defs>
<style type="text/css">
<![CDATA[
polyline {stroke-linecap:round; stroke-linejoin:round}
polygon {stroke-linecap:round; stroke-linejoin:round}
path {stroke-linecap:round; stroke-linejoin:round}
circle {stroke-linecap:round; stroke-linejoin:round}
]]>
</style>
</defs>
<polyline points="130,85 160,85" fill="none" stroke="rgb(0,0,0)" stroke-width="2" />
<circle cx="205" cy="85" r="45" fill="rgb(255,255,255)" stroke="rgb(0,0,0)" stroke-width="2" />
<polyline points="250,85 280,85" fill="none" stroke="rgb(0,0,0)" stroke-width="2" />
<text x="170" y="94" font-family ="ARIAL" font-size ="17pt" font-weight="normal" font-style="normal" fill="rgb(0,0,0)" transform=" rotate(0) scale(1,1)">${iInMid}</text>
<polyline points="90,105 90,135" fill="none" stroke="rgb(0,0,0)" stroke-width="2" />
<circle cx="90" cy="180" r="45" fill="rgb(255,255,255)" stroke="rgb(0,0,0)" stroke-width="2" />
<polyline points="90,225 90,255" fill="none" stroke="rgb(0,0,0)" stroke-width="2" />
<text x="50" y="184" font-family ="ARIAL" font-size ="17pt" font-weight="normal" font-style="normal" fill="rgb(0,0,0)" transform=" rotate(0) scale(1,1)">${uIn}</text>
<polyline points="330,275 380,275" fill="none" stroke="rgb(0,0,0)" stroke-width="2" />
<polygon points="355,250 355,260 370,255" fill="rgb(0,0,0)" stroke="rgb(0,0,0)" stroke-width="1" />
<polyline points="380,235 330,235" fill="none" stroke="rgb(0,0,0)" stroke-width="2" />
<polyline points="430,275 390,275 390,235" fill="none" stroke="rgb(0,0,0)" stroke-width="2" />
<polyline points="380,255 340,255" fill="none" stroke="rgb(0,0,0)" stroke-width="2" />
<path fill="rgb(0,0,0)" stroke="rgb(0,0,0)" stroke-width="1" style="stroke-linecap:square; stroke-linejoin:miter" d="M 385 227 L 380 227 380 242 385 242 385 227" />
<path fill="rgb(0,0,0)" stroke="rgb(0,0,0)" stroke-width="1" style="stroke-linecap:square; stroke-linejoin:miter" d="M 385 247 L 380 247 380 262 385 262 385 247" />
<path fill="rgb(0,0,0)" stroke="rgb(0,0,0)" stroke-width="1" style="stroke-linecap:square; stroke-linejoin:miter" d="M 385 267 L 380 267 380 282 385 282 385 267" />
<text x="375.28" y="214" font-family ="ARIAL" font-size ="17pt" font-weight="normal" font-style="normal" fill="rgb(0,0,0)" transform=" rotate(0) scale(1,1)">T1</text>
<text x="394" y="309" font-family ="ARIAL" font-size ="17pt" font-weight="normal" font-style="normal" fill="rgb(0,0,0)" transform=" rotate(0) scale(1,1)"></text>
<text x="450" y="279" font-family ="Arial" font-size ="21pt" font-weight="normal" font-style="normal" fill="rgb(0,0,0)" transform=" rotate(0) scale(1,1)">${freq}</text>
<polyline points="460,245 460,205 480,205 480,245 500,245 500,205 520,205 520,245 540,245" fill="none" stroke="rgb(0,0,0)" stroke-width="2" />
<polyline points="330,365 340,365" fill="none" stroke="rgb(0,0,0)" stroke-width="2" />
<polyline points="420,365 430,365" fill="none" stroke="rgb(0,0,0)" stroke-width="2" />
<path fill="none" stroke="rgb(0,0,0)" stroke-width="2" d="M 340 365 Q 340 365 340.10 365.98 Q 340.19 366.95 340.48 367.89 Q 340.76 368.83 341.22 369.69 Q 341.69 370.56 342.31 371.31 Q 342.93 3727 343.69 372.69 Q 344.44 373.31 345.31 373.78 Q 346.17 374.24 347.11 374.52 Q 3485 374.81 3492 374.90 Q 350 375 350.98 374.90 Q 351.95 374.81 352.89 374.52 Q 353.83 374.24 354.69 373.78 Q 355.56 373.31 356.31 372.69 Q 3577 3727 357.69 371.31 Q 358.31 370.56 358.78 369.69 Q 359.24 368.83 359.52 367.89 Q 359.81 366.95 359.90 365.98 Q 360 365 360 365 L 360 365" />
<path fill="none" stroke="rgb(0,0,0)" stroke-width="2" d="M 360,365 Q 360 365 360.10 365.98 Q 360.19 366.95 360.48 367.89 Q 360.76 368.83 361.22 369.69 Q 361.69 370.56 362.31 371.31 Q 362.93 3727 363.69 372.69 Q 364.44 373.31 365.31 373.78 Q 366.17 374.24 367.11 374.52 Q 3685 374.81 3692 374.90 Q 370 375 370.98 374.90 Q 371.95 374.81 372.89 374.52 Q 373.83 374.24 374.69 373.78 Q 375.56 373.31 376.31 372.69 Q 3777 3727 377.69 371.31 Q 378.31 370.56 378.78 369.69 Q 379.24 368.83 379.52 367.89 Q 379.81 366.95 379.90 365.98 Q 380 365 380 365 L 380 365" />
<path fill="none" stroke="rgb(0,0,0)" stroke-width="2" d="M 380,365 Q 380 365 380.10 365.98 Q 380.19 366.95 380.48 367.89 Q 380.76 368.83 381.22 369.69 Q 381.69 370.56 382.31 371.31 Q 382.93 3727 383.69 372.69 Q 384.44 373.31 385.31 373.78 Q 386.17 374.24 387.11 374.52 Q 3885 374.81 3892 374.90 Q 390 375 390.98 374.90 Q 391.95 374.81 392.89 374.52 Q 393.83 374.24 394.69 373.78 Q 395.56 373.31 396.31 372.69 Q 3977 3727 397.69 371.31 Q 398.31 370.56 398.78 369.69 Q 399.24 368.83 399.52 367.89 Q 399.81 366.95 399.90 365.98 Q 400 365 400 365 L 400 365" />
<path fill="none" stroke="rgb(0,0,0)" stroke-width="2" d="M 400,365 Q 400 365 400.10 365.98 Q 400.19 366.95 400.48 367.89 Q 400.76 368.83 401.22 369.69 Q 401.69 370.56 402.31 371.31 Q 402.93 3727 403.69 372.69 Q 404.44 373.31 405.31 373.78 Q 406.17 374.24 407.11 374.52 Q 4085 374.81 4092 374.90 Q 410 375 410.98 374.90 Q 411.95 374.81 412.89 374.52 Q 413.83 374.24 414.69 373.78 Q 415.56 373.31 416.31 372.69 Q 4177 3727 417.69 371.31 Q 418.31 370.56 418.78 369.69 Q 419.24 368.83 419.52 367.89 Q 419.81 366.95 419.90 365.98 Q 420 365 420 365 L 420 365" />
<polyline points="340,380 420,380" fill="none" stroke="rgb(0,0,0)" stroke-width="2" />
<text x="350" y="324" font-family ="Arial" font-size ="17pt" font-weight="normal" font-style="italic" fill="rgb(0,0,0)" transform=" rotate(0) scale(1,1)">L1</text>
<text x="340" y="344" font-family ="Arial" font-size ="17pt" font-weight="normal" font-style="italic" fill="rgb(0,0,0)" transform=" rotate(0) scale(1,1)">${inductance}</text>
<polyline points="210,365 210,395" fill="none" stroke="rgb(0,0,0)" stroke-width="2" />
<circle cx="210" cy="440" r="45" fill="rgb(255,255,255)" stroke="rgb(0,0,0)" stroke-width="2" />
<polyline points="210,485 210,515" fill="none" stroke="rgb(0,0,0)" stroke-width="2" />
<text x="180" y="444" font-family ="ARIAL" font-size ="17pt" font-weight="normal" font-style="normal" fill="rgb(0,0,0)" transform=" rotate(0) scale(1,1)">${iDiodePeak}</text>
<polyline points="530,365 530,395" fill="none" stroke="rgb(0,0,0)" stroke-width="2" />
<circle cx="530" cy="440" r="45" fill="rgb(255,255,255)" stroke="rgb(0,0,0)" stroke-width="2" />
<polyline points="530,485 530,515" fill="none" stroke="rgb(0,0,0)" stroke-width="2" />
<text x="490" y="444" font-family ="ARIAL" font-size ="17pt" font-weight="normal" font-style="normal" fill="rgb(0,0,0)" transform=" rotate(0) scale(1,1)">${uOut}</text>
<polyline points="530,365 560,365" fill="none" stroke="rgb(0,0,0)" stroke-width="2" />
<circle cx="605" cy="365" r="45" fill="rgb(255,255,255)" stroke="rgb(0,0,0)" stroke-width="2" />
<polyline points="650,365 680,365" fill="none" stroke="rgb(0,0,0)" stroke-width="2" />
<text x="570" y="374" font-family ="ARIAL" font-size ="17pt" font-weight="normal" font-style="normal" fill="rgb(0,0,0)" transform=" rotate(0) scale(1,1)">${iOut}</text>
<polyline points="430,445 430,475 450,475 410,475" fill="none" stroke="rgb(0,0,0)" stroke-width="2" />
<polyline points="450,485 410,485 430,485 430,515" fill="none" stroke="rgb(0,0,0)" stroke-width="2" />
<polyline points="420,465 410,465" fill="none" stroke="rgb(0,0,0)" stroke-width="2" />
<polyline points="415,460 415,470" fill="none" stroke="rgb(0,0,0)" stroke-width="2" />
<text x="342.88" y="454" font-family ="Arial" font-size ="17pt" font-weight="normal" font-style="italic" fill="rgb(0,0,0)" transform=" rotate(0) scale(1,1)">C1</text>
<text x="2608" y="484" font-family ="Arial" font-size ="17pt" font-weight="normal" font-style="italic" fill="rgb(0,0,0)" transform=" rotate(0) scale(1,1)">${capacitance}</text>
<polygon points="210,305 230,335 190,335" fill="rgb(255,255,255)" stroke="rgb(0,0,0)" stroke-width="2" />
<polyline points="210,275 210,365" fill="none" stroke="rgb(0,0,0)" stroke-width="2" />
<polyline points="190,305 230,305" fill="none" stroke="rgb(0,0,0)" stroke-width="2" />
<text x="235" y="314" font-family ="Arial" font-size ="17pt" font-weight="normal" font-style="italic" fill="rgb(0,0,0)" transform=" rotate(0) scale(1,1)">VD1</text>
<text x="235" y="334" font-family ="Arial" font-size ="17pt" font-weight="normal" font-style="italic" fill="rgb(0,0,0)" transform=" rotate(0) scale(1,1)"></text>
<polyline points="330,85 330,115" fill="none" stroke="rgb(0,0,0)" stroke-width="2" />
<circle cx="330" cy="160" r="45" fill="rgb(255,255,255)" stroke="rgb(0,0,0)" stroke-width="2" />
<polyline points="330,205 330,235" fill="none" stroke="rgb(0,0,0)" stroke-width="2" />
<text x="290" y="164" font-family ="ARIAL" font-size ="17pt" font-weight="normal" font-style="normal" fill="rgb(0,0,0)" transform=" rotate(0) scale(1,1)">${iInPeak}</text>
<polyline points="430,85 430,115 410,115 450,115" fill="none" stroke="rgb(0,0,0)" stroke-width="2" />
<polyline points="410,125 450,125 430,125 430,155" fill="none" stroke="rgb(0,0,0)" stroke-width="2" />
<polyline points="440,105 450,105" fill="none" stroke="rgb(0,0,0)" stroke-width="2" />
<polyline points="445,100 445,110" fill="none" stroke="rgb(0,0,0)" stroke-width="2" />
<text x="460" y="124" font-family ="Arial" font-size ="17pt" font-weight="normal" font-style="italic" fill="rgb(0,0,0)" transform=" rotate(0) scale(1,1)">C2</text>
<polyline points="430,155 430,185" fill="none" stroke="rgb(0,0,0)" stroke-width="2" />
<polyline points="410,185 450,185" fill="none" stroke="rgb(0,0,0)" stroke-width="4" />
<polyline points="430,85 280,85" fill="none" stroke="rgb(0,0,0)" stroke-width="2" />
<polyline points="130,85 40,85" fill="none" stroke="rgb(0,0,0)" stroke-width="2" />
<circle cx="90" cy="85" r="6" fill="rgb(0,0,0)" stroke="none" stroke-width="2" />
<polyline points="430,515 430,545" fill="none" stroke="rgb(0,0,0)" stroke-width="2" />
<polyline points="410,545 450,545" fill="none" stroke="rgb(0,0,0)" stroke-width="4" />
<circle cx="330" cy="275" r="6" fill="rgb(0,0,0)" stroke="none" stroke-width="2" />
<circle cx="430" cy="515" r="6" fill="rgb(0,0,0)" stroke="none" stroke-width="2" />
<polyline points="530,515 210,515 90,515 90,255" fill="none" stroke="rgb(0,0,0)" stroke-width="2" />
<circle cx="210" cy="515" r="6" fill="rgb(0,0,0)" stroke="none" stroke-width="2" />
<circle cx="330" cy="85" r="6" fill="rgb(0,0,0)" stroke="none" stroke-width="2" />
<circle cx="430" cy="365" r="6" fill="rgb(0,0,0)" stroke="none" stroke-width="2" />
<polyline points="210,275 330,275 330,365" fill="none" stroke="rgb(0,0,0)" stroke-width="2" />
<polyline points="530,365 430,365 430,445" fill="none" stroke="rgb(0,0,0)" stroke-width="2" />
<circle cx="530" cy="365" r="6" fill="rgb(0,0,0)" stroke="none" stroke-width="2" />
<polyline points="90,85 90,105" fill="none" stroke="rgb(0,0,0)" stroke-width="2" />
<polyline points="90,295 40,295" fill="none" stroke="rgb(0,0,0)" stroke-width="2" />
<circle cx="90" cy="295" r="6" fill="rgb(0,0,0)" stroke="none" stroke-width="2" />
<polyline points="530,515 680,515" fill="none" stroke="rgb(0,0,0)" stroke-width="2" />
<circle cx="530" cy="515" r="6" fill="rgb(0,0,0)" stroke="none" stroke-width="2" />
</svg>
