<?xml version="1.0" encoding="utf-8"?>
<!-- Created with "sPlan" (http://www.abacom-online.de) -->
<svg version="1.1" xmlns="http://www.w3.org/2000/svg" width="499" height="665">
<title>schema3</title>
<defs>
<style type="text/css">
<![CDATA[
polyline {stroke-linecap:round; stroke-linejoin:round}
polygon {stroke-linecap:round; stroke-linejoin:round}
path {stroke-linecap:round; stroke-linejoin:round}
circle {stroke-linecap:round; stroke-linejoin:round}
]]>
</style>
</defs>
<polyline points="130,85 160,85" fill="none" stroke="rgb(0,0,0)" stroke-width="2" />
<circle cx="205" cy="85" r="45" fill="rgb(255,255,255)" stroke="rgb(0,0,0)" stroke-width="2" />
<polyline points="250,85 280,85" fill="none" stroke="rgb(0,0,0)" stroke-width="2" />
<text x="160" y="94" font-family ="ARIAL" font-size ="17pt" font-weight="normal" font-style="normal" fill="rgb(0,0,0)" transform=" rotate(00) scale(10,10)">${iInMid}</text>
<polyline points="100,105 100,135" fill="none" stroke="rgb(0,0,0)" stroke-width="2" />
<circle cx="100" cy="180" r="45" fill="rgb(255,255,255)" stroke="rgb(0,0,0)" stroke-width="2" />
<polyline points="100,225 100,255" fill="none" stroke="rgb(0,0,0)" stroke-width="2" />
<text x="60" y="184" font-family ="ARIAL" font-size ="17pt" font-weight="normal" font-style="normal" fill="rgb(0,0,0)" transform=" rotate(00) scale(10,10)">${uIn}</text>
<polyline points="280,275 330,275" fill="none" stroke="rgb(0,0,0)" stroke-width="2" />
<polygon points="305,250 305,260 320,255" fill="rgb(0,0,0)" stroke="rgb(0,0,0)" stroke-width="1" />
<polyline points="330,235 280,235" fill="none" stroke="rgb(0,0,0)" stroke-width="2" />
<polyline points="380,275 340,275 340,235" fill="none" stroke="rgb(0,0,0)" stroke-width="2" />
<polyline points="330,255 290,255" fill="none" stroke="rgb(0,0,0)" stroke-width="2" />
<path fill="rgb(0,0,0)" stroke="rgb(0,0,0)" stroke-width="1" style="stroke-linecap:square; stroke-linejoin:miter" d="M 335 227 L 330 227 330 242 335 242 335 227" />
<path fill="rgb(0,0,0)" stroke="rgb(0,0,0)" stroke-width="1" style="stroke-linecap:square; stroke-linejoin:miter" d="M 335 247 L 330 247 330 262 335 262 335 247" />
<path fill="rgb(0,0,0)" stroke="rgb(0,0,0)" stroke-width="1" style="stroke-linecap:square; stroke-linejoin:miter" d="M 335 267 L 330 267 330 282 335 282 335 267" />
<text x="325.28" y="214" font-family ="ARIAL" font-size ="17pt" font-weight="normal" font-style="normal" fill="rgb(0,0,0)" transform=" rotate(00) scale(10,10)">T1</text>
<text x="344" y="309" font-family ="ARIAL" font-size ="17pt" font-weight="normal" font-style="normal" fill="rgb(0,0,0)" transform=" rotate(00) scale(10,10)"></text>
<polyline points="280,275 280,285" fill="none" stroke="rgb(0,0,0)" stroke-width="2" />
<polyline points="280,365 280,375" fill="none" stroke="rgb(0,0,0)" stroke-width="2" />
<path fill="none" stroke="rgb(0,0,0)" stroke-width="2" d="M 280 305 Q 280 305 280.98 304.90 Q 281.95 304.81 282.89 304.52 Q 283.83 304.24 284.69 303.78 Q 285.56 303.31 286.31 302.69 Q 2877 3027 287.69 301.31 Q 288.31 300.56 288.78 299.69 Q 289.24 298.83 289.52 297.89 Q 289.81 296.95 289.90 295.98 Q 290 295 289.90 2942 Q 289.81 2935 289.52 292.11 Q 289.24 291.17 288.78 290.31 Q 288.31 289.44 287.69 288.69 Q 2877 287.93 286.31 287.31 Q 285.56 286.69 284.69 286.22 Q 283.83 285.76 282.89 285.48 Q 281.95 285.19 280.98 285.10 Q 280 285 280 285 L 280 285" />
<path fill="none" stroke="rgb(0,0,0)" stroke-width="2" d="M 280 325 Q 280 325 280.98 324.90 Q 281.95 324.81 282.89 324.52 Q 283.83 324.24 284.69 323.78 Q 285.56 323.31 286.31 322.69 Q 2877 3227 287.69 321.31 Q 288.31 320.56 288.78 319.69 Q 289.24 318.83 289.52 317.89 Q 289.81 316.95 289.90 315.98 Q 290 315 289.90 3142 Q 289.81 3135 289.52 312.11 Q 289.24 311.17 288.78 310.31 Q 288.31 309.44 287.69 308.69 Q 2877 307.93 286.31 307.31 Q 285.56 306.69 284.69 306.22 Q 283.83 305.76 282.89 305.48 Q 281.95 305.19 280.98 305.10 Q 280 305 280 305 L 280 305" />
<path fill="none" stroke="rgb(0,0,0)" stroke-width="2" d="M 280 345 Q 280 345 280.98 344.90 Q 281.95 344.81 282.89 344.52 Q 283.83 344.24 284.69 343.78 Q 285.56 343.31 286.31 342.69 Q 2877 3427 287.69 341.31 Q 288.31 340.56 288.78 339.69 Q 289.24 338.83 289.52 337.89 Q 289.81 336.95 289.90 335.98 Q 290 335 289.90 3342 Q 289.81 3335 289.52 332.11 Q 289.24 331.17 288.78 330.31 Q 288.31 329.44 287.69 328.69 Q 2877 327.93 286.31 327.31 Q 285.56 326.69 284.69 326.22 Q 283.83 325.76 282.89 325.48 Q 281.95 325.19 280.98 325.10 Q 280 325 280 325 L 280 325" />
<path fill="none" stroke="rgb(0,0,0)" stroke-width="2" d="M 280 365 Q 280 365 280.98 364.90 Q 281.95 364.81 282.89 364.52 Q 283.83 364.24 284.69 363.78 Q 285.56 363.31 286.31 362.69 Q 2877 3627 287.69 361.31 Q 288.31 360.56 288.78 359.69 Q 289.24 358.83 289.52 357.89 Q 289.81 356.95 289.90 355.98 Q 290 355 289.90 3542 Q 289.81 3535 289.52 352.11 Q 289.24 351.17 288.78 350.31 Q 288.31 349.44 287.69 348.69 Q 2877 347.93 286.31 347.31 Q 285.56 346.69 284.69 346.22 Q 283.83 345.76 282.89 345.48 Q 281.95 345.19 280.98 345.10 Q 280 345 280 345 L 280 345" />
<polyline points="295,285 295,365" fill="none" stroke="rgb(0,0,0)" stroke-width="2" />
<text x="310" y="334" font-family ="Arial" font-size ="17pt" font-weight="normal" font-style="italic" fill="rgb(0,0,0)" transform=" rotate(00) scale(10,10)">L1</text>
<text x="300" y="364" font-family ="Arial" font-size ="17pt" font-weight="normal" font-style="italic" fill="rgb(0,0,0)" transform=" rotate(00) scale(10,10)">${inductance}</text>
<polygon points="160,315 180,345 140,345" fill="rgb(255,255,255)" stroke="rgb(0,0,0)" stroke-width="2" />
<polyline points="160,285 160,375" fill="none" stroke="rgb(0,0,0)" stroke-width="2" />
<polyline points="140,315 180,315" fill="none" stroke="rgb(0,0,0)" stroke-width="2" />
<text x="185" y="324" font-family ="Arial" font-size ="17pt" font-weight="normal" font-style="italic" fill="rgb(0,0,0)" transform=" rotate(00) scale(10,10)">VD1</text>
<text x="185" y="344" font-family ="Arial" font-size ="17pt" font-weight="normal" font-style="italic" fill="rgb(0,0,0)" transform=" rotate(00) scale(10,10)"></text>
<polyline points="280,85 280,115" fill="none" stroke="rgb(0,0,0)" stroke-width="2" />
<circle cx="280" cy="160" r="45" fill="rgb(255,255,255)" stroke="rgb(0,0,0)" stroke-width="2" />
<polyline points="280,205 280,235" fill="none" stroke="rgb(0,0,0)" stroke-width="2" />
<text x="240" y="164" font-family ="ARIAL" font-size ="17pt" font-weight="normal" font-style="normal" fill="rgb(0,0,0)" transform=" rotate(00) scale(10,10)">${iInPeak}</text>
<polyline points="160,375 160,405" fill="none" stroke="rgb(0,0,0)" stroke-width="2" />
<circle cx="160" cy="450" r="45" fill="rgb(255,255,255)" stroke="rgb(0,0,0)" stroke-width="2" />
<polyline points="160,495 160,525" fill="none" stroke="rgb(0,0,0)" stroke-width="2" />
<text x="120" y="454" font-family ="ARIAL" font-size ="17pt" font-weight="normal" font-style="normal" fill="rgb(0,0,0)" transform=" rotate(00) scale(10,10)">${iDiodePeak}</text>
<polyline points="280,525 310,525" fill="none" stroke="rgb(0,0,0)" stroke-width="2" />
<circle cx="355" cy="525" r="45" fill="rgb(255,255,255)" stroke="rgb(0,0,0)" stroke-width="2" />
<polyline points="400,525 430,525" fill="none" stroke="rgb(0,0,0)" stroke-width="2" />
<text x="320" y="534" font-family ="ARIAL" font-size ="17pt" font-weight="normal" font-style="normal" fill="rgb(0,0,0)" transform=" rotate(00) scale(10,10)">${iOut}</text>
<polyline points="280,375 280,405" fill="none" stroke="rgb(0,0,0)" stroke-width="2" />
<circle cx="280" cy="450" r="45" fill="rgb(255,255,255)" stroke="rgb(0,0,0)" stroke-width="2" />
<polyline points="280,495 280,525" fill="none" stroke="rgb(0,0,0)" stroke-width="2" />
<text x="240" y="454" font-family ="ARIAL" font-size ="17pt" font-weight="normal" font-style="normal" fill="rgb(0,0,0)" transform=" rotate(00) scale(10,10)">${uOut}</text>
<polyline points="160,595 160,565 140,565 180,565" fill="none" stroke="rgb(0,0,0)" stroke-width="2" />
<polyline points="140,555 180,555 160,555 160,525" fill="none" stroke="rgb(0,0,0)" stroke-width="2" />
<polyline points="170,575 180,575" fill="none" stroke="rgb(0,0,0)" stroke-width="2" />
<polyline points="175,580 175,570" fill="none" stroke="rgb(0,0,0)" stroke-width="2" />
<text x="190" y="564" font-family ="Arial" font-size ="17pt" font-weight="normal" font-style="italic" fill="rgb(0,0,0)" transform=" rotate(00) scale(10,10)">C1</text>
<text x="180" y="594" font-family ="Arial" font-size ="17pt" font-weight="normal" font-style="italic" fill="rgb(0,0,0)" transform=" rotate(00) scale(10,10)">${capacitance}</text>
<polyline points="370,85 370,115 350,115 390,115" fill="none" stroke="rgb(0,0,0)" stroke-width="2" />
<polyline points="350,125 390,125 370,125 370,155" fill="none" stroke="rgb(0,0,0)" stroke-width="2" />
<polyline points="380,105 390,105" fill="none" stroke="rgb(0,0,0)" stroke-width="2" />
<polyline points="385,100 385,110" fill="none" stroke="rgb(0,0,0)" stroke-width="2" />
<text x="395" y="109" font-family ="Arial" font-size ="17pt" font-weight="normal" font-style="italic" fill="rgb(0,0,0)" transform=" rotate(00) scale(10,10)">C2</text>
<polyline points="100,255 100,285" fill="none" stroke="rgb(0,0,0)" stroke-width="2" />
<polyline points="80,285 120,285" fill="none" stroke="rgb(0,0,0)" stroke-width="4" />
<circle cx="100" cy="85" r="6" fill="rgb(0,0,0)" stroke="none" stroke-width="2" />
<circle cx="100" cy="255" r="6" fill="rgb(0,0,0)" stroke="none" stroke-width="2" />
<polyline points="100,255 40,255" fill="none" stroke="rgb(0,0,0)" stroke-width="2" />
<polyline points="100,85 40,85" fill="none" stroke="rgb(0,0,0)" stroke-width="2" />
<polyline points="130,85 100,85 100,105" fill="none" stroke="rgb(0,0,0)" stroke-width="2" />
<circle cx="280" cy="85" r="6" fill="rgb(0,0,0)" stroke="none" stroke-width="2" />
<polyline points="370,155 370,185" fill="none" stroke="rgb(0,0,0)" stroke-width="2" />
<polyline points="350,185 390,185" fill="none" stroke="rgb(0,0,0)" stroke-width="4" />
<polyline points="370,85 280,85" fill="none" stroke="rgb(0,0,0)" stroke-width="2" />
<polyline points="370,255 370,215 390,215 390,255 410,255 410,215 430,215 430,255 450,255" fill="none" stroke="rgb(0,0,0)" stroke-width="2" />
<text x="380" y="309" font-family ="Arial" font-size ="21pt" font-weight="normal" font-style="normal" fill="rgb(0,0,0)" transform=" rotate(00) scale(10,10)">${freq}</text>
<polyline points="280,375 250,375" fill="none" stroke="rgb(0,0,0)" stroke-width="2" />
<polyline points="250,395 250,355" fill="none" stroke="rgb(0,0,0)" stroke-width="4" />
<circle cx="280" cy="375" r="6" fill="rgb(0,0,0)" stroke="none" stroke-width="2" />
<circle cx="160" cy="525" r="6" fill="rgb(0,0,0)" stroke="none" stroke-width="2" />
<polyline points="160,595 160,625" fill="none" stroke="rgb(0,0,0)" stroke-width="2" />
<polyline points="140,625 180,625" fill="none" stroke="rgb(0,0,0)" stroke-width="4" />
<polyline points="280,525 160,525" fill="none" stroke="rgb(0,0,0)" stroke-width="2" />
<polyline points="280,275 160,275 160,285" fill="none" stroke="rgb(0,0,0)" stroke-width="2" />
<circle cx="280" cy="275" r="6" fill="rgb(0,0,0)" stroke="none" stroke-width="2" />
<circle cx="280" cy="525" r="6" fill="rgb(0,0,0)" stroke="none" stroke-width="2" />
<polyline points="430,595 400,595" fill="none" stroke="rgb(0,0,0)" stroke-width="2" />
<polyline points="400,595 400,625" fill="none" stroke="rgb(0,0,0)" stroke-width="2" />
<polyline points="380,625 420,625" fill="none" stroke="rgb(0,0,0)" stroke-width="4" />
</svg>
