<?xml version="1.0" encoding="utf-8"?>
<!-- Created with "sPlan" (http://www.abacom-online.de) -->
<svg version="1.1" xmlns="http://www.w3.org/2000/svg" width="650" height="645">
<title>schema2</title>
<defs>
<style type="text/css">
<![CDATA[
polyline {stroke-linecap:round; stroke-linejoin:round}
polygon {stroke-linecap:round; stroke-linejoin:round}
path {stroke-linecap:round; stroke-linejoin:round}
circle {stroke-linecap:round; stroke-linejoin:round}
]]>
</style>
</defs>
<polyline points="90,85 120,85" fill="none" stroke="rgb(0,0,0)" stroke-width="2" />
<circle cx="165" cy="85" r="45" fill="rgb(255,255,255)" stroke="rgb(0,0,0)" stroke-width="2" />
<polyline points="210,85 240,85" fill="none" stroke="rgb(0,0,0)" stroke-width="2" />
<text x="130" y="94" font-family ="ARIAL" font-size ="17pt" font-weight="normal" font-style="normal" fill="rgb(0,0,0)" transform=" rotate(00) scale(10,10)">${iInMid}</text>
<polyline points="90,225 90,255" fill="none" stroke="rgb(0,0,0)" stroke-width="2" />
<circle cx="90" cy="300" r="45" fill="rgb(255,255,255)" stroke="rgb(0,0,0)" stroke-width="2" />
<polyline points="90,345 90,375" fill="none" stroke="rgb(0,0,0)" stroke-width="2" />
<text x="60" y="304" font-family ="ARIAL" font-size ="17pt" font-weight="normal" font-style="normal" fill="rgb(0,0,0)" transform=" rotate(00) scale(10,10)">${uIn}</text>
<polyline points="310,275 260,275" fill="none" stroke="rgb(0,0,0)" stroke-width="2" />
<polygon points="285,250 285,260 270,255" fill="rgb(0,0,0)" stroke="rgb(0,0,0)" stroke-width="1" />
<polyline points="260,235 310,235" fill="none" stroke="rgb(0,0,0)" stroke-width="2" />
<polyline points="210,275 250,275 250,235" fill="none" stroke="rgb(0,0,0)" stroke-width="2" />
<polyline points="260,255 300,255" fill="none" stroke="rgb(0,0,0)" stroke-width="2" />
<path fill="rgb(0,0,0)" stroke="rgb(0,0,0)" stroke-width="1" style="stroke-linecap:square; stroke-linejoin:miter" d="M 255 227 L 260 227 260 242 255 242 255 227" />
<path fill="rgb(0,0,0)" stroke="rgb(0,0,0)" stroke-width="1" style="stroke-linecap:square; stroke-linejoin:miter" d="M 255 247 L 260 247 260 262 255 262 255 247" />
<path fill="rgb(0,0,0)" stroke="rgb(0,0,0)" stroke-width="1" style="stroke-linecap:square; stroke-linejoin:miter" d="M 255 267 L 260 267 260 282 255 282 255 267" />
<text x="240" y="214" font-family ="ARIAL" font-size ="17pt" font-weight="normal" font-style="normal" fill="rgb(0,0,0)" transform=" rotate(00) scale(10,10)">T1</text>
<text x="240" y="309" font-family ="ARIAL" font-size ="17pt" font-weight="normal" font-style="normal" fill="rgb(0,0,0)" transform=" rotate(00) scale(10,10)"></text>
<polyline points="310,85 310,95" fill="none" stroke="rgb(0,0,0)" stroke-width="2" />
<polyline points="310,175 310,185" fill="none" stroke="rgb(0,0,0)" stroke-width="2" />
<path fill="none" stroke="rgb(0,0,0)" stroke-width="2" d="M 310 115 Q 310 115 310.98 114.90 Q 311.95 114.81 312.89 114.52 Q 313.83 114.24 314.69 113.78 Q 315.56 113.31 316.31 112.69 Q 3177 1127 317.69 111.31 Q 318.31 110.56 318.78 109.69 Q 319.24 108.83 319.52 107.89 Q 319.81 106.95 319.90 105.98 Q 320 105 319.90 1042 Q 319.81 1035 319.52 102.11 Q 319.24 101.17 318.78 100.31 Q 318.31 99.44 317.69 98.69 Q 3177 97.93 316.31 97.31 Q 315.56 96.69 314.69 96.22 Q 313.83 95.76 312.89 95.48 Q 311.95 95.19 310.98 95.10 Q 310 95 310 95 L 310 95" />
<path fill="none" stroke="rgb(0,0,0)" stroke-width="2" d="M 310 135 Q 310 135 310.98 134.90 Q 311.95 134.81 312.89 134.52 Q 313.83 134.24 314.69 133.78 Q 315.56 133.31 316.31 132.69 Q 3177 1327 317.69 131.31 Q 318.31 130.56 318.78 129.69 Q 319.24 128.83 319.52 127.89 Q 319.81 126.95 319.90 125.98 Q 320 125 319.90 1242 Q 319.81 1235 319.52 122.11 Q 319.24 121.17 318.78 120.31 Q 318.31 119.44 317.69 118.69 Q 3177 117.93 316.31 117.31 Q 315.56 116.69 314.69 116.22 Q 313.83 115.76 312.89 115.48 Q 311.95 115.19 310.98 115.10 Q 310 115 310 115 L 310 115" />
<path fill="none" stroke="rgb(0,0,0)" stroke-width="2" d="M 310 155 Q 310 155 310.98 154.90 Q 311.95 154.81 312.89 154.52 Q 313.83 154.24 314.69 153.78 Q 315.56 153.31 316.31 152.69 Q 3177 1527 317.69 151.31 Q 318.31 150.56 318.78 149.69 Q 319.24 148.83 319.52 147.89 Q 319.81 146.95 319.90 145.98 Q 320 145 319.90 1442 Q 319.81 1435 319.52 142.11 Q 319.24 141.17 318.78 140.31 Q 318.31 139.44 317.69 138.69 Q 3177 137.93 316.31 137.31 Q 315.56 136.69 314.69 136.22 Q 313.83 135.76 312.89 135.48 Q 311.95 135.19 310.98 135.10 Q 310 135 310 135 L 310 135" />
<path fill="none" stroke="rgb(0,0,0)" stroke-width="2" d="M 310 175 Q 310 175 310.98 174.90 Q 311.95 174.81 312.89 174.52 Q 313.83 174.24 314.69 173.78 Q 315.56 173.31 316.31 172.69 Q 3177 1727 317.69 171.31 Q 318.31 170.56 318.78 169.69 Q 319.24 168.83 319.52 167.89 Q 319.81 166.95 319.90 165.98 Q 320 165 319.90 1642 Q 319.81 1635 319.52 162.11 Q 319.24 161.17 318.78 160.31 Q 318.31 159.44 317.69 158.69 Q 3177 157.93 316.31 157.31 Q 315.56 156.69 314.69 156.22 Q 313.83 155.76 312.89 155.48 Q 311.95 155.19 310.98 155.10 Q 310 155 310 155 L 310 155" />
<polyline points="325,95 325,175" fill="none" stroke="rgb(0,0,0)" stroke-width="2" />
<text x="330" y="114" font-family ="Arial" font-size ="17pt" font-weight="normal" font-style="italic" fill="rgb(0,0,0)" transform=" rotate(00) scale(10,10)">L1</text>
<text x="330" y="134" font-family ="Arial" font-size ="17pt" font-weight="normal" font-style="italic" fill="rgb(0,0,0)" transform=" rotate(00) scale(10,10)">${inductance}</text>
<polyline points="310,275 310,305" fill="none" stroke="rgb(0,0,0)" stroke-width="2" />
<circle cx="310" cy="350" r="45" fill="rgb(255,255,255)" stroke="rgb(0,0,0)" stroke-width="2" />
<polyline points="310,395 310,425" fill="none" stroke="rgb(0,0,0)" stroke-width="2" />
<text x="280" y="354" font-family ="ARIAL" font-size ="17pt" font-weight="normal" font-style="normal" fill="rgb(0,0,0)" transform=" rotate(00) scale(10,10)">${iInPeak}</text>
<polyline points="240,85 240,115 220,115 260,115" fill="none" stroke="rgb(0,0,0)" stroke-width="2" />
<polyline points="220,125 260,125 240,125 240,155" fill="none" stroke="rgb(0,0,0)" stroke-width="2" />
<polyline points="250,105 260,105" fill="none" stroke="rgb(0,0,0)" stroke-width="2" />
<polyline points="255,100 255,110" fill="none" stroke="rgb(0,0,0)" stroke-width="2" />
<text x="265" y="109" font-family ="Arial" font-size ="17pt" font-weight="normal" font-style="italic" fill="rgb(0,0,0)" transform=" rotate(00) scale(10,10)">C1</text>
<circle cx="310" cy="185" r="6" fill="rgb(0,0,0)" stroke="none" stroke-width="2" />
<polyline points="460,425 460,455" fill="none" stroke="rgb(0,0,0)" stroke-width="2" />
<circle cx="460" cy="500" r="45" fill="rgb(255,255,255)" stroke="rgb(0,0,0)" stroke-width="2" />
<polyline points="460,545 460,575" fill="none" stroke="rgb(0,0,0)" stroke-width="2" />
<text x="430" y="504" font-family ="ARIAL" font-size ="17pt" font-weight="normal" font-style="normal" fill="rgb(0,0,0)" transform=" rotate(00) scale(10,10)">${uOut}</text>
<polyline points="460,425 490,425" fill="none" stroke="rgb(0,0,0)" stroke-width="2" />
<circle cx="535" cy="425" r="45" fill="rgb(255,255,255)" stroke="rgb(0,0,0)" stroke-width="2" />
<polyline points="580,425 610,425" fill="none" stroke="rgb(0,0,0)" stroke-width="2" />
<text x="500" y="434" font-family ="ARIAL" font-size ="17pt" font-weight="normal" font-style="normal" fill="rgb(0,0,0)" transform=" rotate(00) scale(10,10)">${iOut}</text>
<polygon points="460,395 440,365 480,365" fill="rgb(255,255,255)" stroke="rgb(0,0,0)" stroke-width="2" />
<polyline points="460,425 460,335" fill="none" stroke="rgb(0,0,0)" stroke-width="2" />
<polyline points="480,395 440,395" fill="none" stroke="rgb(0,0,0)" stroke-width="2" />
<text x="398.72" y="344" font-family ="Arial" font-size ="17pt" font-weight="normal" font-style="italic" fill="rgb(0,0,0)" transform=" rotate(00) scale(10,10)">VD1</text>
<text x="429" y="380" font-family ="Arial" font-size ="17pt" font-weight="normal" font-style="italic" fill="rgb(0,0,0)" transform=" rotate(00) scale(10,10)"></text>
<polyline points="460,185 460,215" fill="none" stroke="rgb(0,0,0)" stroke-width="2" />
<circle cx="460" cy="260" r="45" fill="rgb(255,255,255)" stroke="rgb(0,0,0)" stroke-width="2" />
<polyline points="460,305 460,335" fill="none" stroke="rgb(0,0,0)" stroke-width="2" />
<text x="430" y="264" font-family ="ARIAL" font-size ="17pt" font-weight="normal" font-style="normal" fill="rgb(0,0,0)" transform=" rotate(00) scale(10,10)">${iDiodePeak}</text>
<polyline points="160,335 160,295 180,295 180,335 200,335 200,295 220,295 220,335 240,335" fill="none" stroke="rgb(0,0,0)" stroke-width="2" />
<polyline points="310,425 310,455" fill="none" stroke="rgb(0,0,0)" stroke-width="2" />
<polyline points="290,455 330,455" fill="none" stroke="rgb(0,0,0)" stroke-width="4" />
<polyline points="240,155 240,185" fill="none" stroke="rgb(0,0,0)" stroke-width="2" />
<polyline points="220,185 260,185" fill="none" stroke="rgb(0,0,0)" stroke-width="4" />
<polyline points="240,85 310,85" fill="none" stroke="rgb(0,0,0)" stroke-width="2" />
<polyline points="40,85 90,85 90,225" fill="none" stroke="rgb(0,0,0)" stroke-width="2" />
<polyline points="90,375 90,425 310,425" fill="none" stroke="rgb(0,0,0)" stroke-width="2" />
<polyline points="460,185 310,185 310,235" fill="none" stroke="rgb(0,0,0)" stroke-width="2" />
<circle cx="240" cy="85" r="6" fill="rgb(0,0,0)" stroke="none" stroke-width="2" />
<circle cx="460" cy="425" r="6" fill="rgb(0,0,0)" stroke="none" stroke-width="2" />
<polyline points="460,575 460,605" fill="none" stroke="rgb(0,0,0)" stroke-width="2" />
<polyline points="440,605 480,605" fill="none" stroke="rgb(0,0,0)" stroke-width="4" />
<polyline points="380,425 350,425 350,405 350,445" fill="none" stroke="rgb(0,0,0)" stroke-width="2" />
<polyline points="360,410 370,410" fill="none" stroke="rgb(0,0,0)" stroke-width="2" />
<polyline points="365,405 365,415" fill="none" stroke="rgb(0,0,0)" stroke-width="2" />
<polyline points="310,425 340,425 340,405 340,445" fill="none" stroke="rgb(0,0,0)" stroke-width="2" />
<text x="332.40" y="474" font-family ="Arial" font-size ="17pt" font-weight="normal" font-style="italic" fill="rgb(0,0,0)" transform=" rotate(00) scale(10,10)">C2</text>
<text x="2708" y="494" font-family ="Arial" font-size ="17pt" font-weight="normal" font-style="italic" fill="rgb(0,0,0)" transform=" rotate(00) scale(10,10)">${capacitance}</text>
<circle cx="310" cy="425" r="6" fill="rgb(0,0,0)" stroke="none" stroke-width="2" />
<polyline points="460,425 380,425" fill="none" stroke="rgb(0,0,0)" stroke-width="2" />
<text x="150" y="369" font-family ="Arial" font-size ="21pt" font-weight="normal" font-style="normal" fill="rgb(0,0,0)" transform=" rotate(00) scale(10,10)">${freq}</text>
<circle cx="90" cy="85" r="6" fill="rgb(0,0,0)" stroke="none" stroke-width="2" />
<polyline points="610,505 560,505 560,575 460,575" fill="none" stroke="rgb(0,0,0)" stroke-width="2" />
<circle cx="460" cy="575" r="6" fill="rgb(0,0,0)" stroke="none" stroke-width="2" />
</svg>
