<?xml version="1.0" encoding="utf-8"?>
<!-- Created with "sPlan" (http://www.abacom-online.de) -->
<svg version="1.1" baseProfile="full"
xmlns="http://www.w3.org/2000/svg"
width="580" height="470">
<title>coil</title>
<defs>
<style type="text/css">
<![CDATA[
polyline {stroke-linecap:round; stroke-linejoin:round}
polygon {stroke-linecap:round; stroke-linejoin:round}
path {stroke-linecap:round; stroke-linejoin:round}
circle {stroke-linecap:round; stroke-linejoin:round}
]]>
</style>
</defs>
<polyline points="230.00 420.00 230.00 250.00" fill="none" stroke="rgb(0,0,0)" stroke-width="2" />
<path fill="none" stroke="rgb(0,0,0)" stroke-width="2" d=" M 230.00 420.00 Q 230.00 420.00 230.10 420.98 Q 230.19 421.95 230.48 422.89 Q 230.76 423.83 231.22 424.69 Q 231.69 425.56 232.31 426.31 Q 232.93 427.07 233.69 427.69 Q 234.44 428.31 235.31 428.78 Q 236.17 429.24 237.11 429.52 Q 238.05 429.81 239.02 429.90 Q 240.00 430.00 240.98 429.90 Q 241.95 429.81 242.89 429.52 Q 243.83 429.24 244.69 428.78 Q 245.56 428.31 246.31 427.69 Q 247.07 427.07 247.69 426.31 Q 248.31 425.56 248.78 424.69 Q 249.24 423.83 249.52 422.89 Q 249.81 421.95 249.90 420.98 Q 250.00 420.00 250.00 420.00 L 250.00 420.00" />
<polyline points="250.00 420.00 250.00 250.00" fill="none" stroke="rgb(0,0,0)" stroke-width="2" />
<polyline points="250.00 250.00 270.00 120.00" fill="none" stroke="rgb(0,0,0)" stroke-width="2" />
<polyline points="230.00 250.00 250.00 120.00" fill="none" stroke="rgb(0,0,0)" stroke-width="2" />
<path fill="none" stroke="rgb(0,0,0)" stroke-width="2" d=" M 270.00 120.00 Q 270.00 120.00 269.90 119.02 Q 269.81 118.05 269.52 117.11 Q 269.24 116.17 268.78 115.31 Q 268.31 114.44 267.69 113.69 Q 267.07 112.93 266.31 112.31 Q 265.56 111.69 264.69 111.22 Q 263.83 110.76 262.89 110.48 Q 261.95 110.19 260.98 110.10 Q 260.00 110.00 259.02 110.10 Q 258.05 110.19 257.11 110.48 Q 256.17 110.76 255.31 111.22 Q 254.44 111.69 253.69 112.31 Q 252.93 112.93 252.31 113.69 Q 251.69 114.44 251.22 115.31 Q 250.76 116.17 250.48 117.11 Q 250.19 118.05 250.10 119.02 Q 250.00 120.00 250.00 120.00 L 250.00 120.00" />
<polyline points="270.00 250.00 260.00 180.00" fill="none" stroke="rgb(0,0,0)" stroke-width="2" />
<polyline points="280.00 180.00 270.00 120.00" fill="none" stroke="rgb(0,0,0)" stroke-width="2" />
<path fill="none" stroke="rgb(0,0,0)" stroke-width="2" d=" M 270.00 250.00 Q 270.00 250.00 270.10 250.98 Q 270.19 251.95 270.48 252.89 Q 270.76 253.83 271.22 254.69 Q 271.69 255.56 272.31 256.31 Q 272.93 257.07 273.69 257.69 Q 274.44 258.31 275.31 258.78 Q 276.17 259.24 277.11 259.52 Q 278.05 259.81 279.02 259.90 Q 280.00 260.00 280.98 259.90 Q 281.95 259.81 282.89 259.52 Q 283.83 259.24 284.69 258.78 Q 285.56 258.31 286.31 257.69 Q 287.07 257.07 287.69 256.31 Q 288.31 255.56 288.78 254.69 Q 289.24 253.83 289.52 252.89 Q 289.81 251.95 289.90 250.98 Q 290.00 250.00 290.00 250.00 L 290.00 250.00" />
<polyline points="290.00 250.00 310.00 120.00" fill="none" stroke="rgb(0,0,0)" stroke-width="2" />
<polyline points="270.00 250.00 290.00 120.00" fill="none" stroke="rgb(0,0,0)" stroke-width="2" />
<path fill="none" stroke="rgb(0,0,0)" stroke-width="2" d=" M 310.00 120.00 Q 310.00 120.00 309.90 119.02 Q 309.81 118.05 309.52 117.11 Q 309.24 116.17 308.78 115.31 Q 308.31 114.44 307.69 113.69 Q 307.07 112.93 306.31 112.31 Q 305.56 111.69 304.69 111.22 Q 303.83 110.76 302.89 110.48 Q 301.95 110.19 300.98 110.10 Q 300.00 110.00 299.02 110.10 Q 298.05 110.19 297.11 110.48 Q 296.17 110.76 295.31 111.22 Q 294.44 111.69 293.69 112.31 Q 292.93 112.93 292.31 113.69 Q 291.69 114.44 291.22 115.31 Q 290.76 116.17 290.48 117.11 Q 290.19 118.05 290.10 119.02 Q 290.00 120.00 290.00 120.00 L 290.00 120.00" />
<polyline points="310.00 250.00 300.00 180.00" fill="none" stroke="rgb(0,0,0)" stroke-width="2" />
<polyline points="320.00 190.00 310.00 120.00" fill="none" stroke="rgb(0,0,0)" stroke-width="2" />
<path fill="none" stroke="rgb(0,0,0)" stroke-width="2" d=" M 310.00 250.00 Q 310.00 250.00 310.10 250.98 Q 310.19 251.95 310.48 252.89 Q 310.76 253.83 311.22 254.69 Q 311.69 255.56 312.31 256.31 Q 312.93 257.07 313.69 257.69 Q 314.44 258.31 315.31 258.78 Q 316.17 259.24 317.11 259.52 Q 318.05 259.81 319.02 259.90 Q 320.00 260.00 320.98 259.90 Q 321.95 259.81 322.89 259.52 Q 323.83 259.24 324.69 258.78 Q 325.56 258.31 326.31 257.69 Q 327.07 257.07 327.69 256.31 Q 328.31 255.56 328.78 254.69 Q 329.24 253.83 329.52 252.89 Q 329.81 251.95 329.90 250.98 Q 330.00 250.00 330.00 250.00 L 330.00 250.00" />
<polyline points="330.00 250.00 350.00 120.00" fill="none" stroke="rgb(0,0,0)" stroke-width="2" />
<polyline points="310.00 250.00 330.00 120.00" fill="none" stroke="rgb(0,0,0)" stroke-width="2" />
<path fill="none" stroke="rgb(0,0,0)" stroke-width="2" d=" M 350.00 120.00 Q 350.00 120.00 349.90 119.02 Q 349.81 118.05 349.52 117.11 Q 349.24 116.17 348.78 115.31 Q 348.31 114.44 347.69 113.69 Q 347.07 112.93 346.31 112.31 Q 345.56 111.69 344.69 111.22 Q 343.83 110.76 342.89 110.48 Q 341.95 110.19 340.98 110.10 Q 340.00 110.00 339.02 110.10 Q 338.05 110.19 337.11 110.48 Q 336.17 110.76 335.31 111.22 Q 334.44 111.69 333.69 112.31 Q 332.93 112.93 332.31 113.69 Q 331.69 114.44 331.22 115.31 Q 330.76 116.17 330.48 117.11 Q 330.19 118.05 330.10 119.02 Q 330.00 120.00 330.00 120.00 L 330.00 120.00" />
<polyline points="350.00 250.00 340.00 190.00" fill="none" stroke="rgb(0,0,0)" stroke-width="2" />
<polyline points="360.00 190.00 350.00 120.00" fill="none" stroke="rgb(0,0,0)" stroke-width="2" />
<path fill="none" stroke="rgb(0,0,0)" stroke-width="2" d=" M 350.00 250.00 Q 350.00 250.00 350.10 250.98 Q 350.19 251.95 350.48 252.89 Q 350.76 253.83 351.22 254.69 Q 351.69 255.56 352.31 256.31 Q 352.93 257.07 353.69 257.69 Q 354.44 258.31 355.31 258.78 Q 356.17 259.24 357.11 259.52 Q 358.05 259.81 359.02 259.90 Q 360.00 260.00 360.98 259.90 Q 361.95 259.81 362.89 259.52 Q 363.83 259.24 364.69 258.78 Q 365.56 258.31 366.31 257.69 Q 367.07 257.07 367.69 256.31 Q 368.31 255.56 368.78 254.69 Q 369.24 253.83 369.52 252.89 Q 369.81 251.95 369.90 250.98 Q 370.00 250.00 370.00 250.00 L 370.00 250.00" />
<polyline points="370.00 250.00 390.00 120.00" fill="none" stroke="rgb(0,0,0)" stroke-width="2" />
<polyline points="350.00 250.00 370.00 120.00" fill="none" stroke="rgb(0,0,0)" stroke-width="2" />
<path fill="none" stroke="rgb(0,0,0)" stroke-width="2" d=" M 390.00 120.00 Q 390.00 120.00 389.90 119.02 Q 389.81 118.05 389.52 117.11 Q 389.24 116.17 388.78 115.31 Q 388.31 114.44 387.69 113.69 Q 387.07 112.93 386.31 112.31 Q 385.56 111.69 384.69 111.22 Q 383.83 110.76 382.89 110.48 Q 381.95 110.19 380.98 110.10 Q 380.00 110.00 379.02 110.10 Q 378.05 110.19 377.11 110.48 Q 376.17 110.76 375.31 111.22 Q 374.44 111.69 373.69 112.31 Q 372.93 112.93 372.31 113.69 Q 371.69 114.44 371.22 115.31 Q 370.76 116.17 370.48 117.11 Q 370.19 118.05 370.10 119.02 Q 370.00 120.00 370.00 120.00 L 370.00 120.00" />
<polyline points="390.00 250.00 380.00 190.00" fill="none" stroke="rgb(0,0,0)" stroke-width="2" />
<polyline points="410.00 250.00 390.00 120.00" fill="none" stroke="rgb(0,0,0)" stroke-width="2" />
<polyline points="390.00 420.00 390.00 250.00" fill="none" stroke="rgb(0,0,0)" stroke-width="2" />
<path fill="none" stroke="rgb(0,0,0)" stroke-width="2" d=" M 390.00 420.00 Q 390.00 420.00 390.10 420.98 Q 390.19 421.95 390.48 422.89 Q 390.76 423.83 391.22 424.69 Q 391.69 425.56 392.31 426.31 Q 392.93 427.07 393.69 427.69 Q 394.44 428.31 395.31 428.78 Q 396.17 429.24 397.11 429.52 Q 398.05 429.81 399.02 429.90 Q 400.00 430.00 400.98 429.90 Q 401.95 429.81 402.89 429.52 Q 403.83 429.24 404.69 428.78 Q 405.56 428.31 406.31 427.69 Q 407.07 427.07 407.69 426.31 Q 408.31 425.56 408.78 424.69 Q 409.24 423.83 409.52 422.89 Q 409.81 421.95 409.90 420.98 Q 410.00 420.00 410.00 420.00 L 410.00 420.00" />
<polyline points="410.00 420.00 410.00 250.00" fill="none" stroke="rgb(0,0,0)" stroke-width="2" />
<polyline points="390.00 130.00 480.00 130.00" fill="none" stroke="rgb(0,0,0)" stroke-width="1" />
<polyline points="370.00 240.00 480.00 240.00" fill="none" stroke="rgb(0,0,0)" stroke-width="1" />
<polyline points="230.00 250.00 230.00 60.00" fill="none" stroke="rgb(0,0,0)" stroke-width="1" />
<polyline points="410.00 250.00 410.00 60.00" fill="none" stroke="rgb(0,0,0)" stroke-width="1" />
<polyline points="360.00 370.00 390.00 370.00" fill="none" stroke="rgb(0,0,0)" stroke-width="1" />
<polygon points="376.40 373.60 390.00 370.00 376.40 366.40" fill="rgb(0,0,0)" stroke="rgb(0,0,0)" stroke-width="1" />
<polyline points="410.00 370.00 540.00 370.00" fill="none" stroke="rgb(0,0,0)" stroke-width="1" />
<polygon points="423.60 366.40 410.00 370.00 423.60 373.60" fill="rgb(0,0,0)" stroke="rgb(0,0,0)" stroke-width="1" />
<polyline points="230.00 90.00 410.00 90.00" fill="none" stroke="rgb(0,0,0)" stroke-width="1" />
<polygon points="243.60 86.40 230.00 90.00 243.60 93.60" fill="rgb(0,0,0)" stroke="rgb(0,0,0)" stroke-width="1" />
<polygon points="396.40 93.60 410.00 90.00 396.40 86.40" fill="rgb(0,0,0)" stroke="rgb(0,0,0)" stroke-width="1" />
<polyline points="450.00 130.00 450.00 240.00" fill="none" stroke="rgb(0,0,0)" stroke-width="1" />
<polygon points="453.60 143.60 450.00 130.00 446.40 143.60" fill="rgb(0,0,0)" stroke="rgb(0,0,0)" stroke-width="1" />
<polygon points="446.40 226.40 450.00 240.00 453.60 226.40" fill="rgb(0,0,0)" stroke="rgb(0,0,0)" stroke-width="1" />
<text x="290.00" y="72.00" font-family ="Arial" font-size ="28pt" font-weight="normal" font-style="normal" fill="rgb(0,0,0)" transform=" rotate(0.000) scale(1.000,1.000)">${coilsLength}</text>
<text x="460.00" y="192.00" font-family ="Arial" font-size ="28pt" font-weight="normal" font-style="normal" fill="rgb(0,0,0)" transform=" rotate(0.000) scale(1.000,1.000)">${coilsDiameter}</text>
<text x="460.00" y="362.00" font-family ="Arial" font-size ="28pt" font-weight="normal" font-style="normal" fill="rgb(0,0,0)" transform=" rotate(0.000) scale(1.000,1.000)">${wireDiameter}</text>
<polyline points="170.00 110.00 170.00 150.00" fill="none" stroke="rgb(0,0,0)" stroke-width="2" />
<polyline points="170.00 230.00 170.00 270.00" fill="none" stroke="rgb(0,0,0)" stroke-width="2" />
<path fill="none" stroke="rgb(0,0,0)" stroke-width="2" d=" M 170.00 150.00 Q 170.00 150.00 169.02 150.10 Q 168.05 150.19 167.11 150.48 Q 166.17 150.76 165.31 151.22 Q 164.44 151.69 163.69 152.31 Q 162.93 152.93 162.31 153.69 Q 161.69 154.44 161.22 155.31 Q 160.76 156.17 160.48 157.11 Q 160.19 158.05 160.10 159.02 Q 160.00 160.00 160.10 160.98 Q 160.19 161.95 160.48 162.89 Q 160.76 163.83 161.22 164.69 Q 161.69 165.56 162.31 166.31 Q 162.93 167.07 163.69 167.69 Q 164.44 168.31 165.31 168.78 Q 166.17 169.24 167.11 169.52 Q 168.05 169.81 169.02 169.90 Q 170.00 170.00 170.00 170.00 L 170.00 170.00" />
<path fill="none" stroke="rgb(0,0,0)" stroke-width="2" d=" M 170.00 170.00 Q 170.00 170.00 169.02 170.10 Q 168.05 170.19 167.11 170.48 Q 166.17 170.76 165.31 171.22 Q 164.44 171.69 163.69 172.31 Q 162.93 172.93 162.31 173.69 Q 161.69 174.44 161.22 175.31 Q 160.76 176.17 160.48 177.11 Q 160.19 178.05 160.10 179.02 Q 160.00 180.00 160.10 180.98 Q 160.19 181.95 160.48 182.89 Q 160.76 183.83 161.22 184.69 Q 161.69 185.56 162.31 186.31 Q 162.93 187.07 163.69 187.69 Q 164.44 188.31 165.31 188.78 Q 166.17 189.24 167.11 189.52 Q 168.05 189.81 169.02 189.90 Q 170.00 190.00 170.00 190.00 L 170.00 190.00" />
<path fill="none" stroke="rgb(0,0,0)" stroke-width="2" d=" M 170.00 190.00 Q 170.00 190.00 169.02 190.10 Q 168.05 190.19 167.11 190.48 Q 166.17 190.76 165.31 191.22 Q 164.44 191.69 163.69 192.31 Q 162.93 192.93 162.31 193.69 Q 161.69 194.44 161.22 195.31 Q 160.76 196.17 160.48 197.11 Q 160.19 198.05 160.10 199.02 Q 160.00 200.00 160.10 200.98 Q 160.19 201.95 160.48 202.89 Q 160.76 203.83 161.22 204.69 Q 161.69 205.56 162.31 206.31 Q 162.93 207.07 163.69 207.69 Q 164.44 208.31 165.31 208.78 Q 166.17 209.24 167.11 209.52 Q 168.05 209.81 169.02 209.90 Q 170.00 210.00 170.00 210.00 L 170.00 210.00" />
<path fill="none" stroke="rgb(0,0,0)" stroke-width="2" d=" M 170.00 210.00 Q 170.00 210.00 169.02 210.10 Q 168.05 210.19 167.11 210.48 Q 166.17 210.76 165.31 211.22 Q 164.44 211.69 163.69 212.31 Q 162.93 212.93 162.31 213.69 Q 161.69 214.44 161.22 215.31 Q 160.76 216.17 160.48 217.11 Q 160.19 218.05 160.10 219.02 Q 160.00 220.00 160.10 220.98 Q 160.19 221.95 160.48 222.89 Q 160.76 223.83 161.22 224.69 Q 161.69 225.56 162.31 226.31 Q 162.93 227.07 163.69 227.69 Q 164.44 228.31 165.31 228.78 Q 166.17 229.24 167.11 229.52 Q 168.05 229.81 169.02 229.90 Q 170.00 230.00 170.00 230.00 L 170.00 230.00" />
<text x="43.34" y="197.00" font-family ="ARIAL" font-size ="28pt" font-weight="normal" font-style="normal" fill="rgb(0,0,0)" transform=" rotate(0.000) scale(1.000,1.000)">${coilsInductance}</text>
<text x="40.00" y="402.00" font-family ="Arial" font-size ="28pt" font-weight="normal" font-style="normal" fill="rgb(0,0,0)" transform=" rotate(0.000) scale(1.000,1.000)">${coilsNumberOfCoils}</text>
<polyline points="80.00 370.00 310.00 270.00" fill="none" stroke="rgb(0,0,0)" stroke-width="2" />
<polygon points="293.44 283.09 310.00 270.00 289.14 273.18" fill="rgb(0,0,0)" stroke="rgb(0,0,0)" stroke-width="2" />
</svg>
