<?xml version="1.0" encoding="utf-8"?>
<!-- Created with "sPlan" (http://www.abacom-online.de) -->
<svg version="1.1" baseProfile="full"
xmlns="http://www.w3.org/2000/svg"
width="720" height="585">
<title>schema1</title>
<defs>
<style type="text/css">
<![CDATA[
polyline {stroke-linecap:round; stroke-linejoin:round}
polygon {stroke-linecap:round; stroke-linejoin:round}
path {stroke-linecap:round; stroke-linejoin:round}
circle {stroke-linecap:round; stroke-linejoin:round}
]]>
</style>
</defs>
<polyline points="130.00 85.00 160.00 85.00" fill="none" stroke="rgb(0,0,0)" stroke-width="2" />
<circle cx="205.00" cy="85.00" r="45.00" fill="rgb(255,255,255)" stroke="rgb(0,0,0)" stroke-width="2" />
<polyline points="250.00 85.00 280.00 85.00" fill="none" stroke="rgb(0,0,0)" stroke-width="2" />
<text x="170.00" y="94.00" font-family ="ARIAL" font-size ="17pt" font-weight="normal" font-style="normal" fill="rgb(0,0,0)" transform=" rotate(0.000) scale(1.000,1.000)">${iInMid}</text>
<polyline points="90.00 105.00 90.00 135.00" fill="none" stroke="rgb(0,0,0)" stroke-width="2" />
<circle cx="90.00" cy="180.00" r="45.00" fill="rgb(255,255,255)" stroke="rgb(0,0,0)" stroke-width="2" />
<polyline points="90.00 225.00 90.00 255.00" fill="none" stroke="rgb(0,0,0)" stroke-width="2" />
<text x="50.00" y="184.00" font-family ="ARIAL" font-size ="17pt" font-weight="normal" font-style="normal" fill="rgb(0,0,0)" transform=" rotate(0.000) scale(1.000,1.000)">${uIn}</text>
<polyline points="330.00 275.00 380.00 275.00" fill="none" stroke="rgb(0,0,0)" stroke-width="2" />
<polygon points="355 250 355 260 370 255" fill="rgb(0,0,0)" stroke="rgb(0,0,0)" stroke-width="1" />
<polyline points="380.00 235.00 330.00 235.00" fill="none" stroke="rgb(0,0,0)" stroke-width="2" />
<polyline points="430.00 275.00 390.00 275.00 390.00 235.00" fill="none" stroke="rgb(0,0,0)" stroke-width="2" />
<polyline points="380.00 255.00 340.00 255.00" fill="none" stroke="rgb(0,0,0)" stroke-width="2" />
<path fill="rgb(0,0,0)" stroke="rgb(0,0,0)" stroke-width="1" style="stroke-linecap:square; stroke-linejoin:miter" d=" M 385 227 L 380 227 380 242 385 242 385 227" />
<path fill="rgb(0,0,0)" stroke="rgb(0,0,0)" stroke-width="1" style="stroke-linecap:square; stroke-linejoin:miter" d=" M 385 247 L 380 247 380 262 385 262 385 247" />
<path fill="rgb(0,0,0)" stroke="rgb(0,0,0)" stroke-width="1" style="stroke-linecap:square; stroke-linejoin:miter" d=" M 385 267 L 380 267 380 282 385 282 385 267" />
<text x="375.28" y="214.00" font-family ="ARIAL" font-size ="17pt" font-weight="normal" font-style="normal" fill="rgb(0,0,0)" transform=" rotate(0.000) scale(1.000,1.000)">T1</text>
<text x="394.00" y="309.00" font-family ="ARIAL" font-size ="17pt" font-weight="normal" font-style="normal" fill="rgb(0,0,0)" transform=" rotate(0.000) scale(1.000,1.000)"></text>
<text x="450.00" y="279.00" font-family ="Arial" font-size ="21pt" font-weight="normal" font-style="normal" fill="rgb(0,0,0)" transform=" rotate(0.000) scale(1.000,1.000)">${freq}</text>
<polyline points="460.00 245.00 460.00 205.00 480.00 205.00 480.00 245.00 500.00 245.00 500.00 205.00 520.00 205.00 520.00 245.00 540.00 245.00" fill="none" stroke="rgb(0,0,0)" stroke-width="2" />
<polyline points="330.00 365.00 340.00 365.00" fill="none" stroke="rgb(0,0,0)" stroke-width="2" />
<polyline points="420.00 365.00 430.00 365.00" fill="none" stroke="rgb(0,0,0)" stroke-width="2" />
<path fill="none" stroke="rgb(0,0,0)" stroke-width="2" d=" M 340.00 365.00 Q 340.00 365.00 340.10 365.98 Q 340.19 366.95 340.48 367.89 Q 340.76 368.83 341.22 369.69 Q 341.69 370.56 342.31 371.31 Q 342.93 372.07 343.69 372.69 Q 344.44 373.31 345.31 373.78 Q 346.17 374.24 347.11 374.52 Q 348.05 374.81 349.02 374.90 Q 350.00 375.00 350.98 374.90 Q 351.95 374.81 352.89 374.52 Q 353.83 374.24 354.69 373.78 Q 355.56 373.31 356.31 372.69 Q 357.07 372.07 357.69 371.31 Q 358.31 370.56 358.78 369.69 Q 359.24 368.83 359.52 367.89 Q 359.81 366.95 359.90 365.98 Q 360.00 365.00 360.00 365.00 L 360.00 365.00" />
<path fill="none" stroke="rgb(0,0,0)" stroke-width="2" d=" M 360.00 365.00 Q 360.00 365.00 360.10 365.98 Q 360.19 366.95 360.48 367.89 Q 360.76 368.83 361.22 369.69 Q 361.69 370.56 362.31 371.31 Q 362.93 372.07 363.69 372.69 Q 364.44 373.31 365.31 373.78 Q 366.17 374.24 367.11 374.52 Q 368.05 374.81 369.02 374.90 Q 370.00 375.00 370.98 374.90 Q 371.95 374.81 372.89 374.52 Q 373.83 374.24 374.69 373.78 Q 375.56 373.31 376.31 372.69 Q 377.07 372.07 377.69 371.31 Q 378.31 370.56 378.78 369.69 Q 379.24 368.83 379.52 367.89 Q 379.81 366.95 379.90 365.98 Q 380.00 365.00 380.00 365.00 L 380.00 365.00" />
<path fill="none" stroke="rgb(0,0,0)" stroke-width="2" d=" M 380.00 365.00 Q 380.00 365.00 380.10 365.98 Q 380.19 366.95 380.48 367.89 Q 380.76 368.83 381.22 369.69 Q 381.69 370.56 382.31 371.31 Q 382.93 372.07 383.69 372.69 Q 384.44 373.31 385.31 373.78 Q 386.17 374.24 387.11 374.52 Q 388.05 374.81 389.02 374.90 Q 390.00 375.00 390.98 374.90 Q 391.95 374.81 392.89 374.52 Q 393.83 374.24 394.69 373.78 Q 395.56 373.31 396.31 372.69 Q 397.07 372.07 397.69 371.31 Q 398.31 370.56 398.78 369.69 Q 399.24 368.83 399.52 367.89 Q 399.81 366.95 399.90 365.98 Q 400.00 365.00 400.00 365.00 L 400.00 365.00" />
<path fill="none" stroke="rgb(0,0,0)" stroke-width="2" d=" M 400.00 365.00 Q 400.00 365.00 400.10 365.98 Q 400.19 366.95 400.48 367.89 Q 400.76 368.83 401.22 369.69 Q 401.69 370.56 402.31 371.31 Q 402.93 372.07 403.69 372.69 Q 404.44 373.31 405.31 373.78 Q 406.17 374.24 407.11 374.52 Q 408.05 374.81 409.02 374.90 Q 410.00 375.00 410.98 374.90 Q 411.95 374.81 412.89 374.52 Q 413.83 374.24 414.69 373.78 Q 415.56 373.31 416.31 372.69 Q 417.07 372.07 417.69 371.31 Q 418.31 370.56 418.78 369.69 Q 419.24 368.83 419.52 367.89 Q 419.81 366.95 419.90 365.98 Q 420.00 365.00 420.00 365.00 L 420.00 365.00" />
<polyline points="340.00 380.00 420.00 380.00" fill="none" stroke="rgb(0,0,0)" stroke-width="2" />
<text x="350.00" y="324.00" font-family ="Arial" font-size ="17pt" font-weight="normal" font-style="italic" fill="rgb(0,0,0)" transform=" rotate(0.000) scale(1.000,1.000)">L1</text>
<text x="340.00" y="344.00" font-family ="Arial" font-size ="17pt" font-weight="normal" font-style="italic" fill="rgb(0,0,0)" transform=" rotate(0.000) scale(1.000,1.000)">${inductance}</text>
<polyline points="210.00 365.00 210.00 395.00" fill="none" stroke="rgb(0,0,0)" stroke-width="2" />
<circle cx="210.00" cy="440.00" r="45.00" fill="rgb(255,255,255)" stroke="rgb(0,0,0)" stroke-width="2" />
<polyline points="210.00 485.00 210.00 515.00" fill="none" stroke="rgb(0,0,0)" stroke-width="2" />
<text x="180.00" y="444.00" font-family ="ARIAL" font-size ="17pt" font-weight="normal" font-style="normal" fill="rgb(0,0,0)" transform=" rotate(0.000) scale(1.000,1.000)">${iDiodePeak}</text>
<polyline points="530.00 365.00 530.00 395.00" fill="none" stroke="rgb(0,0,0)" stroke-width="2" />
<circle cx="530.00" cy="440.00" r="45.00" fill="rgb(255,255,255)" stroke="rgb(0,0,0)" stroke-width="2" />
<polyline points="530.00 485.00 530.00 515.00" fill="none" stroke="rgb(0,0,0)" stroke-width="2" />
<text x="490.00" y="444.00" font-family ="ARIAL" font-size ="17pt" font-weight="normal" font-style="normal" fill="rgb(0,0,0)" transform=" rotate(0.000) scale(1.000,1.000)">${uOut}</text>
<polyline points="530.00 365.00 560.00 365.00" fill="none" stroke="rgb(0,0,0)" stroke-width="2" />
<circle cx="605.00" cy="365.00" r="45.00" fill="rgb(255,255,255)" stroke="rgb(0,0,0)" stroke-width="2" />
<polyline points="650.00 365.00 680.00 365.00" fill="none" stroke="rgb(0,0,0)" stroke-width="2" />
<text x="570.00" y="374.00" font-family ="ARIAL" font-size ="17pt" font-weight="normal" font-style="normal" fill="rgb(0,0,0)" transform=" rotate(0.000) scale(1.000,1.000)">${iOut}</text>
<polyline points="430.00 445.00 430.00 475.00 450.00 475.00 410.00 475.00" fill="none" stroke="rgb(0,0,0)" stroke-width="2" />
<polyline points="450.00 485.00 410.00 485.00 430.00 485.00 430.00 515.00" fill="none" stroke="rgb(0,0,0)" stroke-width="2" />
<polyline points="420.00 465.00 410.00 465.00" fill="none" stroke="rgb(0,0,0)" stroke-width="2" />
<polyline points="415.00 460.00 415.00 470.00" fill="none" stroke="rgb(0,0,0)" stroke-width="2" />
<text x="342.88" y="454.00" font-family ="Arial" font-size ="17pt" font-weight="normal" font-style="italic" fill="rgb(0,0,0)" transform=" rotate(0.000) scale(1.000,1.000)">C1</text>
<text x="260.08" y="484.00" font-family ="Arial" font-size ="17pt" font-weight="normal" font-style="italic" fill="rgb(0,0,0)" transform=" rotate(0.000) scale(1.000,1.000)">${capacitance}</text>
<polygon points="210 305 230 335 190 335" fill="rgb(255,255,255)" stroke="rgb(0,0,0)" stroke-width="2" />
<polyline points="210.00 275.00 210.00 365.00" fill="none" stroke="rgb(0,0,0)" stroke-width="2" />
<polyline points="190.00 305.00 230.00 305.00" fill="none" stroke="rgb(0,0,0)" stroke-width="2" />
<text x="235.00" y="314.00" font-family ="Arial" font-size ="17pt" font-weight="normal" font-style="italic" fill="rgb(0,0,0)" transform=" rotate(0.000) scale(1.000,1.000)">VD1</text>
<text x="235.00" y="334.00" font-family ="Arial" font-size ="17pt" font-weight="normal" font-style="italic" fill="rgb(0,0,0)" transform=" rotate(0.000) scale(1.000,1.000)"></text>
<polyline points="330.00 85.00 330.00 115.00" fill="none" stroke="rgb(0,0,0)" stroke-width="2" />
<circle cx="330.00" cy="160.00" r="45.00" fill="rgb(255,255,255)" stroke="rgb(0,0,0)" stroke-width="2" />
<polyline points="330.00 205.00 330.00 235.00" fill="none" stroke="rgb(0,0,0)" stroke-width="2" />
<text x="290.00" y="164.00" font-family ="ARIAL" font-size ="17pt" font-weight="normal" font-style="normal" fill="rgb(0,0,0)" transform=" rotate(0.000) scale(1.000,1.000)">${iInPeak}</text>
<polyline points="430.00 85.00 430.00 115.00 410.00 115.00 450.00 115.00" fill="none" stroke="rgb(0,0,0)" stroke-width="2" />
<polyline points="410.00 125.00 450.00 125.00 430.00 125.00 430.00 155.00" fill="none" stroke="rgb(0,0,0)" stroke-width="2" />
<polyline points="440.00 105.00 450.00 105.00" fill="none" stroke="rgb(0,0,0)" stroke-width="2" />
<polyline points="445.00 100.00 445.00 110.00" fill="none" stroke="rgb(0,0,0)" stroke-width="2" />
<text x="460.00" y="124.00" font-family ="Arial" font-size ="17pt" font-weight="normal" font-style="italic" fill="rgb(0,0,0)" transform=" rotate(0.000) scale(1.000,1.000)">C2</text>
<polyline points="430.00 155.00 430.00 185.00" fill="none" stroke="rgb(0,0,0)" stroke-width="2" />
<polyline points="410.00 185.00 450.00 185.00" fill="none" stroke="rgb(0,0,0)" stroke-width="4" />
<polyline points="430.00 85.00 280.00 85.00" fill="none" stroke="rgb(0,0,0)" stroke-width="2" />
<polyline points="130.00 85.00 40.00 85.00" fill="none" stroke="rgb(0,0,0)" stroke-width="2" />
<circle cx="90" cy="85" r="6" fill="rgb(0,0,0)" stroke="none" stroke-width="2" />
<polyline points="430.00 515.00 430.00 545.00" fill="none" stroke="rgb(0,0,0)" stroke-width="2" />
<polyline points="410.00 545.00 450.00 545.00" fill="none" stroke="rgb(0,0,0)" stroke-width="4" />
<circle cx="330" cy="275" r="6" fill="rgb(0,0,0)" stroke="none" stroke-width="2" />
<circle cx="430" cy="515" r="6" fill="rgb(0,0,0)" stroke="none" stroke-width="2" />
<polyline points="530.00 515.00 210.00 515.00 90.00 515.00 90.00 255.00" fill="none" stroke="rgb(0,0,0)" stroke-width="2" />
<circle cx="210" cy="515" r="6" fill="rgb(0,0,0)" stroke="none" stroke-width="2" />
<circle cx="330" cy="85" r="6" fill="rgb(0,0,0)" stroke="none" stroke-width="2" />
<circle cx="430" cy="365" r="6" fill="rgb(0,0,0)" stroke="none" stroke-width="2" />
<polyline points="210.00 275.00 330.00 275.00 330.00 365.00" fill="none" stroke="rgb(0,0,0)" stroke-width="2" />
<polyline points="530.00 365.00 430.00 365.00 430.00 445.00" fill="none" stroke="rgb(0,0,0)" stroke-width="2" />
<circle cx="530" cy="365" r="6" fill="rgb(0,0,0)" stroke="none" stroke-width="2" />
<polyline points="90.00 85.00 90.00 105.00" fill="none" stroke="rgb(0,0,0)" stroke-width="2" />
<polyline points="90.00 295.00 40.00 295.00" fill="none" stroke="rgb(0,0,0)" stroke-width="2" />
<circle cx="90" cy="295" r="6" fill="rgb(0,0,0)" stroke="none" stroke-width="2" />
<polyline points="530.00 515.00 680.00 515.00" fill="none" stroke="rgb(0,0,0)" stroke-width="2" />
<circle cx="530" cy="515" r="6" fill="rgb(0,0,0)" stroke="none" stroke-width="2" />
</svg>
