<?xml version="1.0" encoding="utf-8"?>
<!-- Created with "sPlan" (http://www.abacom-online.de) -->
<svg version="1.1" baseProfile="full"
xmlns="http://www.w3.org/2000/svg"
width="499" height="665">
<title>schema3</title>
<defs>
<style type="text/css">
<![CDATA[
polyline {stroke-linecap:round; stroke-linejoin:round}
polygon {stroke-linecap:round; stroke-linejoin:round}
path {stroke-linecap:round; stroke-linejoin:round}
circle {stroke-linecap:round; stroke-linejoin:round}
]]>
</style>
</defs>
<polyline points="130.00 85.00 160.00 85.00" fill="none" stroke="rgb(0,0,0)" stroke-width="2" />
<circle cx="205.00" cy="85.00" r="45.00" fill="rgb(255,255,255)" stroke="rgb(0,0,0)" stroke-width="2" />
<polyline points="250.00 85.00 280.00 85.00" fill="none" stroke="rgb(0,0,0)" stroke-width="2" />
<text x="160.00" y="94.00" font-family ="ARIAL" font-size ="17pt" font-weight="normal" font-style="normal" fill="rgb(0,0,0)" transform=" rotate(0.000) scale(1.000,1.000)">${iInMid}</text>
<polyline points="100.00 105.00 100.00 135.00" fill="none" stroke="rgb(0,0,0)" stroke-width="2" />
<circle cx="100.00" cy="180.00" r="45.00" fill="rgb(255,255,255)" stroke="rgb(0,0,0)" stroke-width="2" />
<polyline points="100.00 225.00 100.00 255.00" fill="none" stroke="rgb(0,0,0)" stroke-width="2" />
<text x="60.00" y="184.00" font-family ="ARIAL" font-size ="17pt" font-weight="normal" font-style="normal" fill="rgb(0,0,0)" transform=" rotate(0.000) scale(1.000,1.000)">${uIn}</text>
<polyline points="280.00 275.00 330.00 275.00" fill="none" stroke="rgb(0,0,0)" stroke-width="2" />
<polygon points="305 250 305 260 320 255" fill="rgb(0,0,0)" stroke="rgb(0,0,0)" stroke-width="1" />
<polyline points="330.00 235.00 280.00 235.00" fill="none" stroke="rgb(0,0,0)" stroke-width="2" />
<polyline points="380.00 275.00 340.00 275.00 340.00 235.00" fill="none" stroke="rgb(0,0,0)" stroke-width="2" />
<polyline points="330.00 255.00 290.00 255.00" fill="none" stroke="rgb(0,0,0)" stroke-width="2" />
<path fill="rgb(0,0,0)" stroke="rgb(0,0,0)" stroke-width="1" style="stroke-linecap:square; stroke-linejoin:miter" d=" M 335 227 L 330 227 330 242 335 242 335 227" />
<path fill="rgb(0,0,0)" stroke="rgb(0,0,0)" stroke-width="1" style="stroke-linecap:square; stroke-linejoin:miter" d=" M 335 247 L 330 247 330 262 335 262 335 247" />
<path fill="rgb(0,0,0)" stroke="rgb(0,0,0)" stroke-width="1" style="stroke-linecap:square; stroke-linejoin:miter" d=" M 335 267 L 330 267 330 282 335 282 335 267" />
<text x="325.28" y="214.00" font-family ="ARIAL" font-size ="17pt" font-weight="normal" font-style="normal" fill="rgb(0,0,0)" transform=" rotate(0.000) scale(1.000,1.000)">T1</text>
<text x="344.00" y="309.00" font-family ="ARIAL" font-size ="17pt" font-weight="normal" font-style="normal" fill="rgb(0,0,0)" transform=" rotate(0.000) scale(1.000,1.000)"></text>
<polyline points="280.00 275.00 280.00 285.00" fill="none" stroke="rgb(0,0,0)" stroke-width="2" />
<polyline points="280.00 365.00 280.00 375.00" fill="none" stroke="rgb(0,0,0)" stroke-width="2" />
<path fill="none" stroke="rgb(0,0,0)" stroke-width="2" d=" M 280.00 305.00 Q 280.00 305.00 280.98 304.90 Q 281.95 304.81 282.89 304.52 Q 283.83 304.24 284.69 303.78 Q 285.56 303.31 286.31 302.69 Q 287.07 302.07 287.69 301.31 Q 288.31 300.56 288.78 299.69 Q 289.24 298.83 289.52 297.89 Q 289.81 296.95 289.90 295.98 Q 290.00 295.00 289.90 294.02 Q 289.81 293.05 289.52 292.11 Q 289.24 291.17 288.78 290.31 Q 288.31 289.44 287.69 288.69 Q 287.07 287.93 286.31 287.31 Q 285.56 286.69 284.69 286.22 Q 283.83 285.76 282.89 285.48 Q 281.95 285.19 280.98 285.10 Q 280.00 285.00 280.00 285.00 L 280.00 285.00" />
<path fill="none" stroke="rgb(0,0,0)" stroke-width="2" d=" M 280.00 325.00 Q 280.00 325.00 280.98 324.90 Q 281.95 324.81 282.89 324.52 Q 283.83 324.24 284.69 323.78 Q 285.56 323.31 286.31 322.69 Q 287.07 322.07 287.69 321.31 Q 288.31 320.56 288.78 319.69 Q 289.24 318.83 289.52 317.89 Q 289.81 316.95 289.90 315.98 Q 290.00 315.00 289.90 314.02 Q 289.81 313.05 289.52 312.11 Q 289.24 311.17 288.78 310.31 Q 288.31 309.44 287.69 308.69 Q 287.07 307.93 286.31 307.31 Q 285.56 306.69 284.69 306.22 Q 283.83 305.76 282.89 305.48 Q 281.95 305.19 280.98 305.10 Q 280.00 305.00 280.00 305.00 L 280.00 305.00" />
<path fill="none" stroke="rgb(0,0,0)" stroke-width="2" d=" M 280.00 345.00 Q 280.00 345.00 280.98 344.90 Q 281.95 344.81 282.89 344.52 Q 283.83 344.24 284.69 343.78 Q 285.56 343.31 286.31 342.69 Q 287.07 342.07 287.69 341.31 Q 288.31 340.56 288.78 339.69 Q 289.24 338.83 289.52 337.89 Q 289.81 336.95 289.90 335.98 Q 290.00 335.00 289.90 334.02 Q 289.81 333.05 289.52 332.11 Q 289.24 331.17 288.78 330.31 Q 288.31 329.44 287.69 328.69 Q 287.07 327.93 286.31 327.31 Q 285.56 326.69 284.69 326.22 Q 283.83 325.76 282.89 325.48 Q 281.95 325.19 280.98 325.10 Q 280.00 325.00 280.00 325.00 L 280.00 325.00" />
<path fill="none" stroke="rgb(0,0,0)" stroke-width="2" d=" M 280.00 365.00 Q 280.00 365.00 280.98 364.90 Q 281.95 364.81 282.89 364.52 Q 283.83 364.24 284.69 363.78 Q 285.56 363.31 286.31 362.69 Q 287.07 362.07 287.69 361.31 Q 288.31 360.56 288.78 359.69 Q 289.24 358.83 289.52 357.89 Q 289.81 356.95 289.90 355.98 Q 290.00 355.00 289.90 354.02 Q 289.81 353.05 289.52 352.11 Q 289.24 351.17 288.78 350.31 Q 288.31 349.44 287.69 348.69 Q 287.07 347.93 286.31 347.31 Q 285.56 346.69 284.69 346.22 Q 283.83 345.76 282.89 345.48 Q 281.95 345.19 280.98 345.10 Q 280.00 345.00 280.00 345.00 L 280.00 345.00" />
<polyline points="295.00 285.00 295.00 365.00" fill="none" stroke="rgb(0,0,0)" stroke-width="2" />
<text x="310.00" y="334.00" font-family ="Arial" font-size ="17pt" font-weight="normal" font-style="italic" fill="rgb(0,0,0)" transform=" rotate(0.000) scale(1.000,1.000)">L1</text>
<text x="300.00" y="364.00" font-family ="Arial" font-size ="17pt" font-weight="normal" font-style="italic" fill="rgb(0,0,0)" transform=" rotate(0.000) scale(1.000,1.000)">${inductance}</text>
<polygon points="160 315 180 345 140 345" fill="rgb(255,255,255)" stroke="rgb(0,0,0)" stroke-width="2" />
<polyline points="160.00 285.00 160.00 375.00" fill="none" stroke="rgb(0,0,0)" stroke-width="2" />
<polyline points="140.00 315.00 180.00 315.00" fill="none" stroke="rgb(0,0,0)" stroke-width="2" />
<text x="185.00" y="324.00" font-family ="Arial" font-size ="17pt" font-weight="normal" font-style="italic" fill="rgb(0,0,0)" transform=" rotate(0.000) scale(1.000,1.000)">VD1</text>
<text x="185.00" y="344.00" font-family ="Arial" font-size ="17pt" font-weight="normal" font-style="italic" fill="rgb(0,0,0)" transform=" rotate(0.000) scale(1.000,1.000)"></text>
<polyline points="280.00 85.00 280.00 115.00" fill="none" stroke="rgb(0,0,0)" stroke-width="2" />
<circle cx="280.00" cy="160.00" r="45.00" fill="rgb(255,255,255)" stroke="rgb(0,0,0)" stroke-width="2" />
<polyline points="280.00 205.00 280.00 235.00" fill="none" stroke="rgb(0,0,0)" stroke-width="2" />
<text x="240.00" y="164.00" font-family ="ARIAL" font-size ="17pt" font-weight="normal" font-style="normal" fill="rgb(0,0,0)" transform=" rotate(0.000) scale(1.000,1.000)">${iInPeak}</text>
<polyline points="160.00 375.00 160.00 405.00" fill="none" stroke="rgb(0,0,0)" stroke-width="2" />
<circle cx="160.00" cy="450.00" r="45.00" fill="rgb(255,255,255)" stroke="rgb(0,0,0)" stroke-width="2" />
<polyline points="160.00 495.00 160.00 525.00" fill="none" stroke="rgb(0,0,0)" stroke-width="2" />
<text x="120.00" y="454.00" font-family ="ARIAL" font-size ="17pt" font-weight="normal" font-style="normal" fill="rgb(0,0,0)" transform=" rotate(0.000) scale(1.000,1.000)">${iDiodePeak}</text>
<polyline points="280.00 525.00 310.00 525.00" fill="none" stroke="rgb(0,0,0)" stroke-width="2" />
<circle cx="355.00" cy="525.00" r="45.00" fill="rgb(255,255,255)" stroke="rgb(0,0,0)" stroke-width="2" />
<polyline points="400.00 525.00 430.00 525.00" fill="none" stroke="rgb(0,0,0)" stroke-width="2" />
<text x="320.00" y="534.00" font-family ="ARIAL" font-size ="17pt" font-weight="normal" font-style="normal" fill="rgb(0,0,0)" transform=" rotate(0.000) scale(1.000,1.000)">${iOut}</text>
<polyline points="280.00 375.00 280.00 405.00" fill="none" stroke="rgb(0,0,0)" stroke-width="2" />
<circle cx="280.00" cy="450.00" r="45.00" fill="rgb(255,255,255)" stroke="rgb(0,0,0)" stroke-width="2" />
<polyline points="280.00 495.00 280.00 525.00" fill="none" stroke="rgb(0,0,0)" stroke-width="2" />
<text x="240.00" y="454.00" font-family ="ARIAL" font-size ="17pt" font-weight="normal" font-style="normal" fill="rgb(0,0,0)" transform=" rotate(0.000) scale(1.000,1.000)">${uOut}</text>
<polyline points="160.00 595.00 160.00 565.00 140.00 565.00 180.00 565.00" fill="none" stroke="rgb(0,0,0)" stroke-width="2" />
<polyline points="140.00 555.00 180.00 555.00 160.00 555.00 160.00 525.00" fill="none" stroke="rgb(0,0,0)" stroke-width="2" />
<polyline points="170.00 575.00 180.00 575.00" fill="none" stroke="rgb(0,0,0)" stroke-width="2" />
<polyline points="175.00 580.00 175.00 570.00" fill="none" stroke="rgb(0,0,0)" stroke-width="2" />
<text x="190.00" y="564.00" font-family ="Arial" font-size ="17pt" font-weight="normal" font-style="italic" fill="rgb(0,0,0)" transform=" rotate(0.000) scale(1.000,1.000)">C1</text>
<text x="180.00" y="594.00" font-family ="Arial" font-size ="17pt" font-weight="normal" font-style="italic" fill="rgb(0,0,0)" transform=" rotate(0.000) scale(1.000,1.000)">${capacitance}</text>
<polyline points="370.00 85.00 370.00 115.00 350.00 115.00 390.00 115.00" fill="none" stroke="rgb(0,0,0)" stroke-width="2" />
<polyline points="350.00 125.00 390.00 125.00 370.00 125.00 370.00 155.00" fill="none" stroke="rgb(0,0,0)" stroke-width="2" />
<polyline points="380.00 105.00 390.00 105.00" fill="none" stroke="rgb(0,0,0)" stroke-width="2" />
<polyline points="385.00 100.00 385.00 110.00" fill="none" stroke="rgb(0,0,0)" stroke-width="2" />
<text x="395.00" y="109.00" font-family ="Arial" font-size ="17pt" font-weight="normal" font-style="italic" fill="rgb(0,0,0)" transform=" rotate(0.000) scale(1.000,1.000)">C2</text>
<polyline points="100.00 255.00 100.00 285.00" fill="none" stroke="rgb(0,0,0)" stroke-width="2" />
<polyline points="80.00 285.00 120.00 285.00" fill="none" stroke="rgb(0,0,0)" stroke-width="4" />
<circle cx="100" cy="85" r="6" fill="rgb(0,0,0)" stroke="none" stroke-width="2" />
<circle cx="100" cy="255" r="6" fill="rgb(0,0,0)" stroke="none" stroke-width="2" />
<polyline points="100.00 255.00 40.00 255.00" fill="none" stroke="rgb(0,0,0)" stroke-width="2" />
<polyline points="100.00 85.00 40.00 85.00" fill="none" stroke="rgb(0,0,0)" stroke-width="2" />
<polyline points="130.00 85.00 100.00 85.00 100.00 105.00" fill="none" stroke="rgb(0,0,0)" stroke-width="2" />
<circle cx="280" cy="85" r="6" fill="rgb(0,0,0)" stroke="none" stroke-width="2" />
<polyline points="370.00 155.00 370.00 185.00" fill="none" stroke="rgb(0,0,0)" stroke-width="2" />
<polyline points="350.00 185.00 390.00 185.00" fill="none" stroke="rgb(0,0,0)" stroke-width="4" />
<polyline points="370.00 85.00 280.00 85.00" fill="none" stroke="rgb(0,0,0)" stroke-width="2" />
<polyline points="370.00 255.00 370.00 215.00 390.00 215.00 390.00 255.00 410.00 255.00 410.00 215.00 430.00 215.00 430.00 255.00 450.00 255.00" fill="none" stroke="rgb(0,0,0)" stroke-width="2" />
<text x="380.00" y="309.00" font-family ="Arial" font-size ="21pt" font-weight="normal" font-style="normal" fill="rgb(0,0,0)" transform=" rotate(0.000) scale(1.000,1.000)">${freq}</text>
<polyline points="280.00 375.00 250.00 375.00" fill="none" stroke="rgb(0,0,0)" stroke-width="2" />
<polyline points="250.00 395.00 250.00 355.00" fill="none" stroke="rgb(0,0,0)" stroke-width="4" />
<circle cx="280" cy="375" r="6" fill="rgb(0,0,0)" stroke="none" stroke-width="2" />
<circle cx="160" cy="525" r="6" fill="rgb(0,0,0)" stroke="none" stroke-width="2" />
<polyline points="160.00 595.00 160.00 625.00" fill="none" stroke="rgb(0,0,0)" stroke-width="2" />
<polyline points="140.00 625.00 180.00 625.00" fill="none" stroke="rgb(0,0,0)" stroke-width="4" />
<polyline points="280.00 525.00 160.00 525.00" fill="none" stroke="rgb(0,0,0)" stroke-width="2" />
<polyline points="280.00 275.00 160.00 275.00 160.00 285.00" fill="none" stroke="rgb(0,0,0)" stroke-width="2" />
<circle cx="280" cy="275" r="6" fill="rgb(0,0,0)" stroke="none" stroke-width="2" />
<circle cx="280" cy="525" r="6" fill="rgb(0,0,0)" stroke="none" stroke-width="2" />
<polyline points="430.00 595.00 400.00 595.00" fill="none" stroke="rgb(0,0,0)" stroke-width="2" />
<polyline points="400.00 595.00 400.00 625.00" fill="none" stroke="rgb(0,0,0)" stroke-width="2" />
<polyline points="380.00 625.00 420.00 625.00" fill="none" stroke="rgb(0,0,0)" stroke-width="4" />
</svg>
