<?xml version="1.0" encoding="utf-8"?>
<!-- Created with "sPlan" (http://www.abacom-online.de) -->
<svg version="1.1" baseProfile="full"
xmlns="http://www.w3.org/2000/svg"
width="537" height="286">
<title>schema1</title>
<defs>
<style type="text/css">
<![CDATA[
polyline {stroke-linecap:round; stroke-linejoin:round}
polygon {stroke-linecap:round; stroke-linejoin:round}
path {stroke-linecap:round; stroke-linejoin:round}
circle {stroke-linecap:round; stroke-linejoin:round}
]]>
</style>
</defs>
<path fill="rgb(0,0,0)" stroke="rgb(0,0,0)" stroke-width="2" style="stroke-linecap:square; stroke-linejoin:miter" d=" M 180 150 L 220 150 220 160 180 160 180 150" />
<polyline points="200.00 120.00 200.00 150.00" fill="none" stroke="rgb(0,0,0)" stroke-width="2" />
<polyline points="200.00 180.00 200.00 210.00" fill="none" stroke="rgb(0,0,0)" stroke-width="2" />
<path fill="rgb(0,0,0)" stroke="rgb(0,0,0)" stroke-width="2" style="stroke-linecap:square; stroke-linejoin:miter" d=" M 180 170 L 220 170 220 180 180 180 180 170" />
<text x="120.00" y="209.00" font-family ="ARIAL" font-size ="17pt" font-weight="normal" font-style="normal" fill="rgb(0,0,0)" transform=" rotate(0.000) scale(1.000,1.000)">${c1}</text>
<path fill="rgb(0,0,0)" stroke="rgb(0,0,0)" stroke-width="2" style="stroke-linecap:square; stroke-linejoin:miter" d=" M 340 150 L 380 150 380 160 340 160 340 150" />
<polyline points="360.00 120.00 360.00 150.00" fill="none" stroke="rgb(0,0,0)" stroke-width="2" />
<polyline points="360.00 180.00 360.00 210.00" fill="none" stroke="rgb(0,0,0)" stroke-width="2" />
<path fill="rgb(0,0,0)" stroke="rgb(0,0,0)" stroke-width="2" style="stroke-linecap:square; stroke-linejoin:miter" d=" M 340 170 L 380 170 380 180 340 180 340 170" />
<text x="300.00" y="209.00" font-family ="ARIAL" font-size ="17pt" font-weight="normal" font-style="normal" fill="rgb(0,0,0)" transform=" rotate(0.000) scale(1.000,1.000)">${c2}</text>
<polyline points="200.00 90.00 240.00 90.00" fill="none" stroke="rgb(0,0,0)" stroke-width="2" />
<polyline points="320.00 90.00 360.00 90.00" fill="none" stroke="rgb(0,0,0)" stroke-width="2" />
<path fill="none" stroke="rgb(0,0,0)" stroke-width="2" d=" M 260.00 90.00 Q 260.00 90.00 259.90 89.02 Q 259.81 88.05 259.52 87.11 Q 259.24 86.17 258.78 85.31 Q 258.31 84.44 257.69 83.69 Q 257.07 82.93 256.31 82.31 Q 255.56 81.69 254.69 81.22 Q 253.83 80.76 252.89 80.48 Q 251.95 80.19 250.98 80.10 Q 250.00 80.00 249.02 80.10 Q 248.05 80.19 247.11 80.48 Q 246.17 80.76 245.31 81.22 Q 244.44 81.69 243.69 82.31 Q 242.93 82.93 242.31 83.69 Q 241.69 84.44 241.22 85.31 Q 240.76 86.17 240.48 87.11 Q 240.19 88.05 240.10 89.02 Q 240.00 90.00 240.00 90.00 L 240.00 90.00" />
<path fill="none" stroke="rgb(0,0,0)" stroke-width="2" d=" M 280.00 90.00 Q 280.00 90.00 279.90 89.02 Q 279.81 88.05 279.52 87.11 Q 279.24 86.17 278.78 85.31 Q 278.31 84.44 277.69 83.69 Q 277.07 82.93 276.31 82.31 Q 275.56 81.69 274.69 81.22 Q 273.83 80.76 272.89 80.48 Q 271.95 80.19 270.98 80.10 Q 270.00 80.00 269.02 80.10 Q 268.05 80.19 267.11 80.48 Q 266.17 80.76 265.31 81.22 Q 264.44 81.69 263.69 82.31 Q 262.93 82.93 262.31 83.69 Q 261.69 84.44 261.22 85.31 Q 260.76 86.17 260.48 87.11 Q 260.19 88.05 260.10 89.02 Q 260.00 90.00 260.00 90.00 L 260.00 90.00" />
<path fill="none" stroke="rgb(0,0,0)" stroke-width="2" d=" M 300.00 90.00 Q 300.00 90.00 299.90 89.02 Q 299.81 88.05 299.52 87.11 Q 299.24 86.17 298.78 85.31 Q 298.31 84.44 297.69 83.69 Q 297.07 82.93 296.31 82.31 Q 295.56 81.69 294.69 81.22 Q 293.83 80.76 292.89 80.48 Q 291.95 80.19 290.98 80.10 Q 290.00 80.00 289.02 80.10 Q 288.05 80.19 287.11 80.48 Q 286.17 80.76 285.31 81.22 Q 284.44 81.69 283.69 82.31 Q 282.93 82.93 282.31 83.69 Q 281.69 84.44 281.22 85.31 Q 280.76 86.17 280.48 87.11 Q 280.19 88.05 280.10 89.02 Q 280.00 90.00 280.00 90.00 L 280.00 90.00" />
<path fill="none" stroke="rgb(0,0,0)" stroke-width="2" d=" M 320.00 90.00 Q 320.00 90.00 319.90 89.02 Q 319.81 88.05 319.52 87.11 Q 319.24 86.17 318.78 85.31 Q 318.31 84.44 317.69 83.69 Q 317.07 82.93 316.31 82.31 Q 315.56 81.69 314.69 81.22 Q 313.83 80.76 312.89 80.48 Q 311.95 80.19 310.98 80.10 Q 310.00 80.00 309.02 80.10 Q 308.05 80.19 307.11 80.48 Q 306.17 80.76 305.31 81.22 Q 304.44 81.69 303.69 82.31 Q 302.93 82.93 302.31 83.69 Q 301.69 84.44 301.22 85.31 Q 300.76 86.17 300.48 87.11 Q 300.19 88.05 300.10 89.02 Q 300.00 90.00 300.00 90.00 L 300.00 90.00" />
<text x="240.00" y="59.00" font-family ="ARIAL" font-size ="17pt" font-weight="normal" font-style="normal" fill="rgb(0,0,0)" transform=" rotate(0.000) scale(1.000,1.000)">${l1}</text>
<path fill="rgb(255,255,255)" stroke="rgb(0,0,0)" stroke-width="2" style="stroke-linecap:square; stroke-linejoin:miter" d=" M 425 130 L 455 130 455 200 425 200 425 130" />
<polyline points="440.00 90.00 440.00 130.00" fill="none" stroke="rgb(0,0,0)" stroke-width="2" />
<polyline points="440.00 200.00 440.00 240.00" fill="none" stroke="rgb(0,0,0)" stroke-width="2" />
<text x="470.00" y="179.00" font-family ="ARIAL" font-size ="17pt" font-weight="normal" font-style="normal" fill="rgb(0,0,0)" transform=" rotate(0.000) scale(1.000,1.000)">${outputResistance}</text>
<path fill="rgb(255,255,255)" stroke="rgb(0,0,0)" stroke-width="2" style="stroke-linecap:square; stroke-linejoin:miter" d=" M 40 40 L 140 40 140 130 40 130 40 40" />
<text x="5.00" y="82.00" font-family ="ARIAL" font-size ="28pt" font-weight="normal" font-style="normal" fill="rgb(0,0,0)" transform=" rotate(0.000) scale(1.000,1.000)">${inputResistance}</text>
<path fill="none" stroke="rgb(0,0,0)" stroke-width="2" d=" M 90.00 110.00 Q 90.00 110.00 89.90 109.02 Q 89.81 108.05 89.52 107.11 Q 89.24 106.17 88.78 105.31 Q 88.31 104.44 87.69 103.69 Q 87.07 102.93 86.31 102.31 Q 85.56 101.69 84.69 101.22 Q 83.83 100.76 82.89 100.48 Q 81.95 100.19 80.98 100.10 Q 80.00 100.00 79.02 100.10 Q 78.05 100.19 77.11 100.48 Q 76.17 100.76 75.31 101.22 Q 74.44 101.69 73.69 102.31 Q 72.93 102.93 72.31 103.69 Q 71.69 104.44 71.22 105.31 Q 70.76 106.17 70.48 107.11 Q 70.19 108.05 70.10 109.02 Q 70.00 110.00 70.00 110.00 L 70.00 110.00" />
<path fill="none" stroke="rgb(0,0,0)" stroke-width="2" d=" M 90.00 110.00 Q 90.00 110.00 90.10 110.98 Q 90.19 111.95 90.48 112.89 Q 90.76 113.83 91.22 114.69 Q 91.69 115.56 92.31 116.31 Q 92.93 117.07 93.69 117.69 Q 94.44 118.31 95.31 118.78 Q 96.17 119.24 97.11 119.52 Q 98.05 119.81 99.02 119.90 Q 100.00 120.00 100.98 119.90 Q 101.95 119.81 102.89 119.52 Q 103.83 119.24 104.69 118.78 Q 105.56 118.31 106.31 117.69 Q 107.07 117.07 107.69 116.31 Q 108.31 115.56 108.78 114.69 Q 109.24 113.83 109.52 112.89 Q 109.81 111.95 109.90 110.98 Q 110.00 110.00 110.00 110.00 L 110.00 110.00" />
<circle cx="200" cy="90" r="6" fill="rgb(0,0,0)" stroke="none" stroke-width="2" />
<circle cx="360" cy="90" r="6" fill="rgb(0,0,0)" stroke="none" stroke-width="2" />
<circle cx="360" cy="240" r="6" fill="rgb(0,0,0)" stroke="none" stroke-width="2" />
<circle cx="200" cy="240" r="6" fill="rgb(0,0,0)" stroke="none" stroke-width="2" />
<polyline points="140.00 90.00 200.00 90.00 200.00 120.00" fill="none" stroke="rgb(0,0,0)" stroke-width="2" />
<polyline points="440.00 240.00 90.00 240.00 90.00 130.00" fill="none" stroke="rgb(0,0,0)" stroke-width="2" />
<polyline points="360.00 90.00 360.00 120.00" fill="none" stroke="rgb(0,0,0)" stroke-width="2" />
<polyline points="200.00 210.00 200.00 240.00" fill="none" stroke="rgb(0,0,0)" stroke-width="2" />
<polyline points="360.00 210.00 360.00 240.00" fill="none" stroke="rgb(0,0,0)" stroke-width="2" />
<polyline points="440.00 90.00 360.00 90.00" fill="none" stroke="rgb(0,0,0)" stroke-width="2" />
</svg>
