<?xml version="1.0" encoding="utf-8"?>
<!-- Created with "sPlan" (http://www.abacom-online.de) -->
<svg version="1.1" baseProfile="full"
xmlns="http://www.w3.org/2000/svg"
width="477" height="260">
<title>schema</title>
<defs>
<style type="text/css">
<![CDATA[
polyline {stroke-linecap:round; stroke-linejoin:round}
polygon {stroke-linecap:round; stroke-linejoin:round}
path {stroke-linecap:round; stroke-linejoin:round}
circle {stroke-linecap:round; stroke-linejoin:round}
]]>
</style>
</defs>
<polyline points="186.56 70.00 186.56 100.00 206.56 100.00 166.56 100.00" fill="none" stroke="rgb(0,0,0)" stroke-width="2" />
<polyline points="206.56 110.00 166.56 110.00 186.56 110.00 186.56 140.00" fill="none" stroke="rgb(0,0,0)" stroke-width="2" />
<text x="40.00" y="89.00" font-family ="Arial" font-size ="28pt" font-weight="normal" font-style="italic" fill="rgb(0,0,0)" transform=" rotate(0.000) scale(1.000,1.000)">${capacity} nF</text>
<text x="166.56" y="212.00" font-family ="Arial" font-size ="28pt" font-weight="normal" font-style="normal" fill="rgb(0,0,0)" transform=" rotate(0.000) scale(1.000,1.000)">${frequency} kHz</text>
<path fill="rgb(255,255,255)" stroke="rgb(0,0,0)" stroke-width="2" style="stroke-linecap:square; stroke-linejoin:miter" d=" M 227 80 L 247 80 247 130 227 130 227 80" />
<polyline points="236.56 60.00 236.56 80.00" fill="none" stroke="rgb(0,0,0)" stroke-width="2" />
<polyline points="236.56 130.00 236.56 150.00" fill="none" stroke="rgb(0,0,0)" stroke-width="2" />
<text x="249.56" y="125.00" font-family ="Arial" font-size ="28pt" font-weight="normal" font-style="italic" fill="rgb(0,0,0)" transform=" rotate(0.000) scale(1.000,1.000)">${resistance} kOhm</text>
<path fill="rgb(0,0,0)" stroke="rgb(0,0,0)" stroke-width="2" style="stroke-linecap:square; stroke-linejoin:miter" d=" M 267 40 L 267 40 267 80 267 80 267 40" />
<polyline points="276.56 60.00 306.56 60.00" fill="none" stroke="rgb(0,0,0)" stroke-width="2" />
<path fill="rgb(0,0,0)" stroke="rgb(0,0,0)" stroke-width="2" style="stroke-linecap:square; stroke-linejoin:miter" d=" M 277 40 L 277 40 277 80 277 80 277 40" />
<polyline points="236.56 60.00 266.56 60.00" fill="none" stroke="rgb(0,0,0)" stroke-width="2" />
<path fill="rgb(255,255,255)" stroke="rgb(0,0,0)" stroke-width="2" style="stroke-linecap:square; stroke-linejoin:miter" d=" M 327 50 L 377 50 377 70 327 70 327 50" />
<polyline points="306.56 60.00 326.56 60.00" fill="none" stroke="rgb(0,0,0)" stroke-width="2" />
<polyline points="376.56 60.00 396.56 60.00" fill="none" stroke="rgb(0,0,0)" stroke-width="2" />
<circle cx="237" cy="60" r="6" fill="rgb(0,0,0)" stroke="none" stroke-width="2" />
<circle cx="237" cy="150" r="6" fill="rgb(0,0,0)" stroke="none" stroke-width="2" />
<polyline points="236.56 150.00 236.56 180.00" fill="none" stroke="rgb(0,0,0)" stroke-width="2" />
<polyline points="216.56 180.00 256.56 180.00" fill="none" stroke="rgb(0,0,0)" stroke-width="4" />
<polyline points="236.56 150.00 186.56 150.00 186.56 140.00" fill="none" stroke="rgb(0,0,0)" stroke-width="2" />
<polyline points="186.56 70.00 186.56 60.00 236.56 60.00" fill="none" stroke="rgb(0,0,0)" stroke-width="2" />
</svg>
