<?xml version="1.0" encoding="utf-8"?>
<!-- Created with "sPlan" (http://www.abacom-online.de) -->
<svg version="1.1" baseProfile="full"
xmlns="http://www.w3.org/2000/svg"
width="660" height="1030">
<title>schema</title>
<defs>
<style type="text/css">
<![CDATA[
polyline {stroke-linecap:round; stroke-linejoin:round}
polygon {stroke-linecap:round; stroke-linejoin:round}
path {stroke-linecap:round; stroke-linejoin:round}
circle {stroke-linecap:round; stroke-linejoin:round}
]]>
</style>
</defs>
<polyline points="395.00 340.00 395.00 370.00" fill="none" stroke="rgb(0,0,0)" stroke-width="2" />
<circle cx="395.00" cy="415.00" r="45.00" fill="rgb(255,255,255)" stroke="rgb(0,0,0)" stroke-width="2" />
<polyline points="395.00 460.00 395.00 490.00" fill="none" stroke="rgb(0,0,0)" stroke-width="2" />
<text x="370.00" y="431.00" font-family ="ARIAL" font-size ="27pt" font-weight="normal" font-style="normal" fill="rgb(0,0,0)" transform=" rotate(0.000) scale(1.000,1.000)">${inputCurrent}</text>
<polyline points="395.00 110.00 365.00 110.00" fill="none" stroke="rgb(0,0,0)" stroke-width="2" />
<circle cx="320.00" cy="110.00" r="45.00" fill="rgb(255,255,255)" stroke="rgb(0,0,0)" stroke-width="2" />
<polyline points="275.00 110.00 245.00 110.00" fill="none" stroke="rgb(0,0,0)" stroke-width="2" />
<text x="295.00" y="121.00" font-family ="ARIAL" font-size ="27pt" font-weight="normal" font-style="normal" fill="rgb(0,0,0)" transform=" rotate(0.000) scale(1.000,1.000)">${inputVoltage}</text>
<path fill="none" stroke="rgb(0,0,0)" stroke-width="2" style="stroke-linecap:square; stroke-linejoin:miter" d=" M 455 180 L 455 340 185 340 185 180 455 180" />
<circle cx="315.00" cy="570.00" r="50.00" fill="none" stroke="rgb(0,0,0)" stroke-width="2" />
<circle cx="315.00" cy="570.00" r="90.00" fill="none" stroke="rgb(0,0,0)" stroke-width="2" />
<text x="235.00" y="286.00" font-family ="Arial" font-size ="49pt" font-weight="normal" font-style="normal" fill="rgb(0,0,0)" transform=" rotate(0.000) scale(1.000,1.000)">${schemaType}</text>
<polyline points="395.00 40.00 395.00 180.00" fill="none" stroke="rgb(0,0,0)" stroke-width="2" />
<polyline points="245.00 40.00 245.00 180.00" fill="none" stroke="rgb(0,0,0)" stroke-width="2" />
<circle cx="245" cy="110" r="6" fill="rgb(0,0,0)" stroke="none" stroke-width="2" />
<circle cx="395" cy="110" r="6" fill="rgb(0,0,0)" stroke="none" stroke-width="2" />
<polyline points="375.00 510.00 345.00 530.00 335.00 480.00 315.00 520.00 295.00 480.00 285.00 530.00 255.00 510.00" fill="none" stroke="rgb(0,0,0)" stroke-width="5" />
<polyline points="375.00 510.00 395.00 490.00" fill="none" stroke="rgb(0,0,0)" stroke-width="2" />
<polyline points="255.00 510.00 235.00 490.00 235.00 340.00" fill="none" stroke="rgb(0,0,0)" stroke-width="2" />
<polyline points="225.00 590.00 265.00 580.00 235.00 610.00 275.00 600.00 245.00 630.00" fill="none" stroke="rgb(0,0,0)" stroke-width="5" />
<polyline points="375.00 630.00 346.34 600.36 387.32 614.02 358.66 581.70 435.00 590.00" fill="none" stroke="rgb(0,0,0)" stroke-width="5" />
<polyline points="292.68 658.66 304.02 619.02 315.00 660.00 326.34 620.36 337.32 661.34" fill="none" stroke="rgb(0,0,0)" stroke-width="5" />
<polyline points="575.00 660.00 575.00 690.00" fill="none" stroke="rgb(0,0,0)" stroke-width="2" />
<circle cx="575.00" cy="735.00" r="45.00" fill="rgb(255,255,255)" stroke="rgb(0,0,0)" stroke-width="2" />
<polyline points="575.00 780.00 575.00 810.00" fill="none" stroke="rgb(0,0,0)" stroke-width="2" />
<text x="550.00" y="751.00" font-family ="ARIAL" font-size ="27pt" font-weight="normal" font-style="normal" fill="rgb(0,0,0)" transform=" rotate(0.000) scale(1.000,1.000)">${outputCurrent3}</text>
<polyline points="395.00 840.00 395.00 870.00" fill="none" stroke="rgb(0,0,0)" stroke-width="2" />
<circle cx="395.00" cy="915.00" r="45.00" fill="rgb(255,255,255)" stroke="rgb(0,0,0)" stroke-width="2" />
<polyline points="395.00 960.00 395.00 990.00" fill="none" stroke="rgb(0,0,0)" stroke-width="2" />
<text x="370.00" y="931.00" font-family ="ARIAL" font-size ="27pt" font-weight="normal" font-style="normal" fill="rgb(0,0,0)" transform=" rotate(0.000) scale(1.000,1.000)">${outputCurrent1}</text>
<polyline points="85.00 660.00 85.00 690.00" fill="none" stroke="rgb(0,0,0)" stroke-width="2" />
<circle cx="85.00" cy="735.00" r="45.00" fill="rgb(255,255,255)" stroke="rgb(0,0,0)" stroke-width="2" />
<polyline points="85.00 780.00 85.00 810.00" fill="none" stroke="rgb(0,0,0)" stroke-width="2" />
<text x="55.00" y="751.00" font-family ="ARIAL" font-size ="27pt" font-weight="normal" font-style="normal" fill="rgb(0,0,0)" transform=" rotate(0.000) scale(1.000,1.000)">${outputCurrent2}</text>
<polyline points="575.00 660.00 545.00 660.00" fill="none" stroke="rgb(0,0,0)" stroke-width="2" />
<circle cx="500.00" cy="660.00" r="45.00" fill="rgb(255,255,255)" stroke="rgb(0,0,0)" stroke-width="2" />
<polyline points="455.00 660.00 425.00 660.00" fill="none" stroke="rgb(0,0,0)" stroke-width="2" />
<text x="475.00" y="671.00" font-family ="ARIAL" font-size ="27pt" font-weight="normal" font-style="normal" fill="rgb(0,0,0)" transform=" rotate(0.000) scale(1.000,1.000)">${outputVoltage3}</text>
<polyline points="395.00 840.00 365.00 840.00" fill="none" stroke="rgb(0,0,0)" stroke-width="2" />
<circle cx="320.00" cy="840.00" r="45.00" fill="rgb(255,255,255)" stroke="rgb(0,0,0)" stroke-width="2" />
<polyline points="275.00 840.00 245.00 840.00" fill="none" stroke="rgb(0,0,0)" stroke-width="2" />
<text x="295.00" y="851.00" font-family ="ARIAL" font-size ="27pt" font-weight="normal" font-style="normal" fill="rgb(0,0,0)" transform=" rotate(0.000) scale(1.000,1.000)">${outputVoltage1}</text>
<polyline points="235.00 660.00 205.00 660.00" fill="none" stroke="rgb(0,0,0)" stroke-width="2" />
<circle cx="160.00" cy="660.00" r="45.00" fill="rgb(255,255,255)" stroke="rgb(0,0,0)" stroke-width="2" />
<polyline points="115.00 660.00 85.00 660.00" fill="none" stroke="rgb(0,0,0)" stroke-width="2" />
<text x="135.00" y="671.00" font-family ="ARIAL" font-size ="27pt" font-weight="normal" font-style="normal" fill="rgb(0,0,0)" transform=" rotate(0.000) scale(1.000,1.000)">${outputVoltage2}</text>
<polyline points="245.00 630.00 235.00 660.00 165.00 820.00 165.00 990.00" fill="none" stroke="rgb(0,0,0)" stroke-width="2" />
<polyline points="225.00 590.00 85.00 590.00 85.00 660.00" fill="none" stroke="rgb(0,0,0)" stroke-width="2" />
<polyline points="337.32 661.34 395.00 710.00 395.00 840.00" fill="none" stroke="rgb(0,0,0)" stroke-width="2" />
<polyline points="292.68 658.66 245.00 710.00 245.00 990.00" fill="none" stroke="rgb(0,0,0)" stroke-width="2" />
<polyline points="435.00 590.00 575.00 590.00 575.00 660.00" fill="none" stroke="rgb(0,0,0)" stroke-width="2" />
<polyline points="375.00 630.00 425.00 660.00" fill="none" stroke="rgb(0,0,0)" stroke-width="2" />
<polyline points="425.00 660.00 495.00 820.00 495.00 990.00" fill="none" stroke="rgb(0,0,0)" stroke-width="2" />
<circle cx="85" cy="660" r="6" fill="rgb(0,0,0)" stroke="none" stroke-width="2" />
<circle cx="235" cy="660" r="6" fill="rgb(0,0,0)" stroke="none" stroke-width="2" />
<circle cx="245" cy="840" r="6" fill="rgb(0,0,0)" stroke="none" stroke-width="2" />
<circle cx="395" cy="840" r="6" fill="rgb(0,0,0)" stroke="none" stroke-width="2" />
<circle cx="425" cy="660" r="6" fill="rgb(0,0,0)" stroke="none" stroke-width="2" />
<circle cx="575" cy="660" r="6" fill="rgb(0,0,0)" stroke="none" stroke-width="2" />
<polyline points="85.00 810.00 85.00 990.00" fill="none" stroke="rgb(0,0,0)" stroke-width="2" />
<polyline points="575.00 810.00 575.00 990.00" fill="none" stroke="rgb(0,0,0)" stroke-width="2" />
<polyline points="315.00 740.00 315.00 680.00" fill="none" stroke="rgb(0,0,0)" stroke-width="2" />
<polygon points="320.40 700.40 315.00 680.00 309.60 700.40" fill="rgb(0,0,0)" stroke="rgb(0,0,0)" stroke-width="2" />
<text x="285.00" y="772.00" font-family ="Arial" font-size ="28pt" font-weight="normal" font-style="normal" fill="rgb(0,0,0)" transform=" rotate(0.000) scale(1.000,1.000)">${outputCoils1}</text>
<text x="85.00" y="562.00" font-family ="Arial" font-size ="28pt" font-weight="normal" font-style="normal" fill="rgb(0,0,0)" transform=" rotate(0.000) scale(1.000,1.000)">${outputCoils2}</text>
<text x="475.00" y="562.00" font-family ="Arial" font-size ="28pt" font-weight="normal" font-style="normal" fill="rgb(0,0,0)" transform=" rotate(0.000) scale(1.000,1.000)">${outputCoils3}</text>
<polyline points="155.00 550.00 215.00 580.00" fill="none" stroke="rgb(0,0,0)" stroke-width="2" />
<polygon points="194.34 575.71 215.00 580.00 199.17 566.05" fill="rgb(0,0,0)" stroke="rgb(0,0,0)" stroke-width="2" />
<polyline points="415.00 580.00 465.00 550.00" fill="none" stroke="rgb(0,0,0)" stroke-width="2" />
<polygon points="429.71 564.87 415.00 580.00 435.27 574.13" fill="rgb(0,0,0)" stroke="rgb(0,0,0)" stroke-width="2" />
<text x="275.00" y="402.00" font-family ="Arial" font-size ="28pt" font-weight="normal" font-style="normal" fill="rgb(0,0,0)" transform=" rotate(0.000) scale(1.000,1.000)">${inputCoils}</text>
<polyline points="315.00 470.00 295.00 410.00" fill="none" stroke="rgb(0,0,0)" stroke-width="2" />
<polygon points="303.43 452.35 315.00 470.00 313.67 448.94" fill="rgb(0,0,0)" stroke="rgb(0,0,0)" stroke-width="2" />
<text x="145.00" y="422.00" font-family ="Arial" font-size ="28pt" font-weight="normal" font-style="normal" fill="rgb(0,0,0)" transform=" rotate(0.000) scale(1.000,1.000)">${inputDiameter}</text>
<polyline points="165.00 450.00 235.00 450.00" fill="none" stroke="rgb(0,0,0)" stroke-width="2" />
<polygon points="214.60 455.40 235.00 450.00 214.60 444.60" fill="rgb(0,0,0)" stroke="rgb(0,0,0)" stroke-width="2" />
<polyline points="235.00 450.00 275.00 450.00" fill="none" stroke="rgb(0,0,0)" stroke-width="2" />
<polygon points="255.40 444.60 235.00 450.00 255.40 455.40" fill="rgb(0,0,0)" stroke="rgb(0,0,0)" stroke-width="2" />
<polyline points="95.00 860.00 165.00 860.00" fill="none" stroke="rgb(0,0,0)" stroke-width="2" />
<polygon points="144.60 865.40 165.00 860.00 144.60 854.60" fill="rgb(0,0,0)" stroke="rgb(0,0,0)" stroke-width="2" />
<polyline points="165.00 860.00 205.00 860.00" fill="none" stroke="rgb(0,0,0)" stroke-width="2" />
<polygon points="185.40 854.60 165.00 860.00 185.40 865.40" fill="rgb(0,0,0)" stroke="rgb(0,0,0)" stroke-width="2" />
<polyline points="175.00 950.00 245.00 950.00" fill="none" stroke="rgb(0,0,0)" stroke-width="2" />
<polygon points="224.60 955.40 245.00 950.00 224.60 944.60" fill="rgb(0,0,0)" stroke="rgb(0,0,0)" stroke-width="2" />
<polyline points="245.00 950.00 285.00 950.00" fill="none" stroke="rgb(0,0,0)" stroke-width="2" />
<polygon points="265.40 944.60 245.00 950.00 265.40 955.40" fill="rgb(0,0,0)" stroke="rgb(0,0,0)" stroke-width="2" />
<polyline points="505.00 860.00 575.00 860.00" fill="none" stroke="rgb(0,0,0)" stroke-width="2" />
<polygon points="554.60 865.40 575.00 860.00 554.60 854.60" fill="rgb(0,0,0)" stroke="rgb(0,0,0)" stroke-width="2" />
<polyline points="575.00 860.00 615.00 860.00" fill="none" stroke="rgb(0,0,0)" stroke-width="2" />
<polygon points="595.40 854.60 575.00 860.00 595.40 865.40" fill="rgb(0,0,0)" stroke="rgb(0,0,0)" stroke-width="2" />
<text x="95.00" y="842.00" font-family ="Arial" font-size ="28pt" font-weight="normal" font-style="normal" fill="rgb(0,0,0)" transform=" rotate(0.000) scale(1.000,1.000)">${outputDiameter2}</text>
<text x="175.00" y="932.00" font-family ="Arial" font-size ="28pt" font-weight="normal" font-style="normal" fill="rgb(0,0,0)" transform=" rotate(0.000) scale(1.000,1.000)">${outputDiameter1}</text>
<text x="505.00" y="842.00" font-family ="Arial" font-size ="28pt" font-weight="normal" font-style="normal" fill="rgb(0,0,0)" transform=" rotate(0.000) scale(1.000,1.000)">${outputDiameter3}</text>
<polyline points="375.00 540.00 475.00 440.00" fill="none" stroke="rgb(0,0,0)" stroke-width="2" />
<polygon points="385.61 521.76 375.00 540.00 393.24 529.39" fill="rgb(0,0,0)" stroke="rgb(0,0,0)" stroke-width="2" />
<text x="495.00" y="442.00" font-family ="Arial" font-size ="28pt" font-weight="normal" font-style="normal" fill="rgb(0,0,0)" transform=" rotate(0.000) scale(1.000,1.000)">${ringType}</text>
</svg>
