<?xml version="1.0" encoding="utf-8"?>
<!-- Created with "sPlan" (http://www.abacom-online.de) -->
<svg version="1.1" baseProfile="full"
xmlns="http://www.w3.org/2000/svg"
width="822" height="330">
<title>bbb</title>
<defs>
<style type="text/css">
<![CDATA[
polyline {stroke-linecap:round; stroke-linejoin:round}
polygon {stroke-linecap:round; stroke-linejoin:round}
path {stroke-linecap:round; stroke-linejoin:round}
circle {stroke-linecap:round; stroke-linejoin:round}
]]>
</style>
</defs>
<polyline points="620.88 90.00 620.88 130.00" fill="none" stroke="rgb(0,0,0)" stroke-width="2" />
<polyline points="620.88 210.00 620.88 250.00" fill="none" stroke="rgb(0,0,0)" stroke-width="2" />
<path fill="none" stroke="rgb(0,0,0)" stroke-width="2" d=" M 620.88 150.00 Q 620.88 150.00 621.86 149.90 Q 622.83 149.81 623.77 149.52 Q 624.71 149.24 625.57 148.78 Q 626.44 148.31 627.19 147.69 Q 627.95 147.07 628.57 146.31 Q 629.19 145.56 629.66 144.69 Q 630.12 143.83 630.40 142.89 Q 630.69 141.95 630.78 140.98 Q 630.88 140.00 630.78 139.02 Q 630.69 138.05 630.40 137.11 Q 630.12 136.17 629.66 135.31 Q 629.19 134.44 628.57 133.69 Q 627.95 132.93 627.19 132.31 Q 626.44 131.69 625.57 131.22 Q 624.71 130.76 623.77 130.48 Q 622.83 130.19 621.86 130.10 Q 620.88 130.00 620.88 130.00 L 620.88 130.00" />
<path fill="none" stroke="rgb(0,0,0)" stroke-width="2" d=" M 620.88 170.00 Q 620.88 170.00 621.86 169.90 Q 622.83 169.81 623.77 169.52 Q 624.71 169.24 625.57 168.78 Q 626.44 168.31 627.19 167.69 Q 627.95 167.07 628.57 166.31 Q 629.19 165.56 629.66 164.69 Q 630.12 163.83 630.40 162.89 Q 630.69 161.95 630.78 160.98 Q 630.88 160.00 630.78 159.02 Q 630.69 158.05 630.40 157.11 Q 630.12 156.17 629.66 155.31 Q 629.19 154.44 628.57 153.69 Q 627.95 152.93 627.19 152.31 Q 626.44 151.69 625.57 151.22 Q 624.71 150.76 623.77 150.48 Q 622.83 150.19 621.86 150.10 Q 620.88 150.00 620.88 150.00 L 620.88 150.00" />
<path fill="none" stroke="rgb(0,0,0)" stroke-width="2" d=" M 620.88 190.00 Q 620.88 190.00 621.86 189.90 Q 622.83 189.81 623.77 189.52 Q 624.71 189.24 625.57 188.78 Q 626.44 188.31 627.19 187.69 Q 627.95 187.07 628.57 186.31 Q 629.19 185.56 629.66 184.69 Q 630.12 183.83 630.40 182.89 Q 630.69 181.95 630.78 180.98 Q 630.88 180.00 630.78 179.02 Q 630.69 178.05 630.40 177.11 Q 630.12 176.17 629.66 175.31 Q 629.19 174.44 628.57 173.69 Q 627.95 172.93 627.19 172.31 Q 626.44 171.69 625.57 171.22 Q 624.71 170.76 623.77 170.48 Q 622.83 170.19 621.86 170.10 Q 620.88 170.00 620.88 170.00 L 620.88 170.00" />
<path fill="none" stroke="rgb(0,0,0)" stroke-width="2" d=" M 620.88 210.00 Q 620.88 210.00 621.86 209.90 Q 622.83 209.81 623.77 209.52 Q 624.71 209.24 625.57 208.78 Q 626.44 208.31 627.19 207.69 Q 627.95 207.07 628.57 206.31 Q 629.19 205.56 629.66 204.69 Q 630.12 203.83 630.40 202.89 Q 630.69 201.95 630.78 200.98 Q 630.88 200.00 630.78 199.02 Q 630.69 198.05 630.40 197.11 Q 630.12 196.17 629.66 195.31 Q 629.19 194.44 628.57 193.69 Q 627.95 192.93 627.19 192.31 Q 626.44 191.69 625.57 191.22 Q 624.71 190.76 623.77 190.48 Q 622.83 190.19 621.86 190.10 Q 620.88 190.00 620.88 190.00 L 620.88 190.00" />
<text x="640.88" y="139.00" font-family ="ARIAL" font-size ="17pt" font-weight="normal" font-style="normal" fill="rgb(0,0,0)" transform=" rotate(0.000) scale(1.000,1.000)">${inductance2}</text>
<path fill="rgb(0,0,0)" stroke="rgb(0,0,0)" stroke-width="2" style="stroke-linecap:square; stroke-linejoin:miter" d=" M 471 70 L 481 70 481 110 471 110 471 70" />
<polyline points="440.88 90.00 470.88 90.00" fill="none" stroke="rgb(0,0,0)" stroke-width="2" />
<polyline points="500.88 90.00 530.88 90.00" fill="none" stroke="rgb(0,0,0)" stroke-width="2" />
<path fill="rgb(0,0,0)" stroke="rgb(0,0,0)" stroke-width="2" style="stroke-linecap:square; stroke-linejoin:miter" d=" M 491 70 L 501 70 501 110 491 110 491 70" />
<text x="420.88" y="59.00" font-family ="ARIAL" font-size ="17pt" font-weight="normal" font-style="normal" fill="rgb(0,0,0)" transform=" rotate(0.000) scale(1.000,1.000)">${capacitance1}</text>
<path fill="rgb(0,0,0)" stroke="rgb(0,0,0)" stroke-width="2" style="stroke-linecap:square; stroke-linejoin:miter" d=" M 591 180 L 551 180 551 170 591 170 591 180" />
<polyline points="570.88 210.00 570.88 180.00" fill="none" stroke="rgb(0,0,0)" stroke-width="2" />
<polyline points="570.88 150.00 570.88 120.00" fill="none" stroke="rgb(0,0,0)" stroke-width="2" />
<path fill="rgb(0,0,0)" stroke="rgb(0,0,0)" stroke-width="2" style="stroke-linecap:square; stroke-linejoin:miter" d=" M 591 160 L 551 160 551 150 591 150 591 160" />
<text x="389.20" y="169.00" font-family ="ARIAL" font-size ="17pt" font-weight="normal" font-style="normal" fill="rgb(0,0,0)" transform=" rotate(0.000) scale(1.000,1.000)">${capacitance2}</text>
<polyline points="670.88 170.00 620.88 170.00" fill="none" stroke="rgb(0,0,0)" stroke-width="2" />
<text x="630.88" y="224.00" font-family ="Arial" font-size ="21pt" font-weight="normal" font-style="normal" fill="rgb(0,0,0)" transform=" rotate(0.000) scale(1.000,1.000)">${trans2}</text>
<circle cx="571" cy="250" r="6" fill="rgb(0,0,0)" stroke="none" stroke-width="2" />
<circle cx="571" cy="90" r="6" fill="rgb(0,0,0)" stroke="none" stroke-width="2" />
<polyline points="570.88 250.00 620.88 250.00" fill="none" stroke="rgb(0,0,0)" stroke-width="2" />
<polyline points="570.88 210.00 570.88 250.00" fill="none" stroke="rgb(0,0,0)" stroke-width="2" />
<polyline points="570.88 120.00 570.88 90.00 620.88 90.00" fill="none" stroke="rgb(0,0,0)" stroke-width="2" />
<polyline points="570.88 90.00 530.88 90.00" fill="none" stroke="rgb(0,0,0)" stroke-width="2" />
<polyline points="410.88 90.00 440.88 90.00" fill="none" stroke="rgb(0,0,0)" stroke-width="2" />
<path fill="rgb(0,0,0)" stroke="rgb(0,0,0)" stroke-width="2" style="stroke-linecap:square; stroke-linejoin:miter" d=" M 551 280 L 591 280 591 290 551 290 551 280" />
<polyline points="570.88 250.00 570.88 280.00" fill="none" stroke="rgb(0,0,0)" stroke-width="2" />
<polyline points="250.88 90.00 290.88 90.00" fill="none" stroke="rgb(0,0,0)" stroke-width="2" />
<polyline points="370.88 90.00 410.88 90.00" fill="none" stroke="rgb(0,0,0)" stroke-width="2" />
<path fill="none" stroke="rgb(0,0,0)" stroke-width="2" d=" M 310.88 90.00 Q 310.88 90.00 310.78 89.02 Q 310.69 88.05 310.40 87.11 Q 310.12 86.17 309.66 85.31 Q 309.19 84.44 308.57 83.69 Q 307.95 82.93 307.19 82.31 Q 306.44 81.69 305.57 81.22 Q 304.71 80.76 303.77 80.48 Q 302.83 80.19 301.86 80.10 Q 300.88 80.00 299.90 80.10 Q 298.93 80.19 297.99 80.48 Q 297.05 80.76 296.19 81.22 Q 295.32 81.69 294.57 82.31 Q 293.81 82.93 293.19 83.69 Q 292.57 84.44 292.10 85.31 Q 291.64 86.17 291.36 87.11 Q 291.07 88.05 290.98 89.02 Q 290.88 90.00 290.88 90.00 L 290.88 90.00" />
<path fill="none" stroke="rgb(0,0,0)" stroke-width="2" d=" M 330.88 90.00 Q 330.88 90.00 330.78 89.02 Q 330.69 88.05 330.40 87.11 Q 330.12 86.17 329.66 85.31 Q 329.19 84.44 328.57 83.69 Q 327.95 82.93 327.19 82.31 Q 326.44 81.69 325.57 81.22 Q 324.71 80.76 323.77 80.48 Q 322.83 80.19 321.86 80.10 Q 320.88 80.00 319.90 80.10 Q 318.93 80.19 317.99 80.48 Q 317.05 80.76 316.19 81.22 Q 315.32 81.69 314.57 82.31 Q 313.81 82.93 313.19 83.69 Q 312.57 84.44 312.10 85.31 Q 311.64 86.17 311.36 87.11 Q 311.07 88.05 310.98 89.02 Q 310.88 90.00 310.88 90.00 L 310.88 90.00" />
<path fill="none" stroke="rgb(0,0,0)" stroke-width="2" d=" M 350.88 90.00 Q 350.88 90.00 350.78 89.02 Q 350.69 88.05 350.40 87.11 Q 350.12 86.17 349.66 85.31 Q 349.19 84.44 348.57 83.69 Q 347.95 82.93 347.19 82.31 Q 346.44 81.69 345.57 81.22 Q 344.71 80.76 343.77 80.48 Q 342.83 80.19 341.86 80.10 Q 340.88 80.00 339.90 80.10 Q 338.93 80.19 337.99 80.48 Q 337.05 80.76 336.19 81.22 Q 335.32 81.69 334.57 82.31 Q 333.81 82.93 333.19 83.69 Q 332.57 84.44 332.10 85.31 Q 331.64 86.17 331.36 87.11 Q 331.07 88.05 330.98 89.02 Q 330.88 90.00 330.88 90.00 L 330.88 90.00" />
<path fill="none" stroke="rgb(0,0,0)" stroke-width="2" d=" M 370.88 90.00 Q 370.88 90.00 370.78 89.02 Q 370.69 88.05 370.40 87.11 Q 370.12 86.17 369.66 85.31 Q 369.19 84.44 368.57 83.69 Q 367.95 82.93 367.19 82.31 Q 366.44 81.69 365.57 81.22 Q 364.71 80.76 363.77 80.48 Q 362.83 80.19 361.86 80.10 Q 360.88 80.00 359.90 80.10 Q 358.93 80.19 357.99 80.48 Q 357.05 80.76 356.19 81.22 Q 355.32 81.69 354.57 82.31 Q 353.81 82.93 353.19 83.69 Q 352.57 84.44 352.10 85.31 Q 351.64 86.17 351.36 87.11 Q 351.07 88.05 350.98 89.02 Q 350.88 90.00 350.88 90.00 L 350.88 90.00" />
<text x="220.88" y="59.00" font-family ="ARIAL" font-size ="17pt" font-weight="normal" font-style="normal" fill="rgb(0,0,0)" transform=" rotate(0.000) scale(1.000,1.000)">${inductance1}</text>
<polyline points="200.88 90.00 200.88 130.00" fill="none" stroke="rgb(0,0,0)" stroke-width="2" />
<polyline points="200.88 210.00 200.88 250.00" fill="none" stroke="rgb(0,0,0)" stroke-width="2" />
<path fill="none" stroke="rgb(0,0,0)" stroke-width="2" d=" M 200.88 130.00 Q 200.88 130.00 199.90 130.10 Q 198.93 130.19 197.99 130.48 Q 197.05 130.76 196.19 131.22 Q 195.32 131.69 194.57 132.31 Q 193.81 132.93 193.19 133.69 Q 192.57 134.44 192.10 135.31 Q 191.64 136.17 191.36 137.11 Q 191.07 138.05 190.98 139.02 Q 190.88 140.00 190.98 140.98 Q 191.07 141.95 191.36 142.89 Q 191.64 143.83 192.10 144.69 Q 192.57 145.56 193.19 146.31 Q 193.81 147.07 194.57 147.69 Q 195.32 148.31 196.19 148.78 Q 197.05 149.24 197.99 149.52 Q 198.93 149.81 199.90 149.90 Q 200.88 150.00 200.88 150.00 L 200.88 150.00" />
<path fill="none" stroke="rgb(0,0,0)" stroke-width="2" d=" M 200.88 150.00 Q 200.88 150.00 199.90 150.10 Q 198.93 150.19 197.99 150.48 Q 197.05 150.76 196.19 151.22 Q 195.32 151.69 194.57 152.31 Q 193.81 152.93 193.19 153.69 Q 192.57 154.44 192.10 155.31 Q 191.64 156.17 191.36 157.11 Q 191.07 158.05 190.98 159.02 Q 190.88 160.00 190.98 160.98 Q 191.07 161.95 191.36 162.89 Q 191.64 163.83 192.10 164.69 Q 192.57 165.56 193.19 166.31 Q 193.81 167.07 194.57 167.69 Q 195.32 168.31 196.19 168.78 Q 197.05 169.24 197.99 169.52 Q 198.93 169.81 199.90 169.90 Q 200.88 170.00 200.88 170.00 L 200.88 170.00" />
<path fill="none" stroke="rgb(0,0,0)" stroke-width="2" d=" M 200.88 170.00 Q 200.88 170.00 199.90 170.10 Q 198.93 170.19 197.99 170.48 Q 197.05 170.76 196.19 171.22 Q 195.32 171.69 194.57 172.31 Q 193.81 172.93 193.19 173.69 Q 192.57 174.44 192.10 175.31 Q 191.64 176.17 191.36 177.11 Q 191.07 178.05 190.98 179.02 Q 190.88 180.00 190.98 180.98 Q 191.07 181.95 191.36 182.89 Q 191.64 183.83 192.10 184.69 Q 192.57 185.56 193.19 186.31 Q 193.81 187.07 194.57 187.69 Q 195.32 188.31 196.19 188.78 Q 197.05 189.24 197.99 189.52 Q 198.93 189.81 199.90 189.90 Q 200.88 190.00 200.88 190.00 L 200.88 190.00" />
<path fill="none" stroke="rgb(0,0,0)" stroke-width="2" d=" M 200.88 190.00 Q 200.88 190.00 199.90 190.10 Q 198.93 190.19 197.99 190.48 Q 197.05 190.76 196.19 191.22 Q 195.32 191.69 194.57 192.31 Q 193.81 192.93 193.19 193.69 Q 192.57 194.44 192.10 195.31 Q 191.64 196.17 191.36 197.11 Q 191.07 198.05 190.98 199.02 Q 190.88 200.00 190.98 200.98 Q 191.07 201.95 191.36 202.89 Q 191.64 203.83 192.10 204.69 Q 192.57 205.56 193.19 206.31 Q 193.81 207.07 194.57 207.69 Q 195.32 208.31 196.19 208.78 Q 197.05 209.24 197.99 209.52 Q 198.93 209.81 199.90 209.90 Q 200.88 210.00 200.88 210.00 L 200.88 210.00" />
<text x="40.00" y="139.00" font-family ="ARIAL" font-size ="17pt" font-weight="normal" font-style="normal" fill="rgb(0,0,0)" transform=" rotate(0.000) scale(1.000,1.000)">${inductance2}</text>
<path fill="rgb(0,0,0)" stroke="rgb(0,0,0)" stroke-width="2" style="stroke-linecap:square; stroke-linejoin:miter" d=" M 231 180 L 271 180 271 170 231 170 231 180" />
<polyline points="250.88 210.00 250.88 180.00" fill="none" stroke="rgb(0,0,0)" stroke-width="2" />
<polyline points="250.88 150.00 250.88 120.00" fill="none" stroke="rgb(0,0,0)" stroke-width="2" />
<path fill="rgb(0,0,0)" stroke="rgb(0,0,0)" stroke-width="2" style="stroke-linecap:square; stroke-linejoin:miter" d=" M 231 160 L 271 160 271 150 231 150 231 160" />
<text x="280.88" y="229.00" font-family ="ARIAL" font-size ="17pt" font-weight="normal" font-style="normal" fill="rgb(0,0,0)" transform=" rotate(0.000) scale(1.000,1.000)">${capacitance2}</text>
<polyline points="150.88 170.00 200.88 170.00" fill="none" stroke="rgb(0,0,0)" stroke-width="2" />
<text x="84.08" y="224.00" font-family ="Arial" font-size ="21pt" font-weight="normal" font-style="normal" fill="rgb(0,0,0)" transform=" rotate(0.000) scale(1.000,1.000)">${trans1}</text>
<circle cx="251" cy="250" r="6" fill="rgb(0,0,0)" stroke="none" stroke-width="2" />
<polyline points="250.88 250.00 200.88 250.00" fill="none" stroke="rgb(0,0,0)" stroke-width="2" />
<polyline points="250.88 210.00 250.88 250.00" fill="none" stroke="rgb(0,0,0)" stroke-width="2" />
<path fill="rgb(0,0,0)" stroke="rgb(0,0,0)" stroke-width="2" style="stroke-linecap:square; stroke-linejoin:miter" d=" M 271 280 L 231 280 231 290 271 290 271 280" />
<polyline points="250.88 250.00 250.88 280.00" fill="none" stroke="rgb(0,0,0)" stroke-width="2" />
<circle cx="251" cy="90" r="6" fill="rgb(0,0,0)" stroke="none" stroke-width="2" />
<polyline points="250.88 120.00 250.88 90.00 200.88 90.00" fill="none" stroke="rgb(0,0,0)" stroke-width="2" />
</svg>
