<?xml version="1.0" encoding="utf-8"?>
<!-- Created with "sPlan" (http://www.abacom-online.de) -->
<svg version="1.1" baseProfile="full"
xmlns="http://www.w3.org/2000/svg"
width="611" height="330">
<title>aaa</title>
<defs>
<style type="text/css">
<![CDATA[
polyline {stroke-linecap:round; stroke-linejoin:round}
polygon {stroke-linecap:round; stroke-linejoin:round}
path {stroke-linecap:round; stroke-linejoin:round}
circle {stroke-linecap:round; stroke-linejoin:round}
]]>
</style>
</defs>
<polyline points="410.00 90.00 410.00 130.00" fill="none" stroke="rgb(0,0,0)" stroke-width="2" />
<polyline points="410.00 210.00 410.00 250.00" fill="none" stroke="rgb(0,0,0)" stroke-width="2" />
<path fill="none" stroke="rgb(0,0,0)" stroke-width="2" d=" M 410.00 150.00 Q 410.00 150.00 410.98 149.90 Q 411.95 149.81 412.89 149.52 Q 413.83 149.24 414.69 148.78 Q 415.56 148.31 416.31 147.69 Q 417.07 147.07 417.69 146.31 Q 418.31 145.56 418.78 144.69 Q 419.24 143.83 419.52 142.89 Q 419.81 141.95 419.90 140.98 Q 420.00 140.00 419.90 139.02 Q 419.81 138.05 419.52 137.11 Q 419.24 136.17 418.78 135.31 Q 418.31 134.44 417.69 133.69 Q 417.07 132.93 416.31 132.31 Q 415.56 131.69 414.69 131.22 Q 413.83 130.76 412.89 130.48 Q 411.95 130.19 410.98 130.10 Q 410.00 130.00 410.00 130.00 L 410.00 130.00" />
<path fill="none" stroke="rgb(0,0,0)" stroke-width="2" d=" M 410.00 170.00 Q 410.00 170.00 410.98 169.90 Q 411.95 169.81 412.89 169.52 Q 413.83 169.24 414.69 168.78 Q 415.56 168.31 416.31 167.69 Q 417.07 167.07 417.69 166.31 Q 418.31 165.56 418.78 164.69 Q 419.24 163.83 419.52 162.89 Q 419.81 161.95 419.90 160.98 Q 420.00 160.00 419.90 159.02 Q 419.81 158.05 419.52 157.11 Q 419.24 156.17 418.78 155.31 Q 418.31 154.44 417.69 153.69 Q 417.07 152.93 416.31 152.31 Q 415.56 151.69 414.69 151.22 Q 413.83 150.76 412.89 150.48 Q 411.95 150.19 410.98 150.10 Q 410.00 150.00 410.00 150.00 L 410.00 150.00" />
<path fill="none" stroke="rgb(0,0,0)" stroke-width="2" d=" M 410.00 190.00 Q 410.00 190.00 410.98 189.90 Q 411.95 189.81 412.89 189.52 Q 413.83 189.24 414.69 188.78 Q 415.56 188.31 416.31 187.69 Q 417.07 187.07 417.69 186.31 Q 418.31 185.56 418.78 184.69 Q 419.24 183.83 419.52 182.89 Q 419.81 181.95 419.90 180.98 Q 420.00 180.00 419.90 179.02 Q 419.81 178.05 419.52 177.11 Q 419.24 176.17 418.78 175.31 Q 418.31 174.44 417.69 173.69 Q 417.07 172.93 416.31 172.31 Q 415.56 171.69 414.69 171.22 Q 413.83 170.76 412.89 170.48 Q 411.95 170.19 410.98 170.10 Q 410.00 170.00 410.00 170.00 L 410.00 170.00" />
<path fill="none" stroke="rgb(0,0,0)" stroke-width="2" d=" M 410.00 210.00 Q 410.00 210.00 410.98 209.90 Q 411.95 209.81 412.89 209.52 Q 413.83 209.24 414.69 208.78 Q 415.56 208.31 416.31 207.69 Q 417.07 207.07 417.69 206.31 Q 418.31 205.56 418.78 204.69 Q 419.24 203.83 419.52 202.89 Q 419.81 201.95 419.90 200.98 Q 420.00 200.00 419.90 199.02 Q 419.81 198.05 419.52 197.11 Q 419.24 196.17 418.78 195.31 Q 418.31 194.44 417.69 193.69 Q 417.07 192.93 416.31 192.31 Q 415.56 191.69 414.69 191.22 Q 413.83 190.76 412.89 190.48 Q 411.95 190.19 410.98 190.10 Q 410.00 190.00 410.00 190.00 L 410.00 190.00" />
<path fill="rgb(0,0,0)" stroke="rgb(0,0,0)" stroke-width="2" style="stroke-linecap:square; stroke-linejoin:miter" d=" M 260 70 L 270 70 270 110 260 110 260 70" />
<polyline points="230.00 90.00 260.00 90.00" fill="none" stroke="rgb(0,0,0)" stroke-width="2" />
<polyline points="290.00 90.00 320.00 90.00" fill="none" stroke="rgb(0,0,0)" stroke-width="2" />
<path fill="rgb(0,0,0)" stroke="rgb(0,0,0)" stroke-width="2" style="stroke-linecap:square; stroke-linejoin:miter" d=" M 280 70 L 290 70 290 110 280 110 280 70" />
<path fill="rgb(0,0,0)" stroke="rgb(0,0,0)" stroke-width="2" style="stroke-linecap:square; stroke-linejoin:miter" d=" M 380 180 L 340 180 340 170 380 170 380 180" />
<polyline points="360.00 210.00 360.00 180.00" fill="none" stroke="rgb(0,0,0)" stroke-width="2" />
<polyline points="360.00 150.00 360.00 120.00" fill="none" stroke="rgb(0,0,0)" stroke-width="2" />
<path fill="rgb(0,0,0)" stroke="rgb(0,0,0)" stroke-width="2" style="stroke-linecap:square; stroke-linejoin:miter" d=" M 380 160 L 340 160 340 150 380 150 380 160" />
<polyline points="460.00 170.00 410.00 170.00" fill="none" stroke="rgb(0,0,0)" stroke-width="2" />
<circle cx="360" cy="250" r="6" fill="rgb(0,0,0)" stroke="none" stroke-width="2" />
<circle cx="360" cy="90" r="6" fill="rgb(0,0,0)" stroke="none" stroke-width="2" />
<polyline points="360.00 250.00 410.00 250.00" fill="none" stroke="rgb(0,0,0)" stroke-width="2" />
<polyline points="360.00 210.00 360.00 250.00" fill="none" stroke="rgb(0,0,0)" stroke-width="2" />
<polyline points="360.00 120.00 360.00 90.00 410.00 90.00" fill="none" stroke="rgb(0,0,0)" stroke-width="2" />
<polyline points="360.00 90.00 320.00 90.00" fill="none" stroke="rgb(0,0,0)" stroke-width="2" />
<polyline points="200.00 90.00 230.00 90.00" fill="none" stroke="rgb(0,0,0)" stroke-width="2" />
<path fill="rgb(0,0,0)" stroke="rgb(0,0,0)" stroke-width="2" style="stroke-linecap:square; stroke-linejoin:miter" d=" M 340 280 L 380 280 380 290 340 290 340 280" />
<polyline points="360.00 250.00 360.00 280.00" fill="none" stroke="rgb(0,0,0)" stroke-width="2" />
<polyline points="40.00 90.00 80.00 90.00" fill="none" stroke="rgb(0,0,0)" stroke-width="2" />
<polyline points="160.00 90.00 200.00 90.00" fill="none" stroke="rgb(0,0,0)" stroke-width="2" />
<path fill="none" stroke="rgb(0,0,0)" stroke-width="2" d=" M 100.00 90.00 Q 100.00 90.00 99.90 89.02 Q 99.81 88.05 99.52 87.11 Q 99.24 86.17 98.78 85.31 Q 98.31 84.44 97.69 83.69 Q 97.07 82.93 96.31 82.31 Q 95.56 81.69 94.69 81.22 Q 93.83 80.76 92.89 80.48 Q 91.95 80.19 90.98 80.10 Q 90.00 80.00 89.02 80.10 Q 88.05 80.19 87.11 80.48 Q 86.17 80.76 85.31 81.22 Q 84.44 81.69 83.69 82.31 Q 82.93 82.93 82.31 83.69 Q 81.69 84.44 81.22 85.31 Q 80.76 86.17 80.48 87.11 Q 80.19 88.05 80.10 89.02 Q 80.00 90.00 80.00 90.00 L 80.00 90.00" />
<path fill="none" stroke="rgb(0,0,0)" stroke-width="2" d=" M 120.00 90.00 Q 120.00 90.00 119.90 89.02 Q 119.81 88.05 119.52 87.11 Q 119.24 86.17 118.78 85.31 Q 118.31 84.44 117.69 83.69 Q 117.07 82.93 116.31 82.31 Q 115.56 81.69 114.69 81.22 Q 113.83 80.76 112.89 80.48 Q 111.95 80.19 110.98 80.10 Q 110.00 80.00 109.02 80.10 Q 108.05 80.19 107.11 80.48 Q 106.17 80.76 105.31 81.22 Q 104.44 81.69 103.69 82.31 Q 102.93 82.93 102.31 83.69 Q 101.69 84.44 101.22 85.31 Q 100.76 86.17 100.48 87.11 Q 100.19 88.05 100.10 89.02 Q 100.00 90.00 100.00 90.00 L 100.00 90.00" />
<path fill="none" stroke="rgb(0,0,0)" stroke-width="2" d=" M 140.00 90.00 Q 140.00 90.00 139.90 89.02 Q 139.81 88.05 139.52 87.11 Q 139.24 86.17 138.78 85.31 Q 138.31 84.44 137.69 83.69 Q 137.07 82.93 136.31 82.31 Q 135.56 81.69 134.69 81.22 Q 133.83 80.76 132.89 80.48 Q 131.95 80.19 130.98 80.10 Q 130.00 80.00 129.02 80.10 Q 128.05 80.19 127.11 80.48 Q 126.17 80.76 125.31 81.22 Q 124.44 81.69 123.69 82.31 Q 122.93 82.93 122.31 83.69 Q 121.69 84.44 121.22 85.31 Q 120.76 86.17 120.48 87.11 Q 120.19 88.05 120.10 89.02 Q 120.00 90.00 120.00 90.00 L 120.00 90.00" />
<path fill="none" stroke="rgb(0,0,0)" stroke-width="2" d=" M 160.00 90.00 Q 160.00 90.00 159.90 89.02 Q 159.81 88.05 159.52 87.11 Q 159.24 86.17 158.78 85.31 Q 158.31 84.44 157.69 83.69 Q 157.07 82.93 156.31 82.31 Q 155.56 81.69 154.69 81.22 Q 153.83 80.76 152.89 80.48 Q 151.95 80.19 150.98 80.10 Q 150.00 80.00 149.02 80.10 Q 148.05 80.19 147.11 80.48 Q 146.17 80.76 145.31 81.22 Q 144.44 81.69 143.69 82.31 Q 142.93 82.93 142.31 83.69 Q 141.69 84.44 141.22 85.31 Q 140.76 86.17 140.48 87.11 Q 140.19 88.05 140.10 89.02 Q 140.00 90.00 140.00 90.00 L 140.00 90.00" />
<text x="210.00" y="59.00" font-family ="ARIAL" font-size ="17pt" font-weight="normal" font-style="normal" fill="rgb(0,0,0)" transform=" rotate(0.000) scale(1.000,1.000)">${capacitance1}</text>
<text x="430.00" y="139.00" font-family ="ARIAL" font-size ="17pt" font-weight="normal" font-style="normal" fill="rgb(0,0,0)" transform=" rotate(0.000) scale(1.000,1.000)">${capacitance2}</text>
<text x="198.32" y="209.00" font-family ="ARIAL" font-size ="17pt" font-weight="normal" font-style="normal" fill="rgb(0,0,0)" transform=" rotate(0.000) scale(1.000,1.000)">${inductance2}</text>
<text x="420.00" y="224.00" font-family ="ARIAL" font-size ="21pt" font-weight="normal" font-style="normal" fill="rgb(0,0,0)" transform=" rotate(0.000) scale(1.000,1.000)">${trans2}</text>
<text x="70.00" y="119.00" font-family ="ARIAL" font-size ="17pt" font-weight="normal" font-style="normal" fill="rgb(0,0,0)" transform=" rotate(0.000) scale(1.000,1.000)">${inductance1}</text>
</svg>
