<?xml version="1.0" encoding="utf-8"?>
<!-- Created with "sPlan" (http://www.abacom-online.de) -->
<svg version="1.1" baseProfile="full" xmlns="http://www.w3.org/2000/svg" width="662" height="330">
<title>zzz</title>
<defs>
<style type="text/css">
<![CDATA[
polyline {stroke-linecap:round; stroke-linejoin:round}
polygon {stroke-linecap:round; stroke-linejoin:round}
path {stroke-linecap:round; stroke-linejoin:round}
circle {stroke-linecap:round; stroke-linejoin:round}
]]>
</style>
</defs>
<polyline points="190.88 90.00 190.88 130.00" fill="none" stroke="rgb(0,0,0)" stroke-width="2" />
<polyline points="190.88 210.00 190.88 250.00" fill="none" stroke="rgb(0,0,0)" stroke-width="2" />
<path fill="none" stroke="rgb(0,0,0)" stroke-width="2" d=" M 190.88 130.00 Q 190.88 130.00 189.90 130.10 Q 188.93 130.19 187.99 130.48 Q 187.05 130.76 186.19 131.22 Q 185.32 131.69 184.57 132.31 Q 183.81 132.93 183.19 133.69 Q 182.57 134.44 182.10 135.31 Q 181.64 136.17 181.36 137.11 Q 181.07 138.05 180.98 139.02 Q 180.88 140.00 180.98 140.98 Q 181.07 141.95 181.36 142.89 Q 181.64 143.83 182.10 144.69 Q 182.57 145.56 183.19 146.31 Q 183.81 147.07 184.57 147.69 Q 185.32 148.31 186.19 148.78 Q 187.05 149.24 187.99 149.52 Q 188.93 149.81 189.90 149.90 Q 190.88 150.00 190.88 150.00 L 190.88 150.00" />
<path fill="none" stroke="rgb(0,0,0)" stroke-width="2" d=" M 190.88 150.00 Q 190.88 150.00 189.90 150.10 Q 188.93 150.19 187.99 150.48 Q 187.05 150.76 186.19 151.22 Q 185.32 151.69 184.57 152.31 Q 183.81 152.93 183.19 153.69 Q 182.57 154.44 182.10 155.31 Q 181.64 156.17 181.36 157.11 Q 181.07 158.05 180.98 159.02 Q 180.88 160.00 180.98 160.98 Q 181.07 161.95 181.36 162.89 Q 181.64 163.83 182.10 164.69 Q 182.57 165.56 183.19 166.31 Q 183.81 167.07 184.57 167.69 Q 185.32 168.31 186.19 168.78 Q 187.05 169.24 187.99 169.52 Q 188.93 169.81 189.90 169.90 Q 190.88 170.00 190.88 170.00 L 190.88 170.00" />
<path fill="none" stroke="rgb(0,0,0)" stroke-width="2" d=" M 190.88 170.00 Q 190.88 170.00 189.90 170.10 Q 188.93 170.19 187.99 170.48 Q 187.05 170.76 186.19 171.22 Q 185.32 171.69 184.57 172.31 Q 183.81 172.93 183.19 173.69 Q 182.57 174.44 182.10 175.31 Q 181.64 176.17 181.36 177.11 Q 181.07 178.05 180.98 179.02 Q 180.88 180.00 180.98 180.98 Q 181.07 181.95 181.36 182.89 Q 181.64 183.83 182.10 184.69 Q 182.57 185.56 183.19 186.31 Q 183.81 187.07 184.57 187.69 Q 185.32 188.31 186.19 188.78 Q 187.05 189.24 187.99 189.52 Q 188.93 189.81 189.90 189.90 Q 190.88 190.00 190.88 190.00 L 190.88 190.00" />
<path fill="none" stroke="rgb(0,0,0)" stroke-width="2" d=" M 190.88 190.00 Q 190.88 190.00 189.90 190.10 Q 188.93 190.19 187.99 190.48 Q 187.05 190.76 186.19 191.22 Q 185.32 191.69 184.57 192.31 Q 183.81 192.93 183.19 193.69 Q 182.57 194.44 182.10 195.31 Q 181.64 196.17 181.36 197.11 Q 181.07 198.05 180.98 199.02 Q 180.88 200.00 180.98 200.98 Q 181.07 201.95 181.36 202.89 Q 181.64 203.83 182.10 204.69 Q 182.57 205.56 183.19 206.31 Q 183.81 207.07 184.57 207.69 Q 185.32 208.31 186.19 208.78 Q 187.05 209.24 187.99 209.52 Q 188.93 209.81 189.90 209.90 Q 190.88 210.00 190.88 210.00 L 190.88 210.00" />
<text x="40.00" y="129.00" font-family ="ARIAL" font-size ="17pt" font-weight="normal" font-style="normal" fill="rgb(0,0,0)" transform=" rotate(0.000) scale(1.000,1.000)">${inductance1}</text>
<polyline points="460.88 90.00 460.88 130.00" fill="none" stroke="rgb(0,0,0)" stroke-width="2" />
<polyline points="460.88 210.00 460.88 250.00" fill="none" stroke="rgb(0,0,0)" stroke-width="2" />
<path fill="none" stroke="rgb(0,0,0)" stroke-width="2" d=" M 460.88 150.00 Q 460.88 150.00 461.86 149.90 Q 462.83 149.81 463.77 149.52 Q 464.71 149.24 465.57 148.78 Q 466.44 148.31 467.19 147.69 Q 467.95 147.07 468.57 146.31 Q 469.19 145.56 469.66 144.69 Q 470.12 143.83 470.40 142.89 Q 470.69 141.95 470.78 140.98 Q 470.88 140.00 470.78 139.02 Q 470.69 138.05 470.40 137.11 Q 470.12 136.17 469.66 135.31 Q 469.19 134.44 468.57 133.69 Q 467.95 132.93 467.19 132.31 Q 466.44 131.69 465.57 131.22 Q 464.71 130.76 463.77 130.48 Q 462.83 130.19 461.86 130.10 Q 460.88 130.00 460.88 130.00 L 460.88 130.00" />
<path fill="none" stroke="rgb(0,0,0)" stroke-width="2" d=" M 460.88 170.00 Q 460.88 170.00 461.86 169.90 Q 462.83 169.81 463.77 169.52 Q 464.71 169.24 465.57 168.78 Q 466.44 168.31 467.19 167.69 Q 467.95 167.07 468.57 166.31 Q 469.19 165.56 469.66 164.69 Q 470.12 163.83 470.40 162.89 Q 470.69 161.95 470.78 160.98 Q 470.88 160.00 470.78 159.02 Q 470.69 158.05 470.40 157.11 Q 470.12 156.17 469.66 155.31 Q 469.19 154.44 468.57 153.69 Q 467.95 152.93 467.19 152.31 Q 466.44 151.69 465.57 151.22 Q 464.71 150.76 463.77 150.48 Q 462.83 150.19 461.86 150.10 Q 460.88 150.00 460.88 150.00 L 460.88 150.00" />
<path fill="none" stroke="rgb(0,0,0)" stroke-width="2" d=" M 460.88 190.00 Q 460.88 190.00 461.86 189.90 Q 462.83 189.81 463.77 189.52 Q 464.71 189.24 465.57 188.78 Q 466.44 188.31 467.19 187.69 Q 467.95 187.07 468.57 186.31 Q 469.19 185.56 469.66 184.69 Q 470.12 183.83 470.40 182.89 Q 470.69 181.95 470.78 180.98 Q 470.88 180.00 470.78 179.02 Q 470.69 178.05 470.40 177.11 Q 470.12 176.17 469.66 175.31 Q 469.19 174.44 468.57 173.69 Q 467.95 172.93 467.19 172.31 Q 466.44 171.69 465.57 171.22 Q 464.71 170.76 463.77 170.48 Q 462.83 170.19 461.86 170.10 Q 460.88 170.00 460.88 170.00 L 460.88 170.00" />
<path fill="none" stroke="rgb(0,0,0)" stroke-width="2" d=" M 460.88 210.00 Q 460.88 210.00 461.86 209.90 Q 462.83 209.81 463.77 209.52 Q 464.71 209.24 465.57 208.78 Q 466.44 208.31 467.19 207.69 Q 467.95 207.07 468.57 206.31 Q 469.19 205.56 469.66 204.69 Q 470.12 203.83 470.40 202.89 Q 470.69 201.95 470.78 200.98 Q 470.88 200.00 470.78 199.02 Q 470.69 198.05 470.40 197.11 Q 470.12 196.17 469.66 195.31 Q 469.19 194.44 468.57 193.69 Q 467.95 192.93 467.19 192.31 Q 466.44 191.69 465.57 191.22 Q 464.71 190.76 463.77 190.48 Q 462.83 190.19 461.86 190.10 Q 460.88 190.00 460.88 190.00 L 460.88 190.00" />
<text x="480.88" y="139.00" font-family ="ARIAL" font-size ="17pt" font-weight="normal" font-style="normal" fill="rgb(0,0,0)" transform=" rotate(0.000) scale(1.000,1.000)">${inductance1}</text>
<path fill="rgb(0,0,0)" stroke="rgb(0,0,0)" stroke-width="2" style="stroke-linecap:square; stroke-linejoin:miter" d=" M 311 70 L 321 70 321 110 311 110 311 70" />
<polyline points="280.88 90.00 310.88 90.00" fill="none" stroke="rgb(0,0,0)" stroke-width="2" />
<polyline points="340.88 90.00 370.88 90.00" fill="none" stroke="rgb(0,0,0)" stroke-width="2" />
<path fill="rgb(0,0,0)" stroke="rgb(0,0,0)" stroke-width="2" style="stroke-linecap:square; stroke-linejoin:miter" d=" M 331 70 L 341 70 341 110 331 110 331 70" />
<text x="260.88" y="59.00" font-family ="ARIAL" font-size ="17pt" font-weight="normal" font-style="normal" fill="rgb(0,0,0)" transform=" rotate(0.000) scale(1.000,1.000)">${capacitance3}</text>
<path fill="rgb(0,0,0)" stroke="rgb(0,0,0)" stroke-width="2" style="stroke-linecap:square; stroke-linejoin:miter" d=" M 231 150 L 271 150 271 160 231 160 231 150" />
<polyline points="250.88 120.00 250.88 150.00" fill="none" stroke="rgb(0,0,0)" stroke-width="2" />
<polyline points="250.88 180.00 250.88 210.00" fill="none" stroke="rgb(0,0,0)" stroke-width="2" />
<path fill="rgb(0,0,0)" stroke="rgb(0,0,0)" stroke-width="2" style="stroke-linecap:square; stroke-linejoin:miter" d=" M 231 170 L 271 170 271 180 231 180 231 170" />
<text x="255.88" y="204.00" font-family ="ARIAL" font-size ="17pt" font-weight="normal" font-style="normal" fill="rgb(0,0,0)" transform=" rotate(0.000) scale(1.000,1.000)">${capacitance1}</text>
<path fill="rgb(0,0,0)" stroke="rgb(0,0,0)" stroke-width="2" style="stroke-linecap:square; stroke-linejoin:miter" d=" M 431 180 L 391 180 391 170 431 170 431 180" />
<polyline points="410.88 210.00 410.88 180.00" fill="none" stroke="rgb(0,0,0)" stroke-width="2" />
<polyline points="410.88 150.00 410.88 120.00" fill="none" stroke="rgb(0,0,0)" stroke-width="2" />
<path fill="rgb(0,0,0)" stroke="rgb(0,0,0)" stroke-width="2" style="stroke-linecap:square; stroke-linejoin:miter" d=" M 431 160 L 391 160 391 150 431 150 431 160" />
<text x="254.20" y="140.00" font-family ="ARIAL" font-size ="17pt" font-weight="normal" font-style="normal" fill="rgb(0,0,0)" transform=" rotate(0.000) scale(1.000,1.000)">${capacitance1}</text>
<polyline points="190.88 170.00 130.88 170.00" fill="none" stroke="rgb(0,0,0)" stroke-width="2" />
<polyline points="510.88 170.00 460.88 170.00" fill="none" stroke="rgb(0,0,0)" stroke-width="2" />
<text x="70.88" y="224.00" font-family ="Arial" font-size ="21pt" font-weight="normal" font-style="normal" fill="rgb(0,0,0)" transform=" rotate(0.000) scale(1.000,1.000)">${trans1}</text>
<text x="470.88" y="224.00" font-family ="Arial" font-size ="21pt" font-weight="normal" font-style="normal" fill="rgb(0,0,0)" transform=" rotate(0.000) scale(1.000,1.000)">${trans2}</text>
<circle cx="321" cy="250" r="6" fill="rgb(0,0,0)" stroke="none" stroke-width="2" />
<circle cx="251" cy="250" r="6" fill="rgb(0,0,0)" stroke="none" stroke-width="2" />
<circle cx="411" cy="250" r="6" fill="rgb(0,0,0)" stroke="none" stroke-width="2" />
<circle cx="411" cy="90" r="6" fill="rgb(0,0,0)" stroke="none" stroke-width="2" />
<circle cx="251" cy="90" r="6" fill="rgb(0,0,0)" stroke="none" stroke-width="2" />
<polyline points="190.88 90.00 250.88 90.00 250.88 120.00" fill="none" stroke="rgb(0,0,0)" stroke-width="2" />
<polyline points="190.88 250.00 460.88 250.00" fill="none" stroke="rgb(0,0,0)" stroke-width="2" />
<polyline points="250.88 210.00 250.88 250.00" fill="none" stroke="rgb(0,0,0)" stroke-width="2" />
<polyline points="410.88 210.00 410.88 250.00" fill="none" stroke="rgb(0,0,0)" stroke-width="2" />
<polyline points="410.88 120.00 410.88 90.00 460.88 90.00" fill="none" stroke="rgb(0,0,0)" stroke-width="2" />
<polyline points="410.88 90.00 370.88 90.00" fill="none" stroke="rgb(0,0,0)" stroke-width="2" />
<polyline points="250.88 90.00 280.88 90.00" fill="none" stroke="rgb(0,0,0)" stroke-width="2" />
<path fill="rgb(0,0,0)" stroke="rgb(0,0,0)" stroke-width="2" style="stroke-linecap:square; stroke-linejoin:miter" d=" M 301 280 L 341 280 341 290 301 290 301 280" />
<polyline points="320.88 250.00 320.88 280.00" fill="none" stroke="rgb(0,0,0)" stroke-width="2" />
</svg>
