<?xml version="1.0" encoding="utf-8"?>
<!-- Created with "sPlan" (http://www.abacom-online.de) -->
<svg version="1.1" baseProfile="full"
xmlns="http://www.w3.org/2000/svg"
width="670" height="500">
<title>z</title>
<defs>
<style type="text/css">
<![CDATA[
polyline {stroke-linecap:round; stroke-linejoin:round}
polygon {stroke-linecap:round; stroke-linejoin:round}
path {stroke-linecap:round; stroke-linejoin:round}
circle {stroke-linecap:round; stroke-linejoin:round}
]]>
</style>
</defs>
<polyline points="195.79 210.90 311.66 210.90" fill="none" stroke="rgb(0,0,0)" stroke-width="2" />
<polyline points="195.79 199.31 311.66 199.31" fill="none" stroke="rgb(0,0,0)" stroke-width="2" />
<path fill="none" stroke="rgb(0,0,0)" stroke-width="2" d=" M 311.66 210.90 Q 311.66 210.90 312.22 210.84 Q 312.79 210.79 313.33 210.62 Q 313.87 210.46 314.37 210.19 Q 314.87 209.92 315.31 209.56 Q 315.75 209.20 316.11 208.76 Q 316.47 208.32 316.74 207.82 Q 317.01 207.32 317.17 206.78 Q 317.34 206.23 317.39 205.67 Q 317.45 205.10 317.39 204.54 Q 317.34 203.97 317.17 203.43 Q 317.01 202.89 316.74 202.39 Q 316.47 201.88 316.11 201.45 Q 315.75 201.01 315.31 200.65 Q 314.87 200.29 314.37 200.02 Q 313.87 199.75 313.33 199.59 Q 312.79 199.42 312.22 199.37 Q 311.66 199.31 311.66 199.31 L 311.66 199.30" />
<path fill="none" stroke="rgb(0,0,0)" stroke-width="2" d=" M 195.79 199.30 Q 195.79 199.31 195.23 199.37 Q 194.66 199.42 194.12 199.59 Q 193.58 199.75 193.08 200.02 Q 192.57 200.29 192.14 200.65 Q 191.70 201.01 191.34 201.45 Q 190.98 201.88 190.71 202.39 Q 190.44 202.89 190.28 203.43 Q 190.11 203.97 190.06 204.54 Q 190.00 205.10 190.06 205.67 Q 190.11 206.23 190.28 206.78 Q 190.44 207.32 190.71 207.82 Q 190.98 208.32 191.34 208.76 Q 191.70 209.20 192.14 209.56 Q 192.57 209.92 193.08 210.19 Q 193.58 210.46 194.12 210.62 Q 194.66 210.79 195.23 210.84 Q 195.79 210.90 195.79 210.90 L 195.79 210.90" />
<path fill="none" stroke="rgb(0,0,0)" stroke-width="2" d=" M 336.91 245.60 Q 343.73 247.72 344.92 247.81 L 346.11 247.90" />
<path fill="none" stroke="rgb(0,0,0)" stroke-width="2" d=" M 280.21 343.10 Q 292.35 349.61 307.02 354.06 Q 321.69 358.51 334.05 359.71 L 346.41 360.90" />
<polyline points="210.25 128.99 310.59 186.92" fill="none" stroke="rgb(0,0,0)" stroke-width="2" />
<polyline points="216.04 118.95 316.38 176.89" fill="none" stroke="rgb(0,0,0)" stroke-width="2" />
<path fill="none" stroke="rgb(0,0,0)" stroke-width="2" d=" M 310.58 186.90 Q 310.59 186.92 311.10 187.15 Q 311.62 187.39 312.17 187.52 Q 312.73 187.65 313.29 187.66 Q 313.86 187.68 314.42 187.59 Q 314.98 187.50 315.51 187.30 Q 316.05 187.10 316.53 186.80 Q 317.01 186.50 317.42 186.11 Q 317.84 185.72 318.17 185.26 Q 318.50 184.80 318.73 184.28 Q 318.97 183.76 319.10 183.21 Q 319.23 182.66 319.25 182.09 Q 319.26 181.52 319.17 180.96 Q 319.08 180.40 318.88 179.87 Q 318.68 179.34 318.38 178.86 Q 318.08 178.38 317.69 177.96 Q 317.30 177.55 316.84 177.22 L 316.38 176.90" />
<path fill="none" stroke="rgb(0,0,0)" stroke-width="2" d=" M 216.04 118.97 Q 216.04 118.95 215.52 118.72 Q 215.01 118.49 214.45 118.36 Q 213.90 118.23 213.33 118.21 Q 212.76 118.19 212.20 118.28 Q 211.64 118.38 211.11 118.58 Q 210.58 118.78 210.10 119.08 Q 209.62 119.38 209.20 119.76 Q 208.79 120.15 208.46 120.61 Q 208.13 121.07 207.89 121.59 Q 207.66 122.11 207.53 122.66 Q 207.40 123.21 207.38 123.78 Q 207.36 124.35 207.46 124.91 Q 207.55 125.47 207.75 126.00 Q 207.95 126.53 208.25 127.02 Q 208.55 127.50 208.94 127.91 Q 209.32 128.33 209.78 128.65 L 210.24 128.97" />
<polyline points="266.06 68.94 323.99 169.28" fill="none" stroke="rgb(0,0,0)" stroke-width="2" />
<polyline points="276.09 63.14 334.02 163.48" fill="none" stroke="rgb(0,0,0)" stroke-width="2" />
<path fill="none" stroke="rgb(0,0,0)" stroke-width="2" d=" M 324.01 169.28 Q 324.65 170.20 325.06 170.59 Q 325.48 170.98 325.96 171.28 Q 326.44 171.58 326.97 171.78 Q 327.51 171.98 328.07 172.07 Q 328.63 172.16 329.19 172.14 Q 329.76 172.12 330.31 171.99 Q 330.87 171.87 331.38 171.63 Q 331.90 171.40 332.36 171.07 Q 332.83 170.74 333.21 170.32 Q 333.60 169.91 333.90 169.42 Q 334.20 168.94 334.40 168.41 Q 334.60 167.88 334.69 167.32 Q 334.79 166.76 334.77 166.19 Q 334.75 165.62 334.62 165.07 Q 334.49 164.52 334.26 164.00 Q 334.02 163.48 334.01 163.48 L 334.01 163.48" />
<path fill="none" stroke="rgb(0,0,0)" stroke-width="2" d=" M 276.07 63.14 Q 275.43 62.22 275.02 61.83 Q 274.60 61.44 274.12 61.14 Q 273.64 60.84 273.11 60.64 Q 272.57 60.44 272.01 60.35 Q 271.45 60.26 270.89 60.28 Q 270.32 60.30 269.77 60.43 Q 269.21 60.55 268.70 60.79 Q 268.18 61.02 267.72 61.35 Q 267.25 61.68 266.87 62.10 Q 266.48 62.51 266.18 63.00 Q 265.88 63.48 265.68 64.01 Q 265.48 64.54 265.39 65.10 Q 265.29 65.66 265.31 66.23 Q 265.33 66.80 265.46 67.35 Q 265.59 67.90 265.82 68.42 Q 266.06 68.94 266.07 68.94 L 266.07 68.94" />
<polyline points="346.41 45.79 346.41 161.66" fill="none" stroke="rgb(0,0,0)" stroke-width="2" />
<polyline points="358.00 45.79 358.00 161.66" fill="none" stroke="rgb(0,0,0)" stroke-width="2" />
<path fill="none" stroke="rgb(0,0,0)" stroke-width="2" d=" M 346.41 161.66 Q 346.41 161.66 346.47 162.22 Q 346.53 162.79 346.69 163.33 Q 346.85 163.87 347.12 164.37 Q 347.39 164.87 347.75 165.31 Q 348.11 165.75 348.55 166.11 Q 348.99 166.47 349.49 166.74 Q 349.99 167.01 350.53 167.17 Q 351.08 167.34 351.64 167.39 Q 352.21 167.45 352.77 167.39 Q 353.34 167.34 353.88 167.17 Q 354.42 167.01 354.92 166.74 Q 355.43 166.47 355.86 166.11 Q 356.30 165.75 356.66 165.31 Q 357.02 164.87 357.29 164.37 Q 357.56 163.87 357.72 163.33 Q 357.89 162.79 357.94 162.22 Q 358.00 161.66 358.00 161.66 L 358.01 161.66" />
<path fill="none" stroke="rgb(0,0,0)" stroke-width="2" d=" M 358.01 45.79 Q 357.89 44.66 357.72 44.12 Q 357.56 43.58 357.29 43.08 Q 357.02 42.57 356.66 42.14 Q 356.30 41.70 355.86 41.34 Q 355.43 40.98 354.92 40.71 Q 354.42 40.44 353.88 40.28 Q 353.34 40.11 352.77 40.06 Q 352.21 40.00 351.64 40.06 Q 351.08 40.11 350.53 40.28 Q 349.99 40.44 349.49 40.71 Q 348.99 40.98 348.55 41.34 Q 348.11 41.70 347.75 42.14 Q 347.39 42.57 347.12 43.08 Q 346.85 43.58 346.69 44.12 Q 346.53 44.66 346.47 45.23 L 346.41 45.79" />
<polyline points="431.16 66.04 373.23 166.38" fill="none" stroke="rgb(0,0,0)" stroke-width="2" />
<polyline points="441.19 71.83 383.26 172.17" fill="none" stroke="rgb(0,0,0)" stroke-width="2" />
<path fill="none" stroke="rgb(0,0,0)" stroke-width="2" d=" M 373.25 166.38 Q 373.23 166.38 373.00 166.90 Q 372.76 167.41 372.63 167.97 Q 372.50 168.52 372.48 169.09 Q 372.47 169.65 372.56 170.22 Q 372.65 170.78 372.85 171.31 Q 373.05 171.84 373.35 172.32 Q 373.65 172.80 374.04 173.22 Q 374.43 173.63 374.89 173.96 Q 375.35 174.29 375.87 174.53 Q 376.38 174.76 376.94 174.89 Q 377.49 175.02 378.06 175.04 Q 378.63 175.06 379.19 174.96 Q 379.75 174.87 380.28 174.67 Q 380.81 174.47 381.29 174.17 Q 381.77 173.87 382.19 173.48 Q 382.60 173.10 382.92 172.64 L 383.25 172.18" />
<path fill="none" stroke="rgb(0,0,0)" stroke-width="2" d=" M 441.18 71.84 Q 441.19 71.83 441.43 71.32 Q 441.66 70.80 441.79 70.25 Q 441.92 69.69 441.94 69.13 Q 441.96 68.56 441.87 68.00 Q 441.77 67.44 441.57 66.91 Q 441.37 66.37 441.07 65.89 Q 440.77 65.41 440.39 65.00 Q 440.00 64.58 439.54 64.25 Q 439.07 63.92 438.56 63.69 Q 438.04 63.45 437.49 63.32 Q 436.93 63.19 436.37 63.17 Q 435.80 63.16 435.24 63.25 Q 434.68 63.34 434.15 63.54 Q 433.62 63.74 433.13 64.04 Q 432.65 64.34 432.24 64.73 Q 431.82 65.12 431.50 65.58 L 431.18 66.04" />
<polyline points="490.20 122.66 389.86 180.59" fill="none" stroke="rgb(0,0,0)" stroke-width="2" />
<polyline points="495.99 132.69 395.66 190.62" fill="none" stroke="rgb(0,0,0)" stroke-width="2" />
<path fill="none" stroke="rgb(0,0,0)" stroke-width="2" d=" M 389.86 180.60 Q 388.94 181.25 388.55 181.66 Q 388.16 182.08 387.86 182.56 Q 387.56 183.04 387.36 183.57 Q 387.16 184.10 387.07 184.66 Q 386.98 185.22 387.00 185.79 Q 387.01 186.36 387.14 186.91 Q 387.27 187.47 387.51 187.98 Q 387.74 188.50 388.07 188.96 Q 388.40 189.42 388.82 189.81 Q 389.23 190.20 389.71 190.50 Q 390.20 190.80 390.73 191.00 Q 391.26 191.20 391.82 191.29 Q 392.38 191.38 392.95 191.37 Q 393.52 191.35 394.07 191.22 Q 394.62 191.09 395.14 190.86 Q 395.66 190.62 395.66 190.61 L 395.66 190.60" />
<path fill="none" stroke="rgb(0,0,0)" stroke-width="2" d=" M 496.00 132.67 Q 496.92 132.03 497.31 131.61 Q 497.69 131.20 497.99 130.72 Q 498.29 130.23 498.49 129.70 Q 498.69 129.17 498.79 128.61 Q 498.88 128.05 498.86 127.48 Q 498.84 126.92 498.71 126.36 Q 498.58 125.81 498.35 125.29 Q 498.12 124.78 497.78 124.31 Q 497.45 123.85 497.04 123.46 Q 496.62 123.08 496.14 122.78 Q 495.66 122.48 495.13 122.28 Q 494.60 122.08 494.04 121.98 Q 493.48 121.89 492.91 121.91 Q 492.34 121.93 491.79 122.06 Q 491.24 122.19 490.72 122.42 Q 490.20 122.66 490.20 122.66 L 490.20 122.67" />
<polyline points="392.76 211.67 508.62 211.67" fill="none" stroke="rgb(0,0,0)" stroke-width="2" />
<polyline points="392.76 200.09 508.62 200.09" fill="none" stroke="rgb(0,0,0)" stroke-width="2" />
<path fill="none" stroke="rgb(0,0,0)" stroke-width="2" d=" M 508.62 211.68 Q 508.62 211.67 509.19 211.62 Q 509.75 211.56 510.29 211.40 Q 510.84 211.23 511.34 210.96 Q 511.84 210.70 512.28 210.34 Q 512.72 209.98 513.08 209.54 Q 513.44 209.10 513.71 208.60 Q 513.97 208.10 514.14 207.55 Q 514.30 207.01 514.36 206.44 Q 514.41 205.88 514.36 205.31 Q 514.30 204.75 514.14 204.21 Q 513.97 203.66 513.71 203.16 Q 513.44 202.66 513.08 202.22 Q 512.72 201.78 512.28 201.42 Q 511.84 201.06 511.34 200.80 Q 510.84 200.53 510.29 200.36 Q 509.75 200.20 509.19 200.14 Q 508.62 200.09 508.62 200.08 L 508.62 200.08" />
<path fill="none" stroke="rgb(0,0,0)" stroke-width="2" d=" M 392.76 200.08 Q 392.76 200.09 392.19 200.14 Q 391.63 200.20 391.09 200.36 Q 390.54 200.53 390.04 200.80 Q 389.54 201.06 389.10 201.42 Q 388.66 201.78 388.30 202.22 Q 387.94 202.66 387.67 203.16 Q 387.41 203.66 387.24 204.21 Q 387.08 204.75 387.02 205.31 Q 386.97 205.88 387.02 206.44 Q 387.08 207.01 387.24 207.55 Q 387.41 208.10 387.67 208.60 Q 387.94 209.10 388.30 209.54 Q 388.66 209.98 389.10 210.34 Q 389.54 210.70 390.04 210.96 Q 390.54 211.23 391.09 211.40 Q 391.63 211.56 392.19 211.62 Q 392.76 211.67 392.76 211.68 L 392.76 211.68" />
<polyline points="386.94 233.26 487.28 291.19" fill="none" stroke="rgb(0,0,0)" stroke-width="2" />
<polyline points="392.73 223.23 493.07 281.16" fill="none" stroke="rgb(0,0,0)" stroke-width="2" />
<path fill="none" stroke="rgb(0,0,0)" stroke-width="2" d=" M 487.27 291.18 Q 487.28 291.19 487.79 291.43 Q 488.31 291.66 488.86 291.79 Q 489.42 291.92 489.98 291.94 Q 490.55 291.96 491.11 291.87 Q 491.67 291.77 492.20 291.57 Q 492.73 291.37 493.22 291.07 Q 493.70 290.77 494.11 290.39 Q 494.53 290.00 494.86 289.54 Q 495.19 289.07 495.42 288.56 Q 495.66 288.04 495.79 287.49 Q 495.92 286.93 495.93 286.37 Q 495.95 285.80 495.86 285.24 Q 495.77 284.68 495.57 284.15 Q 495.37 283.62 495.07 283.13 Q 494.77 282.65 494.38 282.24 Q 493.99 281.82 493.53 281.50 L 493.07 281.18" />
<path fill="none" stroke="rgb(0,0,0)" stroke-width="2" d=" M 392.73 223.25 Q 392.73 223.23 392.21 223.00 Q 391.70 222.76 391.14 222.63 Q 390.59 222.50 390.02 222.48 Q 389.45 222.47 388.89 222.56 Q 388.33 222.65 387.80 222.85 Q 387.27 223.05 386.79 223.35 Q 386.31 223.65 385.89 224.04 Q 385.48 224.43 385.15 224.89 Q 384.82 225.35 384.58 225.87 Q 384.35 226.38 384.22 226.94 Q 384.09 227.49 384.07 228.06 Q 384.05 228.63 384.14 229.19 Q 384.24 229.75 384.44 230.28 Q 384.64 230.81 384.94 231.29 Q 385.24 231.77 385.63 232.19 Q 386.01 232.60 386.47 232.92 L 386.93 233.25" />
<polyline points="346.41 245.66 346.41 361.52" fill="none" stroke="rgb(0,0,0)" stroke-width="2" />
<polyline points="358.00 245.66 358.00 361.52" fill="none" stroke="rgb(0,0,0)" stroke-width="2" />
<path fill="none" stroke="rgb(0,0,0)" stroke-width="2" d=" M 346.41 361.52 Q 346.41 361.52 346.47 362.08 Q 346.53 362.65 346.69 363.19 Q 346.85 363.73 347.12 364.23 Q 347.39 364.74 347.75 365.17 Q 348.11 365.61 348.55 365.97 Q 348.99 366.33 349.49 366.60 Q 349.99 366.87 350.53 367.03 Q 351.08 367.20 351.64 367.25 Q 352.21 367.31 352.77 367.25 Q 353.34 367.20 353.88 367.03 Q 354.42 366.87 354.92 366.60 Q 355.43 366.33 355.86 365.97 Q 356.30 365.61 356.66 365.17 Q 357.02 364.74 357.29 364.23 Q 357.56 363.73 357.72 363.19 Q 357.89 362.65 357.94 362.08 Q 358.00 361.52 358.00 361.52 L 358.01 361.52" />
<path fill="none" stroke="rgb(0,0,0)" stroke-width="2" d=" M 358.01 245.66 Q 358.00 245.66 357.94 245.09 Q 357.89 244.53 357.72 243.98 Q 357.56 243.44 357.29 242.94 Q 357.02 242.44 356.66 242.00 Q 356.30 241.56 355.86 241.20 Q 355.43 240.84 354.92 240.57 Q 354.42 240.30 353.88 240.14 Q 353.34 239.97 352.77 239.92 Q 352.21 239.86 351.64 239.92 Q 351.08 239.97 350.53 240.14 Q 349.99 240.30 349.49 240.57 Q 348.99 240.84 348.55 241.20 Q 348.11 241.56 347.75 242.00 Q 347.39 242.44 347.12 242.94 Q 346.85 243.44 346.69 243.98 Q 346.53 244.53 346.47 245.09 Q 346.41 245.66 346.41 245.66 L 346.41 245.66" />
<polyline points="326.89 239.83 268.95 340.17" fill="none" stroke="rgb(0,0,0)" stroke-width="2" />
<polyline points="336.92 245.63 278.99 345.97" fill="none" stroke="rgb(0,0,0)" stroke-width="2" />
<path fill="none" stroke="rgb(0,0,0)" stroke-width="2" d=" M 268.97 340.17 Q 268.95 340.17 268.72 340.69 Q 268.49 341.21 268.36 341.76 Q 268.23 342.31 268.21 342.88 Q 268.19 343.45 268.28 344.01 Q 268.38 344.57 268.58 345.10 Q 268.78 345.63 269.08 346.11 Q 269.38 346.60 269.76 347.01 Q 270.15 347.42 270.61 347.76 Q 271.07 348.09 271.59 348.32 Q 272.11 348.55 272.66 348.68 Q 273.21 348.81 273.78 348.83 Q 274.35 348.85 274.91 348.76 Q 275.47 348.67 276.00 348.47 Q 276.53 348.27 277.02 347.97 Q 277.50 347.67 277.91 347.28 Q 278.33 346.89 278.65 346.43 L 278.97 345.97" />
<path fill="none" stroke="rgb(0,0,0)" stroke-width="2" d=" M 336.90 245.63 Q 336.92 245.63 337.15 245.11 Q 337.39 244.59 337.52 244.04 Q 337.65 243.49 337.66 242.92 Q 337.68 242.35 337.59 241.79 Q 337.50 241.23 337.30 240.70 Q 337.10 240.17 336.80 239.69 Q 336.50 239.20 336.11 238.79 Q 335.72 238.37 335.26 238.04 Q 334.80 237.71 334.28 237.48 Q 333.76 237.24 333.21 237.12 Q 332.66 236.99 332.09 236.97 Q 331.52 236.95 330.96 237.04 Q 330.40 237.13 329.87 237.33 Q 329.34 237.53 328.86 237.83 Q 328.38 238.13 327.96 238.52 Q 327.55 238.91 327.22 239.37 L 326.90 239.83" />
<polyline points="311.63 220.33 211.29 278.26" fill="none" stroke="rgb(0,0,0)" stroke-width="2" />
<polyline points="317.42 230.37 217.08 288.30" fill="none" stroke="rgb(0,0,0)" stroke-width="2" />
<path fill="none" stroke="rgb(0,0,0)" stroke-width="2" d=" M 211.28 278.28 Q 210.36 278.93 209.98 279.34 Q 209.59 279.75 209.29 280.24 Q 208.99 280.72 208.79 281.25 Q 208.59 281.78 208.49 282.34 Q 208.40 282.90 208.42 283.47 Q 208.44 284.04 208.57 284.59 Q 208.70 285.14 208.93 285.66 Q 209.17 286.18 209.50 286.64 Q 209.83 287.10 210.24 287.49 Q 210.66 287.88 211.14 288.18 Q 211.62 288.48 212.15 288.68 Q 212.68 288.88 213.24 288.97 Q 213.80 289.06 214.37 289.04 Q 214.94 289.02 215.49 288.90 Q 216.05 288.77 216.56 288.53 Q 217.08 288.30 217.08 288.29 L 217.08 288.28" />
<path fill="none" stroke="rgb(0,0,0)" stroke-width="2" d=" M 317.42 230.35 Q 318.34 229.71 318.73 229.29 Q 319.12 228.88 319.42 228.39 Q 319.72 227.91 319.92 227.38 Q 320.12 226.85 320.21 226.29 Q 320.30 225.73 320.29 225.16 Q 320.27 224.59 320.14 224.04 Q 320.01 223.49 319.77 222.97 Q 319.54 222.45 319.21 221.99 Q 318.88 221.53 318.46 221.14 Q 318.05 220.75 317.57 220.45 Q 317.09 220.15 316.55 219.95 Q 316.02 219.75 315.46 219.66 Q 314.90 219.57 314.33 219.59 Q 313.77 219.61 313.21 219.74 Q 312.66 219.86 312.14 220.10 Q 311.63 220.33 311.62 220.34 L 311.62 220.35" />
<polyline points="294.28 349.93 294.28 454.21" fill="none" stroke="rgb(0,0,0)" stroke-width="2" />
<polyline points="305.86 352.83 305.86 454.21" fill="none" stroke="rgb(0,0,0)" stroke-width="2" />
<path fill="none" stroke="rgb(0,0,0)" stroke-width="2" d=" M 294.27 454.21 Q 294.39 455.34 294.55 455.88 Q 294.72 456.42 294.98 456.92 Q 295.25 457.43 295.61 457.86 Q 295.97 458.30 296.41 458.66 Q 296.85 459.02 297.35 459.29 Q 297.85 459.56 298.40 459.72 Q 298.94 459.89 299.50 459.94 Q 300.07 460.00 300.63 459.94 Q 301.20 459.89 301.74 459.72 Q 302.29 459.56 302.79 459.29 Q 303.29 459.02 303.73 458.66 Q 304.17 458.30 304.53 457.86 Q 304.89 457.43 305.15 456.92 Q 305.42 456.42 305.59 455.88 Q 305.75 455.34 305.81 454.77 L 305.87 454.21" />
<polyline points="427.52 341.24 426.71 453.14" fill="none" stroke="rgb(0,0,0)" stroke-width="2" />
<polyline points="438.30 337.28 438.30 453.14" fill="none" stroke="rgb(0,0,0)" stroke-width="2" />
<path fill="none" stroke="rgb(0,0,0)" stroke-width="2" d=" M 426.71 453.14 Q 426.71 453.14 426.77 453.70 Q 426.82 454.27 426.99 454.81 Q 427.15 455.35 427.42 455.86 Q 427.69 456.36 428.05 456.80 Q 428.41 457.23 428.85 457.59 Q 429.29 457.95 429.79 458.22 Q 430.29 458.49 430.83 458.66 Q 431.38 458.82 431.94 458.88 Q 432.51 458.93 433.07 458.88 Q 433.64 458.82 434.18 458.66 Q 434.72 458.49 435.22 458.22 Q 435.72 457.95 436.16 457.59 Q 436.60 457.23 436.96 456.80 Q 437.32 456.36 437.59 455.86 Q 437.86 455.35 438.02 454.81 Q 438.19 454.27 438.24 453.70 Q 438.30 453.14 438.30 453.14 L 438.31 453.14" />
<polyline points="370.33 242.73 427.52 341.24" fill="none" stroke="rgb(0,0,0)" stroke-width="2" />
<polyline points="380.37 236.94 438.30 337.28" fill="none" stroke="rgb(0,0,0)" stroke-width="2" />
<path fill="none" stroke="rgb(0,0,0)" stroke-width="2" d=" M 380.35 236.93 Q 379.71 236.01 379.29 235.63 Q 378.88 235.24 378.39 234.94 Q 377.91 234.64 377.38 234.44 Q 376.85 234.24 376.29 234.14 Q 375.73 234.05 375.16 234.07 Q 374.59 234.09 374.04 234.22 Q 373.49 234.35 372.97 234.58 Q 372.45 234.82 371.99 235.15 Q 371.53 235.48 371.14 235.89 Q 370.75 236.31 370.45 236.79 Q 370.15 237.27 369.95 237.80 Q 369.75 238.33 369.66 238.89 Q 369.57 239.45 369.59 240.02 Q 369.61 240.59 369.74 241.14 Q 369.86 241.70 370.10 242.21 Q 370.33 242.73 370.34 242.73 L 370.35 242.73" />
<path fill="none" stroke="rgb(0,0,0)" stroke-width="2" d=" M 218.91 286.29 Q 219.26 286.99 228.98 298.84 Q 238.71 310.69 250.56 320.41 Q 262.41 330.14 266.91 332.56 L 271.41 334.99" />
<path fill="none" stroke="rgb(0,0,0)" stroke-width="2" d=" M 196.31 211.58 Q 198.80 236.39 203.25 251.07 Q 207.70 265.74 210.85 271.61 L 214.01 277.48" />
<path fill="none" stroke="rgb(0,0,0)" stroke-width="2" d=" M 215.31 131.78 Q 207.70 146.02 203.25 160.69 Q 198.80 175.36 197.60 187.37 L 196.41 199.38" />
<path fill="none" stroke="rgb(0,0,0)" stroke-width="2" d=" M 269.61 73.48 Q 265.31 75.83 253.46 85.55 Q 241.61 95.28 231.88 107.13 Q 222.15 118.98 221.53 120.13 L 220.91 121.28" />
<path fill="none" stroke="rgb(0,0,0)" stroke-width="2" d=" M 346.11 50.08 Q 321.69 52.47 307.02 56.92 Q 292.35 61.37 286.38 64.58 L 280.41 67.78" />
<path fill="none" stroke="rgb(0,0,0)" stroke-width="2" d=" M 429.81 70.88 Q 412.06 61.37 397.39 56.92 Q 382.72 52.47 371.06 51.33 L 359.41 50.18" />
<path fill="none" stroke="rgb(0,0,0)" stroke-width="2" d=" M 485.71 125.38 Q 482.26 118.98 472.53 107.13 Q 462.81 95.28 451.11 85.68 L 439.41 76.08" />
<path fill="none" stroke="rgb(0,0,0)" stroke-width="2" d=" M 508.01 200.08 Q 505.62 175.36 501.16 160.69 Q 496.71 146.02 493.91 140.80 L 491.11 135.58" />
<path fill="none" stroke="rgb(0,0,0)" stroke-width="2" d=" M 489.51 279.28 Q 496.71 265.74 501.16 251.07 Q 505.62 236.39 506.81 224.04 L 508.01 211.68" />
<path fill="none" stroke="rgb(0,0,0)" stroke-width="2" d=" M 437.91 336.58 Q 439.11 335.93 450.96 326.21 Q 462.81 316.48 472.53 304.63 Q 482.26 292.78 483.23 290.98 L 484.21 289.18" />
<path fill="none" stroke="rgb(0,0,0)" stroke-width="2" d=" M 358.01 361.68 Q 382.72 359.29 397.39 354.84 Q 412.06 350.39 419.59 346.38 L 427.11 342.38" />
<path fill="none" stroke="rgb(0,0,0)" stroke-width="2" d=" M 317.21 230.60 Q 321.48 235.83 324.10 237.96 L 326.71 240.10" />
<path fill="none" stroke="rgb(0,0,0)" stroke-width="2" d=" M 309.41 211.20 Q 309.59 213.58 310.83 217.66 Q 312.07 221.73 312.49 222.52 L 312.91 223.30" />
<path fill="none" stroke="rgb(0,0,0)" stroke-width="2" d=" M 312.51 187.70 Q 312.07 188.48 310.83 192.55 Q 309.59 196.63 309.45 198.02 L 309.31 199.40" />
<path fill="none" stroke="rgb(0,0,0)" stroke-width="2" d=" M 325.41 171.10 Q 321.48 174.38 319.85 176.34 L 318.21 178.30" />
<path fill="none" stroke="rgb(0,0,0)" stroke-width="2" d=" M 346.51 162.20 Q 343.73 162.49 339.66 163.73 Q 335.58 164.96 334.79 165.38 L 334.01 165.80" />
<path fill="none" stroke="rgb(0,0,0)" stroke-width="2" d=" M 372.81 167.10 Q 368.83 164.96 364.76 163.73 Q 360.68 162.49 359.30 162.35 L 357.91 162.20" />
<path fill="none" stroke="rgb(0,0,0)" stroke-width="2" d=" M 388.61 181.40 Q 388.33 180.96 385.63 177.67 Q 382.93 174.38 382.42 173.99 L 381.91 173.60" />
<path fill="none" stroke="rgb(0,0,0)" stroke-width="2" d=" M 395.11 199.80 Q 394.82 196.63 394.01 194.02 L 393.21 191.40" />
<path fill="none" stroke="rgb(0,0,0)" stroke-width="2" d=" M 391.81 222.80 Q 392.35 221.73 393.58 217.66 Q 394.82 213.58 394.91 212.79 L 395.01 212.00" />
<path fill="none" stroke="rgb(0,0,0)" stroke-width="2" d=" M 380.91 237.50 Q 382.93 235.83 384.37 234.06 L 385.81 232.30" />
<path fill="none" stroke="rgb(0,0,0)" stroke-width="2" d=" M 358.31 247.90 Q 360.68 247.72 364.76 246.48 Q 368.83 245.24 370.17 244.52 L 371.51 243.80" />
<polyline points="397.00 420.00 427.00 420.00" fill="none" stroke="rgb(0,0,0)" stroke-width="2" />
<polygon points="406.60 425.40 427.00 420.00 406.60 414.60" fill="rgb(0,0,0)" stroke="rgb(0,0,0)" stroke-width="2" />
<polyline points="525.00 420.00 438.75 420.00" fill="none" stroke="rgb(0,0,0)" stroke-width="2" />
<polygon points="459.15 414.60 438.75 420.00 459.15 425.40" fill="rgb(0,0,0)" stroke="rgb(0,0,0)" stroke-width="2" />
<text x="470.00" y="412.00" font-family ="Arial" font-size ="28pt" font-weight="normal" font-style="normal" fill="rgb(0,0,0)" transform=" rotate(0.000) scale(1.000,1.000)">${wireDiameter}</text>
<polyline points="150.00 410.00 270.00 290.00" fill="none" stroke="rgb(0,0,0)" stroke-width="2" />
<polygon points="259.39 308.24 270.00 290.00 251.76 300.61" fill="rgb(0,0,0)" stroke="rgb(0,0,0)" stroke-width="2" />
<text x="120.00" y="442.00" font-family ="Arial" font-size ="28pt" font-weight="normal" font-style="normal" fill="rgb(0,0,0)" transform=" rotate(0.000) scale(1.000,1.000)">${ringType}</text>
<polyline points="110.00 70.00 110.00 97.00" fill="none" stroke="rgb(0,0,0)" stroke-width="2" />
<polyline points="110.00 313.00 110.00 340.00" fill="none" stroke="rgb(0,0,0)" stroke-width="2" />
<path fill="none" stroke="rgb(0,0,0)" stroke-width="2" d=" M 110.00 151.00 Q 110.00 151.00 112.63 150.74 Q 115.27 150.48 117.80 149.71 Q 120.33 148.94 122.67 147.70 Q 125.00 146.45 127.05 144.77 Q 129.09 143.09 130.77 141.05 Q 132.45 139.00 133.70 136.67 Q 134.94 134.33 135.71 131.80 Q 136.48 129.27 136.74 126.63 Q 137.00 124.00 136.74 121.37 Q 136.48 118.73 135.71 116.20 Q 134.94 113.67 133.70 111.33 Q 132.45 109.00 130.77 106.95 Q 129.09 104.91 127.05 103.23 Q 125.00 101.55 122.67 100.30 Q 120.33 99.06 117.80 98.29 Q 115.27 97.52 112.63 97.26 Q 110.00 97.00 110.00 97.00 L 110.00 97.00" />
<path fill="none" stroke="rgb(0,0,0)" stroke-width="2" d=" M 110.00 205.00 Q 110.00 205.00 112.63 204.74 Q 115.27 204.48 117.80 203.71 Q 120.33 202.94 122.67 201.70 Q 125.00 200.45 127.05 198.77 Q 129.09 197.09 130.77 195.05 Q 132.45 193.00 133.70 190.67 Q 134.94 188.33 135.71 185.80 Q 136.48 183.27 136.74 180.63 Q 137.00 178.00 136.74 175.37 Q 136.48 172.73 135.71 170.20 Q 134.94 167.67 133.70 165.33 Q 132.45 163.00 130.77 160.95 Q 129.09 158.91 127.05 157.23 Q 125.00 155.55 122.67 154.30 Q 120.33 153.06 117.80 152.29 Q 115.27 151.52 112.63 151.26 Q 110.00 151.00 110.00 151.00 L 110.00 151.00" />
<path fill="none" stroke="rgb(0,0,0)" stroke-width="2" d=" M 110.00 259.00 Q 110.00 259.00 112.63 258.74 Q 115.27 258.48 117.80 257.71 Q 120.33 256.94 122.67 255.70 Q 125.00 254.45 127.05 252.77 Q 129.09 251.09 130.77 249.05 Q 132.45 247.00 133.70 244.67 Q 134.94 242.33 135.71 239.80 Q 136.48 237.27 136.74 234.63 Q 137.00 232.00 136.74 229.37 Q 136.48 226.73 135.71 224.20 Q 134.94 221.67 133.70 219.33 Q 132.45 217.00 130.77 214.95 Q 129.09 212.91 127.05 211.23 Q 125.00 209.55 122.67 208.30 Q 120.33 207.05 117.80 206.29 Q 115.27 205.52 112.63 205.26 Q 110.00 205.00 110.00 205.00 L 110.00 205.00" />
<path fill="none" stroke="rgb(0,0,0)" stroke-width="2" d=" M 110.00 313.00 Q 110.00 313.00 112.63 312.74 Q 115.27 312.48 117.80 311.71 Q 120.33 310.94 122.67 309.70 Q 125.00 308.45 127.05 306.77 Q 129.09 305.09 130.77 303.05 Q 132.45 301.00 133.70 298.67 Q 134.94 296.33 135.71 293.80 Q 136.48 291.27 136.74 288.63 Q 137.00 286.00 136.74 283.37 Q 136.48 280.73 135.71 278.20 Q 134.94 275.67 133.70 273.33 Q 132.45 271.00 130.77 268.95 Q 129.09 266.91 127.05 265.23 Q 125.00 263.55 122.67 262.30 Q 120.33 261.06 117.80 260.29 Q 115.27 259.52 112.63 259.26 Q 110.00 259.00 110.00 259.00 L 110.00 259.00" />
<polyline points="150.50 97.00 150.50 313.00" fill="none" stroke="rgb(0,0,0)" stroke-width="5" />
<text x="40.00" y="212.00" font-family ="Arial" font-size ="45pt" font-weight="normal" font-style="italic" fill="rgb(0,0,0)" transform=" rotate(0.000) scale(1.000,1.000)">${coilsInductance}</text>
<polyline points="500.00 280.00 630.00 150.00" fill="none" stroke="rgb(0,0,0)" stroke-width="2" />
<polygon points="510.61 261.76 500.00 280.00 518.24 269.39" fill="rgb(0,0,0)" stroke="rgb(0,0,0)" stroke-width="2" />
<polyline points="520.00 200.00 630.00 150.00" fill="none" stroke="rgb(0,0,0)" stroke-width="2" />
<polygon points="536.34 186.64 520.00 200.00 540.81 196.47" fill="rgb(0,0,0)" stroke="rgb(0,0,0)" stroke-width="2" />
<text x="580.00" y="132.00" font-family ="Arial" font-size ="28pt" font-weight="normal" font-style="normal" fill="rgb(0,0,0)" transform=" rotate(0.000) scale(1.000,1.000)">${coilsNumberOfCoils}</text>
</svg>
