<?xml version="1.0" encoding="utf-8"?>
<!-- Created with "sPlan" (http://www.abacom-online.de) -->
<svg version="1.1" baseProfile="full"
xmlns="http://www.w3.org/2000/svg"
width="440" height="335">
<title>schema1</title>
<defs>
<style type="text/css">
<![CDATA[
polyline {stroke-linecap:round; stroke-linejoin:round}
polygon {stroke-linecap:round; stroke-linejoin:round}
path {stroke-linecap:round; stroke-linejoin:round}
circle {stroke-linecap:round; stroke-linejoin:round}
]]>
</style>
</defs>
<path fill="rgb(255,255,255)" stroke="rgb(0,0,0)" stroke-width="2" style="stroke-linecap:square; stroke-linejoin:miter" d=" M 60 165 L 110 165 110 185 60 185 60 165" />
<polyline points="40.00 175.00 60.00 175.00" fill="none" stroke="rgb(0,0,0)" stroke-width="2" />
<polyline points="110.00 175.00 130.00 175.00" fill="none" stroke="rgb(0,0,0)" stroke-width="2" />
<text x="50.00" y="154.00" font-family ="Arial" font-size ="17pt" font-weight="normal" font-style="italic" fill="rgb(0,0,0)" transform=" rotate(0.000) scale(1.000,1.000)">${resistance1}</text>
<path fill="rgb(255,255,255)" stroke="rgb(0,0,0)" stroke-width="2" style="stroke-linecap:square; stroke-linejoin:miter" d=" M 120 195 L 140 195 140 245 120 245 120 195" />
<polyline points="130.00 175.00 130.00 195.00" fill="none" stroke="rgb(0,0,0)" stroke-width="2" />
<polyline points="130.00 245.00 130.00 265.00" fill="none" stroke="rgb(0,0,0)" stroke-width="2" />
<text x="50.00" y="234.00" font-family ="Arial" font-size ="17pt" font-weight="normal" font-style="italic" fill="rgb(0,0,0)" transform=" rotate(0.000) scale(1.000,1.000)">${resistance2}</text>
<path fill="rgb(0,0,0)" stroke="rgb(0,0,0)" stroke-width="2" style="stroke-linecap:square; stroke-linejoin:miter" d=" M 160 155 L 160 155 160 195 160 195 160 155" />
<polyline points="170.00 175.00 200.00 175.00" fill="none" stroke="rgb(0,0,0)" stroke-width="2" />
<path fill="rgb(0,0,0)" stroke="rgb(0,0,0)" stroke-width="2" style="stroke-linecap:square; stroke-linejoin:miter" d=" M 170 155 L 170 155 170 195 170 195 170 155" />
<polyline points="130.00 175.00 160.00 175.00" fill="none" stroke="rgb(0,0,0)" stroke-width="2" />
<text x="160.00" y="224.00" font-family ="Arial" font-size ="17pt" font-weight="normal" font-style="italic" fill="rgb(0,0,0)" transform=" rotate(0.000) scale(1.000,1.000)">${capacitance}</text>
<path fill="rgb(0,0,0)" stroke="rgb(0,0,0)" stroke-width="2" style="stroke-linecap:square; stroke-linejoin:miter" d=" M 160 65 L 160 65 160 105 160 105 160 65" />
<polyline points="170.00 85.00 200.00 85.00" fill="none" stroke="rgb(0,0,0)" stroke-width="2" />
<path fill="rgb(0,0,0)" stroke="rgb(0,0,0)" stroke-width="2" style="stroke-linecap:square; stroke-linejoin:miter" d=" M 170 65 L 170 65 170 105 170 105 170 65" />
<polyline points="130.00 85.00 160.00 85.00" fill="none" stroke="rgb(0,0,0)" stroke-width="2" />
<text x="150.00" y="59.00" font-family ="Arial" font-size ="17pt" font-weight="normal" font-style="italic" fill="rgb(0,0,0)" transform=" rotate(0.000) scale(1.000,1.000)">${capacitance}</text>
<path fill="rgb(255,255,255)" stroke="rgb(0,0,0)" stroke-width="2" style="stroke-linecap:square; stroke-linejoin:miter" d=" M 190 105 L 210 105 210 155 190 155 190 105" />
<polyline points="200.00 85.00 200.00 105.00" fill="none" stroke="rgb(0,0,0)" stroke-width="2" />
<polyline points="200.00 155.00 200.00 175.00" fill="none" stroke="rgb(0,0,0)" stroke-width="2" />
<text x="220.00" y="134.00" font-family ="Arial" font-size ="17pt" font-weight="normal" font-style="italic" fill="rgb(0,0,0)" transform=" rotate(0.000) scale(1.000,1.000)">${resistance3}</text>
<polyline points="130.00 85.00 130.00 175.00" fill="none" stroke="rgb(0,0,0)" stroke-width="2" />
<polygon points="240 145 240 265 360 205" fill="rgb(255,255,255)" stroke="rgb(0,0,0)" stroke-width="2" />
<polyline points="240.00 175.00 200.00 175.00" fill="none" stroke="rgb(0,0,0)" stroke-width="2" />
<polyline points="200.00 235.00 240.00 235.00" fill="none" stroke="rgb(0,0,0)" stroke-width="2" />
<polyline points="360.00 205.00 400.00 205.00" fill="none" stroke="rgb(0,0,0)" stroke-width="2" />
<polyline points="250.00 175.00 260.00 175.00" fill="none" stroke="rgb(0,0,0)" stroke-width="2" />
<polyline points="250.00 235.00 260.00 235.00" fill="none" stroke="rgb(0,0,0)" stroke-width="2" />
<polyline points="255.00 230.00 255.00 240.00" fill="none" stroke="rgb(0,0,0)" stroke-width="2" />
<circle cx="200" cy="175" r="6" fill="rgb(0,0,0)" stroke="none" stroke-width="2" />
<circle cx="130" cy="175" r="6" fill="rgb(0,0,0)" stroke="none" stroke-width="2" />
<circle cx="200" cy="85" r="6" fill="rgb(0,0,0)" stroke="none" stroke-width="2" />
<circle cx="200" cy="265" r="6" fill="rgb(0,0,0)" stroke="none" stroke-width="2" />
<polyline points="200.00 235.00 200.00 265.00 130.00 265.00" fill="none" stroke="rgb(0,0,0)" stroke-width="2" />
<polyline points="200.00 265.00 200.00 295.00" fill="none" stroke="rgb(0,0,0)" stroke-width="2" />
<polyline points="180.00 295.00 220.00 295.00" fill="none" stroke="rgb(0,0,0)" stroke-width="4" />
<polyline points="400.00 205.00 400.00 85.00 200.00 85.00" fill="none" stroke="rgb(0,0,0)" stroke-width="2" />
</svg>
