<?xml version="1.0" encoding="utf-8"?>
<!-- Created with "sPlan" (http://www.abacom-online.de) -->
<svg version="1.1" baseProfile="full"
xmlns="http://www.w3.org/2000/svg"
width="598" height="660">
<title>schema</title>
<defs>
<style type="text/css">
<![CDATA[
polyline {stroke-linecap:round; stroke-linejoin:round}
polygon {stroke-linecap:round; stroke-linejoin:round}
path {stroke-linecap:round; stroke-linejoin:round}
circle {stroke-linecap:round; stroke-linejoin:round}
]]>
</style>
</defs>
<polyline points="200.00 170.00 200.00 210.00" fill="none" stroke="rgb(0,0,0)" stroke-width="2" />
<polyline points="200.00 290.00 200.00 330.00" fill="none" stroke="rgb(0,0,0)" stroke-width="2" />
<path fill="none" stroke="rgb(0,0,0)" stroke-width="2" d=" M 200.00 210.00 Q 200.00 210.00 199.02 210.10 Q 198.05 210.19 197.11 210.48 Q 196.17 210.76 195.31 211.22 Q 194.44 211.69 193.69 212.31 Q 192.93 212.93 192.31 213.69 Q 191.69 214.44 191.22 215.31 Q 190.76 216.17 190.48 217.11 Q 190.19 218.05 190.10 219.02 Q 190.00 220.00 190.10 220.98 Q 190.19 221.95 190.48 222.89 Q 190.76 223.83 191.22 224.69 Q 191.69 225.56 192.31 226.31 Q 192.93 227.07 193.69 227.69 Q 194.44 228.31 195.31 228.78 Q 196.17 229.24 197.11 229.52 Q 198.05 229.81 199.02 229.90 Q 200.00 230.00 200.00 230.00 L 200.00 230.00" />
<path fill="none" stroke="rgb(0,0,0)" stroke-width="2" d=" M 200.00 230.00 Q 200.00 230.00 199.02 230.10 Q 198.05 230.19 197.11 230.48 Q 196.17 230.76 195.31 231.22 Q 194.44 231.69 193.69 232.31 Q 192.93 232.93 192.31 233.69 Q 191.69 234.44 191.22 235.31 Q 190.76 236.17 190.48 237.11 Q 190.19 238.05 190.10 239.02 Q 190.00 240.00 190.10 240.98 Q 190.19 241.95 190.48 242.89 Q 190.76 243.83 191.22 244.69 Q 191.69 245.56 192.31 246.31 Q 192.93 247.07 193.69 247.69 Q 194.44 248.31 195.31 248.78 Q 196.17 249.24 197.11 249.52 Q 198.05 249.81 199.02 249.90 Q 200.00 250.00 200.00 250.00 L 200.00 250.00" />
<path fill="none" stroke="rgb(0,0,0)" stroke-width="2" d=" M 200.00 250.00 Q 200.00 250.00 199.02 250.10 Q 198.05 250.19 197.11 250.48 Q 196.17 250.76 195.31 251.22 Q 194.44 251.69 193.69 252.31 Q 192.93 252.93 192.31 253.69 Q 191.69 254.44 191.22 255.31 Q 190.76 256.17 190.48 257.11 Q 190.19 258.05 190.10 259.02 Q 190.00 260.00 190.10 260.98 Q 190.19 261.95 190.48 262.89 Q 190.76 263.83 191.22 264.69 Q 191.69 265.56 192.31 266.31 Q 192.93 267.07 193.69 267.69 Q 194.44 268.31 195.31 268.78 Q 196.17 269.24 197.11 269.52 Q 198.05 269.81 199.02 269.90 Q 200.00 270.00 200.00 270.00 L 200.00 270.00" />
<path fill="none" stroke="rgb(0,0,0)" stroke-width="2" d=" M 200.00 270.00 Q 200.00 270.00 199.02 270.10 Q 198.05 270.19 197.11 270.48 Q 196.17 270.76 195.31 271.22 Q 194.44 271.69 193.69 272.31 Q 192.93 272.93 192.31 273.69 Q 191.69 274.44 191.22 275.31 Q 190.76 276.17 190.48 277.11 Q 190.19 278.05 190.10 279.02 Q 190.00 280.00 190.10 280.98 Q 190.19 281.95 190.48 282.89 Q 190.76 283.83 191.22 284.69 Q 191.69 285.56 192.31 286.31 Q 192.93 287.07 193.69 287.69 Q 194.44 288.31 195.31 288.78 Q 196.17 289.24 197.11 289.52 Q 198.05 289.81 199.02 289.90 Q 200.00 290.00 200.00 290.00 L 200.00 290.00" />
<text x="156.48" y="229.00" font-family ="ARIAL" font-size ="17pt" font-weight="normal" font-style="normal" fill="rgb(0,0,0)" transform=" rotate(0.000) scale(1.000,1.000)">L1</text>
<text x="80.64" y="249.00" font-family ="ARIAL" font-size ="17pt" font-weight="normal" font-style="normal" fill="rgb(0,0,0)" transform=" rotate(0.000) scale(1.000,1.000)">${ind1} uH</text>
<path fill="rgb(0,0,0)" stroke="rgb(0,0,0)" stroke-width="2" style="stroke-linecap:square; stroke-linejoin:miter" d=" M 230 150 L 230 150 230 190 230 190 230 150" />
<polyline points="240.00 170.00 270.00 170.00" fill="none" stroke="rgb(0,0,0)" stroke-width="2" />
<path fill="rgb(0,0,0)" stroke="rgb(0,0,0)" stroke-width="2" style="stroke-linecap:square; stroke-linejoin:miter" d=" M 240 150 L 240 150 240 190 240 190 240 150" />
<polyline points="200.00 170.00 230.00 170.00" fill="none" stroke="rgb(0,0,0)" stroke-width="2" />
<text x="200.00" y="149.00" font-family ="Arial" font-size ="17pt" font-weight="normal" font-style="italic" fill="rgb(0,0,0)" transform=" rotate(0.000) scale(1.000,1.000)">C1-1</text>
<text x="260.00" y="149.00" font-family ="Arial" font-size ="17pt" font-weight="normal" font-style="italic" fill="rgb(0,0,0)" transform=" rotate(0.000) scale(1.000,1.000)">${cap11} pF</text>
<polyline points="310.00 170.00 310.00 200.00 290.00 200.00 330.00 200.00" fill="none" stroke="rgb(0,0,0)" stroke-width="2" />
<polyline points="290.00 210.00 330.00 210.00 310.00 210.00 310.00 240.00" fill="none" stroke="rgb(0,0,0)" stroke-width="2" />
<text x="315.00" y="189.00" font-family ="Arial" font-size ="17pt" font-weight="normal" font-style="italic" fill="rgb(0,0,0)" transform=" rotate(0.000) scale(1.000,1.000)">C1-2</text>
<text x="315.00" y="234.00" font-family ="Arial" font-size ="17pt" font-weight="normal" font-style="italic" fill="rgb(0,0,0)" transform=" rotate(0.000) scale(1.000,1.000)">${cap12} pF</text>
<path fill="rgb(0,0,0)" stroke="rgb(0,0,0)" stroke-width="2" style="stroke-linecap:square; stroke-linejoin:miter" d=" M 250 270 L 290 270 290 280 250 280 250 270" />
<polyline points="270.00 240.00 270.00 270.00" fill="none" stroke="rgb(0,0,0)" stroke-width="2" />
<polyline points="270.00 300.00 270.00 330.00" fill="none" stroke="rgb(0,0,0)" stroke-width="2" />
<path fill="rgb(0,0,0)" stroke="rgb(0,0,0)" stroke-width="2" style="stroke-linecap:square; stroke-linejoin:miter" d=" M 250 290 L 290 290 290 300 250 300 250 290" />
<polyline points="245.00 260.00 300.00 315.00" fill="none" stroke="rgb(0,0,0)" stroke-width="2" />
<polygon points="240 255 250 260 245 265" fill="rgb(0,0,0)" stroke="rgb(0,0,0)" stroke-width="1" />
<text x="320.00" y="279.00" font-family ="ARIAL" font-size ="17pt" font-weight="normal" font-style="normal" fill="rgb(0,0,0)" transform=" rotate(0.000) scale(1.000,1.000)">Cvar</text>
<text x="320.00" y="299.00" font-family ="ARIAL" font-size ="17pt" font-weight="normal" font-style="normal" fill="rgb(0,0,0)" transform=" rotate(0.000) scale(1.000,1.000)">${capMin}..${capMax} pF</text>
<polyline points="270.00 170.00 310.00 170.00" fill="none" stroke="rgb(0,0,0)" stroke-width="2" />
<polyline points="310.00 240.00 310.00 330.00 200.00 330.00" fill="none" stroke="rgb(0,0,0)" stroke-width="2" />
<polyline points="270.00 240.00 270.00 170.00" fill="none" stroke="rgb(0,0,0)" stroke-width="2" />
<circle cx="270" cy="170" r="6" fill="rgb(0,0,0)" stroke="none" stroke-width="2" />
<circle cx="270" cy="330" r="6" fill="rgb(0,0,0)" stroke="none" stroke-width="2" />
<polyline points="270.00 330.00 270.00 360.00" fill="none" stroke="rgb(0,0,0)" stroke-width="2" />
<polyline points="250.00 360.00 290.00 360.00" fill="none" stroke="rgb(0,0,0)" stroke-width="4" />
<polyline points="200.00 430.00 200.00 470.00" fill="none" stroke="rgb(0,0,0)" stroke-width="2" />
<polyline points="200.00 550.00 200.00 590.00" fill="none" stroke="rgb(0,0,0)" stroke-width="2" />
<path fill="none" stroke="rgb(0,0,0)" stroke-width="2" d=" M 200.00 470.00 Q 200.00 470.00 199.02 470.10 Q 198.05 470.19 197.11 470.48 Q 196.17 470.76 195.31 471.22 Q 194.44 471.69 193.69 472.31 Q 192.93 472.93 192.31 473.69 Q 191.69 474.44 191.22 475.31 Q 190.76 476.17 190.48 477.11 Q 190.19 478.05 190.10 479.02 Q 190.00 480.00 190.10 480.98 Q 190.19 481.95 190.48 482.89 Q 190.76 483.83 191.22 484.69 Q 191.69 485.56 192.31 486.31 Q 192.93 487.07 193.69 487.69 Q 194.44 488.31 195.31 488.78 Q 196.17 489.24 197.11 489.52 Q 198.05 489.81 199.02 489.90 Q 200.00 490.00 200.00 490.00 L 200.00 490.00" />
<path fill="none" stroke="rgb(0,0,0)" stroke-width="2" d=" M 200.00 490.00 Q 200.00 490.00 199.02 490.10 Q 198.05 490.19 197.11 490.48 Q 196.17 490.76 195.31 491.22 Q 194.44 491.69 193.69 492.31 Q 192.93 492.93 192.31 493.69 Q 191.69 494.44 191.22 495.31 Q 190.76 496.17 190.48 497.11 Q 190.19 498.05 190.10 499.02 Q 190.00 500.00 190.10 500.98 Q 190.19 501.95 190.48 502.89 Q 190.76 503.83 191.22 504.69 Q 191.69 505.56 192.31 506.31 Q 192.93 507.07 193.69 507.69 Q 194.44 508.31 195.31 508.78 Q 196.17 509.24 197.11 509.52 Q 198.05 509.81 199.02 509.90 Q 200.00 510.00 200.00 510.00 L 200.00 510.00" />
<path fill="none" stroke="rgb(0,0,0)" stroke-width="2" d=" M 200.00 510.00 Q 200.00 510.00 199.02 510.10 Q 198.05 510.19 197.11 510.48 Q 196.17 510.76 195.31 511.22 Q 194.44 511.69 193.69 512.31 Q 192.93 512.93 192.31 513.69 Q 191.69 514.44 191.22 515.31 Q 190.76 516.17 190.48 517.11 Q 190.19 518.05 190.10 519.02 Q 190.00 520.00 190.10 520.98 Q 190.19 521.95 190.48 522.89 Q 190.76 523.83 191.22 524.69 Q 191.69 525.56 192.31 526.31 Q 192.93 527.07 193.69 527.69 Q 194.44 528.31 195.31 528.78 Q 196.17 529.24 197.11 529.52 Q 198.05 529.81 199.02 529.90 Q 200.00 530.00 200.00 530.00 L 200.00 530.00" />
<path fill="none" stroke="rgb(0,0,0)" stroke-width="2" d=" M 200.00 530.00 Q 200.00 530.00 199.02 530.10 Q 198.05 530.19 197.11 530.48 Q 196.17 530.76 195.31 531.22 Q 194.44 531.69 193.69 532.31 Q 192.93 532.93 192.31 533.69 Q 191.69 534.44 191.22 535.31 Q 190.76 536.17 190.48 537.11 Q 190.19 538.05 190.10 539.02 Q 190.00 540.00 190.10 540.98 Q 190.19 541.95 190.48 542.89 Q 190.76 543.83 191.22 544.69 Q 191.69 545.56 192.31 546.31 Q 192.93 547.07 193.69 547.69 Q 194.44 548.31 195.31 548.78 Q 196.17 549.24 197.11 549.52 Q 198.05 549.81 199.02 549.90 Q 200.00 550.00 200.00 550.00 L 200.00 550.00" />
<text x="156.48" y="489.00" font-family ="ARIAL" font-size ="17pt" font-weight="normal" font-style="normal" fill="rgb(0,0,0)" transform=" rotate(0.000) scale(1.000,1.000)">L2</text>
<text x="80.64" y="509.00" font-family ="ARIAL" font-size ="17pt" font-weight="normal" font-style="normal" fill="rgb(0,0,0)" transform=" rotate(0.000) scale(1.000,1.000)">${ind1} uH</text>
<path fill="rgb(0,0,0)" stroke="rgb(0,0,0)" stroke-width="2" style="stroke-linecap:square; stroke-linejoin:miter" d=" M 230 410 L 230 410 230 450 230 450 230 410" />
<polyline points="240.00 430.00 270.00 430.00" fill="none" stroke="rgb(0,0,0)" stroke-width="2" />
<path fill="rgb(0,0,0)" stroke="rgb(0,0,0)" stroke-width="2" style="stroke-linecap:square; stroke-linejoin:miter" d=" M 240 410 L 240 410 240 450 240 450 240 410" />
<polyline points="200.00 430.00 230.00 430.00" fill="none" stroke="rgb(0,0,0)" stroke-width="2" />
<text x="170.00" y="409.00" font-family ="Arial" font-size ="17pt" font-weight="normal" font-style="italic" fill="rgb(0,0,0)" transform=" rotate(0.000) scale(1.000,1.000)">C2-1</text>
<text x="260.00" y="409.00" font-family ="Arial" font-size ="17pt" font-weight="normal" font-style="italic" fill="rgb(0,0,0)" transform=" rotate(0.000) scale(1.000,1.000)">${cap21} pF</text>
<polyline points="310.00 430.00 310.00 460.00 290.00 460.00 330.00 460.00" fill="none" stroke="rgb(0,0,0)" stroke-width="2" />
<polyline points="290.00 470.00 330.00 470.00 310.00 470.00 310.00 500.00" fill="none" stroke="rgb(0,0,0)" stroke-width="2" />
<text x="315.00" y="449.00" font-family ="Arial" font-size ="17pt" font-weight="normal" font-style="italic" fill="rgb(0,0,0)" transform=" rotate(0.000) scale(1.000,1.000)">C2-2</text>
<text x="315.00" y="494.00" font-family ="Arial" font-size ="17pt" font-weight="normal" font-style="italic" fill="rgb(0,0,0)" transform=" rotate(0.000) scale(1.000,1.000)">${cap22} pF</text>
<path fill="rgb(0,0,0)" stroke="rgb(0,0,0)" stroke-width="2" style="stroke-linecap:square; stroke-linejoin:miter" d=" M 250 530 L 290 530 290 540 250 540 250 530" />
<polyline points="270.00 500.00 270.00 530.00" fill="none" stroke="rgb(0,0,0)" stroke-width="2" />
<polyline points="270.00 560.00 270.00 590.00" fill="none" stroke="rgb(0,0,0)" stroke-width="2" />
<path fill="rgb(0,0,0)" stroke="rgb(0,0,0)" stroke-width="2" style="stroke-linecap:square; stroke-linejoin:miter" d=" M 250 550 L 290 550 290 560 250 560 250 550" />
<polyline points="245.00 520.00 300.00 575.00" fill="none" stroke="rgb(0,0,0)" stroke-width="2" />
<polygon points="240 515 250 520 245 525" fill="rgb(0,0,0)" stroke="rgb(0,0,0)" stroke-width="1" />
<text x="320.00" y="539.00" font-family ="ARIAL" font-size ="17pt" font-weight="normal" font-style="normal" fill="rgb(0,0,0)" transform=" rotate(0.000) scale(1.000,1.000)">Cvar</text>
<text x="320.00" y="559.00" font-family ="ARIAL" font-size ="17pt" font-weight="normal" font-style="normal" fill="rgb(0,0,0)" transform=" rotate(0.000) scale(1.000,1.000)">${capMin}..${capMax} pF</text>
<polyline points="270.00 430.00 310.00 430.00" fill="none" stroke="rgb(0,0,0)" stroke-width="2" />
<polyline points="310.00 500.00 310.00 590.00 200.00 590.00" fill="none" stroke="rgb(0,0,0)" stroke-width="2" />
<polyline points="270.00 500.00 270.00 430.00" fill="none" stroke="rgb(0,0,0)" stroke-width="2" />
<circle cx="270" cy="430" r="6" fill="rgb(0,0,0)" stroke="none" stroke-width="2" />
<circle cx="270" cy="590" r="6" fill="rgb(0,0,0)" stroke="none" stroke-width="2" />
<polyline points="270.00 590.00 270.00 620.00" fill="none" stroke="rgb(0,0,0)" stroke-width="2" />
<polyline points="250.00 620.00 290.00 620.00" fill="none" stroke="rgb(0,0,0)" stroke-width="4" />
<polyline points="200.00 40.00 200.00 170.00" fill="none" stroke="rgb(0,0,0)" stroke-width="2" />
<polyline points="200.00 90.00 170.00 40.00" fill="none" stroke="rgb(0,0,0)" stroke-width="2" />
<polyline points="200.00 90.00 230.00 40.00" fill="none" stroke="rgb(0,0,0)" stroke-width="2" />
<text x="210.00" y="119.00" font-family ="ARIAL" font-size ="17pt" font-weight="normal" font-style="normal" fill="rgb(0,0,0)" transform=" rotate(0.000) scale(1.000,1.000)">Ant</text>
<circle cx="200" cy="170" r="6" fill="rgb(0,0,0)" stroke="none" stroke-width="2" />
<path fill="none" stroke="rgb(0,0,0)" stroke-width="2" style="stroke-linecap:square; stroke-linejoin:miter" d=" M 40 290 L 160 290 160 400 40 400 40 290" />
<polyline points="200.00 170.00 150.00 170.00 150.00 290.00" fill="none" stroke="rgb(0,0,0)" stroke-width="2" />
<polyline points="200.00 430.00 150.00 430.00 150.00 400.00" fill="none" stroke="rgb(0,0,0)" stroke-width="2" />
<polyline points="100.00 300.00 90.00 300.00 93.33 310.00 90.00 320.00 100.00 320.00" fill="none" stroke="rgb(0,0,0)" stroke-width="2" />
<text x="50.00" y="364.00" font-family ="Arial" font-size ="21pt" font-weight="normal" font-style="normal" fill="rgb(0,0,0)" transform=" rotate(0.000) scale(1.000,1.000)">${freqOut} kHz</text>
<circle cx="200" cy="430" r="6" fill="rgb(0,0,0)" stroke="none" stroke-width="2" />
</svg>
