<?xml version="1.0" encoding="utf-8"?>
<!-- Created with "sPlan" (http://www.abacom-online.de) -->
<svg version="1.1" baseProfile="full"
xmlns="http://www.w3.org/2000/svg"
width="630" height="450">
<title>schema</title>
<defs>
<style type="text/css">
<![CDATA[
polyline {stroke-linecap:round; stroke-linejoin:round}
polygon {stroke-linecap:round; stroke-linejoin:round}
path {stroke-linecap:round; stroke-linejoin:round}
circle {stroke-linecap:round; stroke-linejoin:round}
]]>
</style>
</defs>
<polyline points="40.00 120.00 70.00 120.00" fill="none" stroke="rgb(0,0,0)" stroke-width="2" />
<circle cx="115.00" cy="120.00" r="45.00" fill="rgb(255,255,255)" stroke="rgb(0,0,0)" stroke-width="2" />
<polyline points="160.00 120.00 190.00 120.00" fill="none" stroke="rgb(0,0,0)" stroke-width="2" />
<text x="70.00" y="129.00" font-family ="ARIAL" font-size ="27pt" font-weight="normal" font-style="normal" fill="rgb(0,0,0)" transform=" rotate(0.000) scale(1.000,1.000)">${current}</text>
<circle cx="340.00" cy="240.00" r="105.00" fill="none" stroke="rgb(0,0,0)" stroke-width="2" />
<circle cx="340.00" cy="240.00" r="170.00" fill="none" stroke="rgb(0,0,0)" stroke-width="2" />
<path fill="none" stroke="rgb(0,0,0)" stroke-width="2" d=" M 281.50 366.70 Q 286.42 369.34 299.56 373.33 Q 312.69 377.31 326.34 378.65 Q 340.00 380.00 353.66 378.65 Q 367.31 377.31 374.16 375.25 L 381.00 373.20" />
<polyline points="290.00 380.00 281.50 366.70" fill="none" stroke="rgb(0,0,0)" stroke-width="2" />
<polyline points="294.80 358.20 281.50 366.70" fill="none" stroke="rgb(0,0,0)" stroke-width="2" />
<polyline points="190.00 120.00 270.00 200.00" fill="none" stroke="rgb(0,0,0)" stroke-width="5" />
<polyline points="270.00 200.00 160.72 229.28" fill="none" stroke="rgb(0,0,0)" stroke-width="5" />
<polyline points="270.00 258.56 160.72 229.28" fill="none" stroke="rgb(0,0,0)" stroke-width="5" />
<polyline points="270.00 258.56 190.00 338.56" fill="none" stroke="rgb(0,0,0)" stroke-width="5" />
<polyline points="190.00 338.56 40.00 340.00" fill="none" stroke="rgb(0,0,0)" stroke-width="2" />
<text x="60.00" y="316.00" font-family ="Arial" font-size ="27pt" font-weight="normal" font-style="normal" fill="rgb(0,0,0)" transform=" rotate(0.000) scale(1.000,1.000)">${numberOfCoils}</text>
<polyline points="80.00 300.00 150.00 230.00" fill="none" stroke="rgb(0,0,0)" stroke-width="2" />
<polygon points="139.39 248.24 150.00 230.00 131.76 240.61" fill="rgb(0,0,0)" stroke="rgb(0,0,0)" stroke-width="2" />
<path fill="none" stroke="rgb(0,0,0)" stroke-width="2" d=" M 464.70 302.30 Q 469.34 293.58 473.33 280.44 Q 477.31 267.31 478.65 253.66 Q 480.00 240.00 478.65 226.34 Q 477.31 212.69 473.33 199.56 Q 469.34 186.42 462.87 174.32 Q 456.41 162.22 447.70 151.61 Q 438.99 141.01 428.39 132.30 Q 417.78 123.59 405.68 117.13 Q 393.58 110.66 380.44 106.67 Q 367.31 102.69 353.66 101.35 Q 340.00 100.00 326.34 101.35 Q 312.69 102.69 299.56 106.67 Q 286.42 110.66 276.61 115.88 L 266.80 121.10" />
<text x="63.41" y="540.37" font-family ="Arial" font-size ="27pt" font-weight="normal" font-style="normal" fill="rgb(0,0,0)" transform=" rotate(-40.000) scale(1.000,1.000)">${fieldInduction}</text>
<polyline points="390.00 190.00 490.00 90.00 590.00 90.00" fill="none" stroke="rgb(0,0,0)" stroke-width="2" />
<polyline points="380.00 200.00 410.00 170.00" fill="none" stroke="rgb(0,0,0)" stroke-width="2" />
<polygon points="399.39 188.24 410.00 170.00 391.76 180.61" fill="rgb(0,0,0)" stroke="rgb(0,0,0)" stroke-width="2" />
<polyline points="490.00 90.00 460.00 120.00" fill="none" stroke="rgb(0,0,0)" stroke-width="2" />
<polygon points="470.61 101.76 460.00 120.00 478.24 109.39" fill="rgb(0,0,0)" stroke="rgb(0,0,0)" stroke-width="2" />
<text x="490.00" y="76.00" font-family ="Arial" font-size ="27pt" font-weight="normal" font-style="normal" fill="rgb(0,0,0)" transform=" rotate(0.000) scale(1.000,1.000)">${ringType}</text>
<polyline points="250.00 140.00 160.00 50.00" fill="none" stroke="rgb(0,0,0)" stroke-width="2" />
<circle cx="250" cy="140" r="6" fill="rgb(0,0,0)" stroke="none" stroke-width="2" />
<text x="70.00" y="56.00" font-family ="Arial" font-size ="27pt" font-weight="normal" font-style="normal" fill="rgb(0,0,0)" transform=" rotate(0.000) scale(1.000,1.000)">${ringMyu}</text>
</svg>
