<?xml version="1.0" encoding="utf-8"?>
<!-- Created with "sPlan" (http://www.abacom-online.de) -->
<svg version="1.1" baseProfile="full"
xmlns="http://www.w3.org/2000/svg"
width="550" height="615">
<title>schema</title>
<defs>
<style type="text/css">
<![CDATA[
polyline {stroke-linecap:round; stroke-linejoin:round}
polygon {stroke-linecap:round; stroke-linejoin:round}
path {stroke-linecap:round; stroke-linejoin:round}
circle {stroke-linecap:round; stroke-linejoin:round}
]]>
</style>
</defs>
<polyline points="120.00 85.00 150.00 85.00" fill="none" stroke="rgb(0,0,0)" stroke-width="2" />
<circle cx="195.00" cy="85.00" r="45.00" fill="rgb(255,255,255)" stroke="rgb(0,0,0)" stroke-width="2" />
<polyline points="240.00 85.00 270.00 85.00" fill="none" stroke="rgb(0,0,0)" stroke-width="2" />
<text x="160.00" y="94.00" font-family ="ARIAL" font-size ="17pt" font-weight="normal" font-style="normal" fill="rgb(0,0,0)" transform=" rotate(0.000) scale(1.000,1.000)">${iPeak}</text>
<polyline points="120.00 85.00 120.00 115.00" fill="none" stroke="rgb(0,0,0)" stroke-width="2" />
<circle cx="120.00" cy="160.00" r="45.00" fill="rgb(255,255,255)" stroke="rgb(0,0,0)" stroke-width="2" />
<polyline points="120.00 205.00 120.00 235.00" fill="none" stroke="rgb(0,0,0)" stroke-width="2" />
<text x="90.00" y="164.00" font-family ="ARIAL" font-size ="17pt" font-weight="normal" font-style="normal" fill="rgb(0,0,0)" transform=" rotate(0.000) scale(1.000,1.000)">${uIn}</text>
<polyline points="440.00 345.00 440.00 375.00" fill="none" stroke="rgb(0,0,0)" stroke-width="2" />
<circle cx="440.00" cy="420.00" r="45.00" fill="rgb(255,255,255)" stroke="rgb(0,0,0)" stroke-width="2" />
<polyline points="440.00 465.00 440.00 495.00" fill="none" stroke="rgb(0,0,0)" stroke-width="2" />
<text x="400.00" y="424.00" font-family ="ARIAL" font-size ="17pt" font-weight="normal" font-style="normal" fill="rgb(0,0,0)" transform=" rotate(0.000) scale(1.000,1.000)">${uOut}</text>
<polyline points="360.00 245.00 390.00 245.00" fill="none" stroke="rgb(0,0,0)" stroke-width="2" />
<circle cx="435.00" cy="245.00" r="45.00" fill="rgb(255,255,255)" stroke="rgb(0,0,0)" stroke-width="2" />
<polyline points="480.00 245.00 510.00 245.00" fill="none" stroke="rgb(0,0,0)" stroke-width="2" />
<text x="400.00" y="254.00" font-family ="ARIAL" font-size ="17pt" font-weight="normal" font-style="normal" fill="rgb(0,0,0)" transform=" rotate(0.000) scale(1.000,1.000)">${iOut}</text>
<polyline points="270.00 85.00 270.00 95.00" fill="none" stroke="rgb(0,0,0)" stroke-width="2" />
<polyline points="270.00 175.00 270.00 185.00" fill="none" stroke="rgb(0,0,0)" stroke-width="2" />
<path fill="none" stroke="rgb(0,0,0)" stroke-width="2" d=" M 270.00 115.00 Q 270.00 115.00 270.98 114.90 Q 271.95 114.81 272.89 114.52 Q 273.83 114.24 274.69 113.78 Q 275.56 113.31 276.31 112.69 Q 277.07 112.07 277.69 111.31 Q 278.31 110.56 278.78 109.69 Q 279.24 108.83 279.52 107.89 Q 279.81 106.95 279.90 105.98 Q 280.00 105.00 279.90 104.02 Q 279.81 103.05 279.52 102.11 Q 279.24 101.17 278.78 100.31 Q 278.31 99.44 277.69 98.69 Q 277.07 97.93 276.31 97.31 Q 275.56 96.69 274.69 96.22 Q 273.83 95.76 272.89 95.48 Q 271.95 95.19 270.98 95.10 Q 270.00 95.00 270.00 95.00 L 270.00 95.00" />
<path fill="none" stroke="rgb(0,0,0)" stroke-width="2" d=" M 270.00 135.00 Q 270.00 135.00 270.98 134.90 Q 271.95 134.81 272.89 134.52 Q 273.83 134.24 274.69 133.78 Q 275.56 133.31 276.31 132.69 Q 277.07 132.07 277.69 131.31 Q 278.31 130.56 278.78 129.69 Q 279.24 128.83 279.52 127.89 Q 279.81 126.95 279.90 125.98 Q 280.00 125.00 279.90 124.02 Q 279.81 123.05 279.52 122.11 Q 279.24 121.17 278.78 120.31 Q 278.31 119.44 277.69 118.69 Q 277.07 117.93 276.31 117.31 Q 275.56 116.69 274.69 116.22 Q 273.83 115.76 272.89 115.48 Q 271.95 115.19 270.98 115.10 Q 270.00 115.00 270.00 115.00 L 270.00 115.00" />
<path fill="none" stroke="rgb(0,0,0)" stroke-width="2" d=" M 270.00 155.00 Q 270.00 155.00 270.98 154.90 Q 271.95 154.81 272.89 154.52 Q 273.83 154.24 274.69 153.78 Q 275.56 153.31 276.31 152.69 Q 277.07 152.07 277.69 151.31 Q 278.31 150.56 278.78 149.69 Q 279.24 148.83 279.52 147.89 Q 279.81 146.95 279.90 145.98 Q 280.00 145.00 279.90 144.02 Q 279.81 143.05 279.52 142.11 Q 279.24 141.17 278.78 140.31 Q 278.31 139.44 277.69 138.69 Q 277.07 137.93 276.31 137.31 Q 275.56 136.69 274.69 136.22 Q 273.83 135.76 272.89 135.48 Q 271.95 135.19 270.98 135.10 Q 270.00 135.00 270.00 135.00 L 270.00 135.00" />
<path fill="none" stroke="rgb(0,0,0)" stroke-width="2" d=" M 270.00 175.00 Q 270.00 175.00 270.98 174.90 Q 271.95 174.81 272.89 174.52 Q 273.83 174.24 274.69 173.78 Q 275.56 173.31 276.31 172.69 Q 277.07 172.07 277.69 171.31 Q 278.31 170.56 278.78 169.69 Q 279.24 168.83 279.52 167.89 Q 279.81 166.95 279.90 165.98 Q 280.00 165.00 279.90 164.02 Q 279.81 163.05 279.52 162.11 Q 279.24 161.17 278.78 160.31 Q 278.31 159.44 277.69 158.69 Q 277.07 157.93 276.31 157.31 Q 275.56 156.69 274.69 156.22 Q 273.83 155.76 272.89 155.48 Q 271.95 155.19 270.98 155.10 Q 270.00 155.00 270.00 155.00 L 270.00 155.00" />
<polyline points="285.00 95.00 285.00 175.00" fill="none" stroke="rgb(0,0,0)" stroke-width="2" />
<text x="290.00" y="124.00" font-family ="Arial" font-size ="17pt" font-weight="normal" font-style="italic" fill="rgb(0,0,0)" transform=" rotate(0.000) scale(1.000,1.000)">${inductance}</text>
<polyline points="270.00 315.00 220.00 315.00" fill="none" stroke="rgb(0,0,0)" stroke-width="2" />
<polygon points="245 290 245 300 230 295" fill="rgb(0,0,0)" stroke="rgb(0,0,0)" stroke-width="1" />
<polyline points="220.00 275.00 270.00 275.00" fill="none" stroke="rgb(0,0,0)" stroke-width="2" />
<polyline points="170.00 315.00 210.00 315.00 210.00 275.00" fill="none" stroke="rgb(0,0,0)" stroke-width="2" />
<polyline points="220.00 295.00 260.00 295.00" fill="none" stroke="rgb(0,0,0)" stroke-width="2" />
<path fill="rgb(0,0,0)" stroke="rgb(0,0,0)" stroke-width="1" style="stroke-linecap:square; stroke-linejoin:miter" d=" M 215 267 L 220 267 220 282 215 282 215 267" />
<path fill="rgb(0,0,0)" stroke="rgb(0,0,0)" stroke-width="1" style="stroke-linecap:square; stroke-linejoin:miter" d=" M 215 287 L 220 287 220 302 215 302 215 287" />
<path fill="rgb(0,0,0)" stroke="rgb(0,0,0)" stroke-width="1" style="stroke-linecap:square; stroke-linejoin:miter" d=" M 215 307 L 220 307 220 322 215 322 215 307" />
<text x="200.00" y="349.00" font-family ="ARIAL" font-size ="17pt" font-weight="normal" font-style="normal" fill="rgb(0,0,0)" transform=" rotate(0.000) scale(1.000,1.000)"></text>
<path fill="none" stroke="rgb(0,0,0)" stroke-width="2" style="stroke-linecap:square; stroke-linejoin:miter" d=" M 80 295 L 170 295 170 455 80 455 80 295" />
<polygon points="329 245 301 225 301 265" fill="rgb(255,255,255)" stroke="rgb(0,0,0)" stroke-width="2" />
<polyline points="360.00 245.00 271.00 245.00" fill="none" stroke="rgb(0,0,0)" stroke-width="2" />
<polyline points="329.00 225.00 329.00 265.00" fill="none" stroke="rgb(0,0,0)" stroke-width="2" />
<text x="325.00" y="285.00" font-family ="Arial" font-size ="17pt" font-weight="normal" font-style="italic" fill="rgb(0,0,0)" transform=" rotate(0.000) scale(1.000,1.000)"></text>
<circle cx="360" cy="345" r="6" fill="rgb(0,0,0)" stroke="none" stroke-width="2" />
<polyline points="360.00 245.00 360.00 215.00 380.00 215.00 340.00 215.00" fill="none" stroke="rgb(0,0,0)" stroke-width="2" />
<polyline points="380.00 205.00 340.00 205.00 360.00 205.00 360.00 175.00" fill="none" stroke="rgb(0,0,0)" stroke-width="2" />
<polyline points="350.00 225.00 340.00 225.00" fill="none" stroke="rgb(0,0,0)" stroke-width="2" />
<polyline points="345.00 230.00 345.00 220.00" fill="none" stroke="rgb(0,0,0)" stroke-width="2" />
<polyline points="360.00 175.00 360.00 145.00" fill="none" stroke="rgb(0,0,0)" stroke-width="2" />
<polyline points="340.00 145.00 380.00 145.00" fill="none" stroke="rgb(0,0,0)" stroke-width="4" />
<path fill="rgb(255,255,255)" stroke="rgb(0,0,0)" stroke-width="2" style="stroke-linecap:square; stroke-linejoin:miter" d=" M 130 495 L 150 495 150 545 130 545 130 495" />
<polyline points="140.00 475.00 140.00 495.00" fill="none" stroke="rgb(0,0,0)" stroke-width="2" />
<polyline points="140.00 545.00 140.00 565.00" fill="none" stroke="rgb(0,0,0)" stroke-width="2" />
<text x="153.00" y="520.00" font-family ="Arial" font-size ="17pt" font-weight="normal" font-style="italic" fill="rgb(0,0,0)" transform=" rotate(0.000) scale(1.000,1.000)">R</text>
<text x="153.00" y="540.00" font-family ="Arial" font-size ="17pt" font-weight="normal" font-style="italic" fill="rgb(0,0,0)" transform=" rotate(0.000) scale(1.000,1.000)">10k</text>
<path fill="rgb(255,255,255)" stroke="rgb(0,0,0)" stroke-width="2" style="stroke-linecap:square; stroke-linejoin:miter" d=" M 280 375 L 260 375 260 425 280 425 280 375" />
<polyline points="270.00 355.00 270.00 375.00" fill="none" stroke="rgb(0,0,0)" stroke-width="2" />
<polyline points="270.00 425.00 270.00 445.00" fill="none" stroke="rgb(0,0,0)" stroke-width="2" />
<text x="187.12" y="414.00" font-family ="Arial" font-size ="17pt" font-weight="normal" font-style="italic" fill="rgb(0,0,0)" transform=" rotate(0.000) scale(1.000,1.000)">${rCS}</text>
<path fill="rgb(255,255,255)" stroke="rgb(0,0,0)" stroke-width="2" style="stroke-linecap:square; stroke-linejoin:miter" d=" M 370 365 L 350 365 350 415 370 415 370 365" />
<polyline points="360.00 345.00 360.00 365.00" fill="none" stroke="rgb(0,0,0)" stroke-width="2" />
<polyline points="360.00 415.00 360.00 435.00" fill="none" stroke="rgb(0,0,0)" stroke-width="2" />
<text x="294.88" y="414.00" font-family ="Arial" font-size ="17pt" font-weight="normal" font-style="italic" fill="rgb(0,0,0)" transform=" rotate(0.000) scale(1.000,1.000)">${r1}</text>
<circle cx="360" cy="245" r="6" fill="rgb(0,0,0)" stroke="none" stroke-width="2" />
<circle cx="271" cy="245" r="6" fill="rgb(0,0,0)" stroke="none" stroke-width="2" />
<circle cx="120" cy="85" r="6" fill="rgb(0,0,0)" stroke="none" stroke-width="2" />
<polyline points="120.00 85.00 40.00 85.00" fill="none" stroke="rgb(0,0,0)" stroke-width="2" />
<polyline points="270.00 425.00 270.00 455.00" fill="none" stroke="rgb(0,0,0)" stroke-width="2" />
<polyline points="250.00 455.00 290.00 455.00" fill="none" stroke="rgb(0,0,0)" stroke-width="4" />
<polyline points="140.00 455.00 140.00 475.00 360.00 475.00 360.00 435.00" fill="none" stroke="rgb(0,0,0)" stroke-width="2" />
<polyline points="140.00 545.00 140.00 575.00" fill="none" stroke="rgb(0,0,0)" stroke-width="2" />
<polyline points="120.00 575.00 160.00 575.00" fill="none" stroke="rgb(0,0,0)" stroke-width="4" />
<polyline points="440.00 495.00 440.00 525.00" fill="none" stroke="rgb(0,0,0)" stroke-width="2" />
<polyline points="420.00 525.00 460.00 525.00" fill="none" stroke="rgb(0,0,0)" stroke-width="4" />
<circle cx="270" cy="355" r="6" fill="rgb(0,0,0)" stroke="none" stroke-width="2" />
<polyline points="440.00 345.00 360.00 345.00 360.00 245.00" fill="none" stroke="rgb(0,0,0)" stroke-width="2" />
<circle cx="140" cy="475" r="6" fill="rgb(0,0,0)" stroke="none" stroke-width="2" />
<polyline points="270.00 315.00 270.00 355.00 170.00 355.00" fill="none" stroke="rgb(0,0,0)" stroke-width="2" />
<polyline points="270.00 185.00 270.00 275.00" fill="none" stroke="rgb(0,0,0)" stroke-width="2" />
<polyline points="120.00 235.00 120.00 265.00" fill="none" stroke="rgb(0,0,0)" stroke-width="2" />
<polyline points="100.00 265.00 140.00 265.00" fill="none" stroke="rgb(0,0,0)" stroke-width="4" />
<text x="110.00" y="487.00" font-family ="Arial" font-size ="28pt" font-weight="normal" font-style="normal" fill="rgb(0,0,0)" transform=" rotate(0.000) scale(1.000,1.000)">1</text>
<text x="180.00" y="387.00" font-family ="Arial" font-size ="28pt" font-weight="normal" font-style="normal" fill="rgb(0,0,0)" transform=" rotate(0.000) scale(1.000,1.000)">4</text>
<text x="180.00" y="307.00" font-family ="Arial" font-size ="28pt" font-weight="normal" font-style="normal" fill="rgb(0,0,0)" transform=" rotate(0.000) scale(1.000,1.000)">7</text>
<text x="-455.00" y="142.00" font-family ="Arial" font-size ="28pt" font-weight="normal" font-style="normal" fill="rgb(0,0,0)" transform=" rotate(-90.000) scale(1.000,1.000)">MC34262</text>
</svg>
