<?xml version="1.0" encoding="utf-8"?>
<!-- Created with "sPlan" (http://www.abacom-online.de) -->
<svg version="1.1" baseProfile="full"
xmlns="http://www.w3.org/2000/svg"
width="480" height="444">
<title>schema2</title>
<defs>
<style type="text/css">
<![CDATA[
polyline {stroke-linecap:round; stroke-linejoin:round}
polygon {stroke-linecap:round; stroke-linejoin:round}
path {stroke-linecap:round; stroke-linejoin:round}
circle {stroke-linecap:round; stroke-linejoin:round}
]]>
</style>
</defs>
<polyline points="150.00 360.00 175.00 360.00 180.00 345.00 190.00 375.00 200.00 345.00 210.00 375.00 220.00 345.00 225.00 360.00 250.00 360.00" fill="none" stroke="rgb(0,0,0)" stroke-width="2" />
<polyline points="200.00 336.00 200.00 310.00" fill="none" stroke="rgb(0,0,0)" stroke-width="2" />
<polygon points="200 340 196 328 204 328" fill="rgb(0,0,0)" stroke="rgb(0,0,0)" stroke-width="1" />
<text x="160.00" y="399.00" font-family ="ARIAL" font-size ="17pt" font-weight="normal" font-style="normal" fill="rgb(0,0,0)" transform=" rotate(0.000) scale(1.000,1.000)">${resistance}</text>
<path fill="rgb(255,255,255)" stroke="rgb(0,0,0)" stroke-width="2" style="stroke-linecap:square; stroke-linejoin:miter" d=" M 210 170 L 190 170 190 220 210 220 210 170" />
<polyline points="200.00 150.00 200.00 170.00" fill="none" stroke="rgb(0,0,0)" stroke-width="2" />
<polyline points="200.00 220.00 200.00 240.00" fill="none" stroke="rgb(0,0,0)" stroke-width="2" />
<text x="102.40" y="199.00" font-family ="Arial" font-size ="17pt" font-weight="normal" font-style="italic" fill="rgb(0,0,0)" transform=" rotate(0.000) scale(1.000,1.000)">${r2}</text>
<polyline points="200.00 240.00 200.00 270.00 220.00 270.00 180.00 270.00" fill="none" stroke="rgb(0,0,0)" stroke-width="2" />
<polyline points="220.00 280.00 180.00 280.00 200.00 280.00 200.00 310.00" fill="none" stroke="rgb(0,0,0)" stroke-width="2" />
<text x="102.40" y="279.00" font-family ="Arial" font-size ="17pt" font-weight="normal" font-style="italic" fill="rgb(0,0,0)" transform=" rotate(0.000) scale(1.000,1.000)">${c2}</text>
<polyline points="150.00 80.00 175.00 80.00 180.00 95.00 190.00 65.00 200.00 95.00 210.00 65.00 220.00 95.00 225.00 80.00 250.00 80.00" fill="none" stroke="rgb(0,0,0)" stroke-width="2" />
<polyline points="200.00 104.00 200.00 130.00" fill="none" stroke="rgb(0,0,0)" stroke-width="2" />
<polygon points="200 100 196 112 204 112" fill="rgb(0,0,0)" stroke="rgb(0,0,0)" stroke-width="1" />
<text x="160.00" y="59.00" font-family ="ARIAL" font-size ="17pt" font-weight="normal" font-style="normal" fill="rgb(0,0,0)" transform=" rotate(0.000) scale(1.000,1.000)">${resistance}</text>
<polygon points="280 150 280 270 400 210" fill="rgb(255,255,255)" stroke="rgb(0,0,0)" stroke-width="2" />
<polyline points="280.00 180.00 240.00 180.00" fill="none" stroke="rgb(0,0,0)" stroke-width="2" />
<polyline points="240.00 240.00 280.00 240.00" fill="none" stroke="rgb(0,0,0)" stroke-width="2" />
<polyline points="400.00 210.00 440.00 210.00" fill="none" stroke="rgb(0,0,0)" stroke-width="2" />
<polyline points="290.00 240.00 300.00 240.00" fill="none" stroke="rgb(0,0,0)" stroke-width="2" />
<polyline points="290.00 180.00 300.00 180.00" fill="none" stroke="rgb(0,0,0)" stroke-width="2" />
<polyline points="295.00 175.00 295.00 185.00" fill="none" stroke="rgb(0,0,0)" stroke-width="2" />
<text x="340.00" y="264.00" font-family ="ARIAL" font-size ="17pt" font-weight="normal" font-style="normal" fill="rgb(0,0,0)" transform=" rotate(0.000) scale(1.000,1.000)">OP</text>
<circle cx="200" cy="240" r="6" fill="rgb(0,0,0)" stroke="none" stroke-width="2" />
<polyline points="270.00 180.00 240.00 180.00" fill="none" stroke="rgb(0,0,0)" stroke-width="2" />
<polyline points="240.00 160.00 240.00 200.00" fill="none" stroke="rgb(0,0,0)" stroke-width="4" />
<polyline points="250.00 80.00 250.00 110.00 230.00 110.00 270.00 110.00" fill="none" stroke="rgb(0,0,0)" stroke-width="2" />
<polyline points="230.00 120.00 270.00 120.00 250.00 120.00 250.00 150.00" fill="none" stroke="rgb(0,0,0)" stroke-width="2" />
<text x="290.00" y="129.00" font-family ="Arial" font-size ="17pt" font-weight="normal" font-style="italic" fill="rgb(0,0,0)" transform=" rotate(0.000) scale(1.000,1.000)">${c1}</text>
<polyline points="150.00 80.00 150.00 110.00 170.00 110.00 130.00 110.00" fill="none" stroke="rgb(0,0,0)" stroke-width="2" />
<polyline points="170.00 120.00 130.00 120.00 150.00 120.00 150.00 150.00" fill="none" stroke="rgb(0,0,0)" stroke-width="2" />
<text x="72.88" y="129.00" font-family ="Arial" font-size ="17pt" font-weight="normal" font-style="italic" fill="rgb(0,0,0)" transform=" rotate(0.000) scale(1.000,1.000)">${c1}</text>
<path fill="rgb(255,255,255)" stroke="rgb(0,0,0)" stroke-width="2" style="stroke-linecap:square; stroke-linejoin:miter" d=" M 270 70 L 320 70 320 90 270 90 270 70" />
<polyline points="250.00 80.00 270.00 80.00" fill="none" stroke="rgb(0,0,0)" stroke-width="2" />
<polyline points="320.00 80.00 340.00 80.00" fill="none" stroke="rgb(0,0,0)" stroke-width="2" />
<text x="270.00" y="59.00" font-family ="Arial" font-size ="17pt" font-weight="normal" font-style="italic" fill="rgb(0,0,0)" transform=" rotate(0.000) scale(1.000,1.000)">${r1}</text>
<path fill="rgb(255,255,255)" stroke="rgb(0,0,0)" stroke-width="2" style="stroke-linecap:square; stroke-linejoin:miter" d=" M 270 350 L 320 350 320 370 270 370 270 350" />
<polyline points="250.00 360.00 270.00 360.00" fill="none" stroke="rgb(0,0,0)" stroke-width="2" />
<polyline points="320.00 360.00 340.00 360.00" fill="none" stroke="rgb(0,0,0)" stroke-width="2" />
<text x="280.00" y="399.00" font-family ="Arial" font-size ="17pt" font-weight="normal" font-style="italic" fill="rgb(0,0,0)" transform=" rotate(0.000) scale(1.000,1.000)">${r3}</text>
<circle cx="200" cy="150" r="6" fill="rgb(0,0,0)" stroke="none" stroke-width="2" />
<circle cx="250" cy="80" r="6" fill="rgb(0,0,0)" stroke="none" stroke-width="2" />
<circle cx="150" cy="80" r="6" fill="rgb(0,0,0)" stroke="none" stroke-width="2" />
<circle cx="420" cy="210" r="6" fill="rgb(0,0,0)" stroke="none" stroke-width="2" />
<polyline points="340.00 80.00 420.00 80.00 420.00 360.00 340.00 360.00" fill="none" stroke="rgb(0,0,0)" stroke-width="2" />
<polyline points="240.00 240.00 200.00 240.00" fill="none" stroke="rgb(0,0,0)" stroke-width="2" />
<polyline points="200.00 130.00 200.00 150.00" fill="none" stroke="rgb(0,0,0)" stroke-width="2" />
<polyline points="250.00 150.00 150.00 150.00" fill="none" stroke="rgb(0,0,0)" stroke-width="2" />
<path fill="rgb(255,255,255)" stroke="rgb(0,0,0)" stroke-width="2" style="stroke-linecap:square; stroke-linejoin:miter" d=" M 80 70 L 130 70 130 90 80 90 80 70" />
<polyline points="60.00 80.00 80.00 80.00" fill="none" stroke="rgb(0,0,0)" stroke-width="2" />
<polyline points="130.00 80.00 150.00 80.00" fill="none" stroke="rgb(0,0,0)" stroke-width="2" />
<text x="50.00" y="59.00" font-family ="Arial" font-size ="17pt" font-weight="normal" font-style="italic" fill="rgb(0,0,0)" transform=" rotate(0.000) scale(1.000,1.000)">${r1}</text>
<path fill="rgb(255,255,255)" stroke="rgb(0,0,0)" stroke-width="2" style="stroke-linecap:square; stroke-linejoin:miter" d=" M 80 350 L 130 350 130 370 80 370 80 350" />
<polyline points="60.00 360.00 80.00 360.00" fill="none" stroke="rgb(0,0,0)" stroke-width="2" />
<polyline points="130.00 360.00 150.00 360.00" fill="none" stroke="rgb(0,0,0)" stroke-width="2" />
<text x="50.00" y="399.00" font-family ="Arial" font-size ="17pt" font-weight="normal" font-style="italic" fill="rgb(0,0,0)" transform=" rotate(0.000) scale(1.000,1.000)">${r3}</text>
<polyline points="60.00 80.00 60.00 360.00" fill="none" stroke="rgb(0,0,0)" stroke-width="2" />
<circle cx="60" cy="210" r="6" fill="rgb(0,0,0)" stroke="none" stroke-width="2" />
<polyline points="60.00 210.00 40.00 210.00" fill="none" stroke="rgb(0,0,0)" stroke-width="2" />
</svg>
